<?xml version="1.0" standalone="no"?>
<!DOCTYPE svg PUBLIC "-//W3C//DTD SVG 20010904//EN"
 "http://www.w3.org/TR/2001/REC-SVG-20010904/DTD/svg10.dtd">
<svg version="1.0" xmlns="http://www.w3.org/2000/svg"
 width="512.000000pt" height="512.000000pt" viewBox="0 0 512.000000 512.000000"
 preserveAspectRatio="xMidYMid meet">

<g transform="translate(0.000000,512.000000) scale(0.100000,-0.100000)"
fill="#000000" stroke="none">
<path d="M2535 3845 c-1292 -597 -2377 -1099 -2410 -1115 -118 -58 -153 -174
-83 -275 15 -23 47 -46 93 -69 39 -19 1121 -519 2405 -1112 2041 -942 2342
-1078 2390 -1081 68 -5 113 17 154 75 23 33 29 50 28 95 0 31 -6 66 -12 79 -7
12 -366 494 -797 1070 -525 700 -782 1051 -777 1060 4 7 357 479 785 1049 427
569 782 1046 789 1058 6 13 12 47 12 77 1 100 -76 174 -179 174 -42 -1 -332
-132 -2398 -1085z"/>
</g>
</svg>
