G04*
G04 #@! TF.GenerationSoftware,Altium Limited,Altium Designer,24.4.1 (13)*
G04*
G04 Layer_Color=16711935*
%FSTAX25Y25*%
%MOIN*%
G70*
G04*
G04 #@! TF.SameCoordinates,C872E002-563E-4E90-9F37-C142BC3F6998*
G04*
G04*
G04 #@! TF.FilePolarity,Positive*
G04*
G01*
G75*
%ADD25C,0.00787*%
%ADD26C,0.01000*%
%ADD27C,0.00500*%
%ADD28C,0.00394*%
%ADD40C,0.00000*%
%ADD41C,0.00100*%
D25*
X0138335Y01695D02*
G03*
X0138335Y01695I-0000394J0D01*
G01*
X0260394Y0004D02*
G03*
X0260394Y0004I-0000394J0D01*
G01*
X0252394Y0126941D02*
G03*
X0252394Y0126941I-0000394J0D01*
G01*
X0213453Y00945D02*
G03*
X0213453Y00945I-0000394J0D01*
G01*
X0072394Y0035937D02*
G03*
X0072394Y0035937I-0000394J0D01*
G01*
X0271144Y0146441D02*
G03*
X0271144Y0146441I-0000394J0D01*
G01*
X0138335Y0359658D02*
G03*
X0138335Y0359658I-0000394J0D01*
G01*
X0260394Y0194158D02*
G03*
X0260394Y0194158I-0000394J0D01*
G01*
X0252394Y0317098D02*
G03*
X0252394Y0317098I-0000394J0D01*
G01*
X0213453Y0284658D02*
G03*
X0213453Y0284658I-0000394J0D01*
G01*
X0072394Y0226095D02*
G03*
X0072394Y0226095I-0000394J0D01*
G01*
X0271144Y0336598D02*
G03*
X0271144Y0336598I-0000394J0D01*
G01*
D26*
X0302Y00795D02*
G03*
X0302Y00795I-00005J0D01*
G01*
X0301249Y0039091D02*
G03*
X0301249Y0039091I-00005J0D01*
G01*
X02205Y00445D02*
G03*
X02205Y00445I-00005J0D01*
G01*
X0192D02*
G03*
X0192Y00445I-00005J0D01*
G01*
X02495D02*
G03*
X02495Y00445I-00005J0D01*
G01*
X01155Y008D02*
G03*
X01155Y008I-00005J0D01*
G01*
X01155Y0052D02*
G03*
X01155Y0052I-00005J0D01*
G01*
X0302Y0269657D02*
G03*
X0302Y0269657I-00005J0D01*
G01*
X0301249Y0229248D02*
G03*
X0301249Y0229248I-00005J0D01*
G01*
X02205Y0234658D02*
G03*
X02205Y0234658I-00005J0D01*
G01*
X0192D02*
G03*
X0192Y0234658I-00005J0D01*
G01*
X02495D02*
G03*
X02495Y0234658I-00005J0D01*
G01*
X01155Y0270158D02*
G03*
X01155Y0270158I-00005J0D01*
G01*
X01155Y0242158D02*
G03*
X01155Y0242158I-00005J0D01*
G01*
D27*
X0106642Y004611D02*
Y005989D01*
X0103Y004611D02*
X0106642Y004611D01*
X0099358D02*
X0103Y004611D01*
X0099358Y004611D02*
Y005989D01*
X0103Y005989D01*
X0106642Y005989D01*
X0103Y005989D02*
Y0064516D01*
Y0041484D02*
Y004611D01*
X0099858Y008561D02*
Y009939D01*
X01035Y009939D01*
X0107142Y009939D01*
Y008561D02*
Y009939D01*
X01035Y008561D02*
X0107142Y008561D01*
X0099858D02*
X01035Y008561D01*
Y0080984D02*
Y008561D01*
Y009939D02*
Y0104016D01*
X0214142Y006239D02*
Y0076169D01*
X02105Y0076169D02*
X0214142Y0076169D01*
X0206858D02*
X02105Y0076169D01*
X0206858Y006239D02*
Y0076169D01*
Y006239D02*
X02105D01*
X0214142D01*
X02105Y0057764D02*
Y006239D01*
Y0076169D02*
Y0080795D01*
X0185142Y004861D02*
Y006239D01*
X01815Y006239D02*
X0185142Y006239D01*
X0177858D02*
X01815Y006239D01*
X0177858Y004861D02*
Y006239D01*
Y004861D02*
X01815Y004861D01*
X0185142Y004861D01*
X01815Y0043984D02*
Y004861D01*
Y006239D02*
Y0067016D01*
X0025484Y0054D02*
X003011D01*
X004389D02*
X0048516D01*
X004389Y0050358D02*
Y0054D01*
Y0057642D01*
X003011Y0057642D02*
X004389Y0057642D01*
X003011Y0057642D02*
X003011Y0054D01*
Y0050358D02*
Y0054D01*
Y0050358D02*
X004389D01*
X004389Y0109358D02*
X004389Y0113D01*
Y0116642D01*
X003011Y0116642D02*
X004389Y0116642D01*
X003011Y0116642D02*
X003011Y0113D01*
X003011Y0109358D02*
X003011Y0113D01*
X003011Y0109358D02*
X004389Y0109358D01*
X0025484Y00735D02*
X003011D01*
X004389D02*
X0048516D01*
X004389D02*
X004389Y0069858D01*
X004389Y00735D02*
X004389Y0077142D01*
X003011D02*
X004389D01*
X003011D02*
X003011Y00735D01*
X003011Y0069858D02*
X003011Y00735D01*
X003011Y0069858D02*
X004389D01*
X0025484Y01325D02*
X003011D01*
X004389Y01325D02*
X0048516Y01325D01*
X004389Y0128858D02*
X004389Y01325D01*
Y0136142D01*
X003011D02*
X004389D01*
X003011Y01325D02*
Y0136142D01*
X003011Y0128858D02*
X003011Y01325D01*
X003011Y0128858D02*
X004389Y0128858D01*
X0025484Y00935D02*
X003011D01*
X004389D02*
X0048516D01*
X004389Y0089858D02*
Y00935D01*
X004389Y0097142D02*
X004389Y00935D01*
X003011Y0097142D02*
X004389Y0097142D01*
X003011Y0097142D02*
X003011Y00935D01*
X003011Y0089858D02*
X003011Y00935D01*
X003011Y0089858D02*
X004389Y0089858D01*
X0025484Y0113D02*
X003011D01*
X004389D02*
X0048516D01*
X024Y006189D02*
Y0066516D01*
Y0043484D02*
Y004811D01*
X0243642D01*
X0236358D02*
X024D01*
X0236358D02*
Y006189D01*
X024D01*
X0243642D01*
Y004811D02*
Y006189D01*
X0106642Y0236268D02*
Y0250047D01*
X0103Y0236268D02*
X0106642Y0236268D01*
X0099358D02*
X0103Y0236268D01*
X0099358Y0236268D02*
Y0250047D01*
X0103Y0250047D01*
X0106642Y0250047D01*
X0103Y0250047D02*
Y0254673D01*
Y0231642D02*
Y0236268D01*
X0099858Y0275768D02*
Y0289547D01*
X01035Y0289547D01*
X0107142Y0289547D01*
Y0275768D02*
Y0289547D01*
X01035Y0275768D02*
X0107142Y0275768D01*
X0099858D02*
X01035Y0275768D01*
Y0271142D02*
Y0275768D01*
Y0289547D02*
Y0294173D01*
X0214142Y0252547D02*
Y0266327D01*
X02105Y0266327D02*
X0214142Y0266327D01*
X0206858D02*
X02105Y0266327D01*
X0206858Y0252547D02*
Y0266327D01*
Y0252547D02*
X02105D01*
X0214142D01*
X02105Y0247921D02*
Y0252547D01*
Y0266327D02*
Y0270953D01*
X0185142Y0238768D02*
Y0252547D01*
X01815Y0252547D02*
X0185142Y0252547D01*
X0177858D02*
X01815Y0252547D01*
X0177858Y0238768D02*
Y0252547D01*
Y0238768D02*
X01815Y0238768D01*
X0185142Y0238768D01*
X01815Y0234142D02*
Y0238768D01*
Y0252547D02*
Y0257173D01*
X0025484Y0244158D02*
X003011D01*
X004389D02*
X0048516D01*
X004389Y0240516D02*
Y0244158D01*
Y0247799D01*
X003011Y0247799D02*
X004389Y0247799D01*
X003011Y0247799D02*
X003011Y0244158D01*
Y0240516D02*
Y0244158D01*
Y0240516D02*
X004389D01*
X004389Y0299516D02*
X004389Y0303157D01*
Y0306799D01*
X003011Y0306799D02*
X004389Y0306799D01*
X003011Y0306799D02*
X003011Y0303157D01*
X003011Y0299516D02*
X003011Y0303157D01*
X003011Y0299516D02*
X004389Y0299516D01*
X0025484Y0263657D02*
X003011D01*
X004389D02*
X0048516D01*
X004389D02*
X004389Y0260016D01*
X004389Y0263657D02*
X004389Y0267299D01*
X003011D02*
X004389D01*
X003011D02*
X003011Y0263657D01*
X003011Y0260016D02*
X003011Y0263657D01*
X003011Y0260016D02*
X004389D01*
X0025484Y0322657D02*
X003011D01*
X004389Y0322657D02*
X0048516Y0322657D01*
X004389Y0319016D02*
X004389Y0322657D01*
Y0326299D01*
X003011D02*
X004389D01*
X003011Y0322657D02*
Y0326299D01*
X003011Y0319016D02*
X003011Y0322657D01*
X003011Y0319016D02*
X004389Y0319016D01*
X0025484Y0283658D02*
X003011D01*
X004389D02*
X0048516D01*
X004389Y0280016D02*
Y0283658D01*
X004389Y0287299D02*
X004389Y0283658D01*
X003011Y0287299D02*
X004389Y0287299D01*
X003011Y0287299D02*
X003011Y0283658D01*
X003011Y0280016D02*
X003011Y0283658D01*
X003011Y0280016D02*
X004389Y0280016D01*
X0025484Y0303157D02*
X003011D01*
X004389D02*
X0048516D01*
X024Y0252047D02*
Y0256673D01*
Y0233642D02*
Y0238268D01*
X0243642D01*
X0236358D02*
X024D01*
X0236358D02*
Y0252047D01*
X024D01*
X0243642D01*
Y0238268D02*
Y0252047D01*
D28*
X01405Y01645D02*
Y01745D01*
Y01645D02*
X01805Y01645D01*
Y01745D01*
X01405Y01745D02*
X01805Y01745D01*
X01405Y01645D02*
Y01745D01*
Y01645D02*
X01805Y01645D01*
Y01745D01*
X0248Y0D02*
X0257D01*
X0248D02*
Y003D01*
X0257Y0D02*
Y003D01*
X0248Y0D02*
X0257D01*
X0248Y003D02*
X0257D01*
X0248D02*
X0257D01*
X0247Y01295D02*
X0256D01*
Y01895D01*
X0247D02*
X0256D01*
X0247Y01295D02*
Y01895D01*
Y01295D02*
X0256D01*
Y01895D01*
X0247D02*
X0256D01*
X02105Y00895D02*
Y00995D01*
X01305Y00895D02*
X02105D01*
X01305D02*
Y00995D01*
X02105D01*
X01305D02*
X02105D01*
X0076744Y0038496D02*
Y01895D01*
X0067256D02*
X0076744D01*
X0067256Y0038496D02*
Y01895D01*
Y0038496D02*
X0076744D01*
X026575Y0179D02*
X027575D01*
X026575Y0149D02*
Y0179D01*
Y0149D02*
X027575D01*
Y0179D01*
X026575D02*
X027575D01*
X026575Y0149D02*
Y0179D01*
Y0149D02*
X027575D01*
X01405Y0354658D02*
Y0364657D01*
Y0354658D02*
X01805Y0354658D01*
Y0364657D01*
X01405Y0364657D02*
X01805Y0364657D01*
X01405Y0354658D02*
Y0364657D01*
Y0354658D02*
X01805Y0354658D01*
Y0364657D01*
X0248Y0190157D02*
X0257D01*
X0248D02*
Y0220158D01*
X0257Y0190157D02*
Y0220158D01*
X0248Y0190157D02*
X0257D01*
X0248Y0220158D02*
X0257D01*
X0248D02*
X0257D01*
X0247Y0319657D02*
X0256D01*
Y0379658D01*
X0247D02*
X0256D01*
X0247Y0319657D02*
Y0379658D01*
Y0319657D02*
X0256D01*
Y0379658D01*
X0247D02*
X0256D01*
X02105Y0279658D02*
Y0289657D01*
X01305Y0279658D02*
X02105D01*
X01305D02*
Y0289657D01*
X02105D01*
X01305D02*
X02105D01*
X0076744Y0228654D02*
Y0379658D01*
X0067256D02*
X0076744D01*
X0067256Y0228654D02*
Y0379658D01*
Y0228654D02*
X0076744D01*
X026575Y0369158D02*
X027575D01*
X026575Y0339158D02*
Y0369158D01*
Y0339158D02*
X027575D01*
Y0369158D01*
X026575D02*
X027575D01*
X026575Y0339158D02*
Y0369158D01*
Y0339158D02*
X027575D01*
D40*
X030339Y00685D02*
G03*
X030339Y00685I-000689J0D01*
G01*
X0302639Y0028091D02*
G03*
X0302639Y0028091I-000689J0D01*
G01*
X023189Y00555D02*
G03*
X023189Y00555I-000689J0D01*
G01*
X020339D02*
G03*
X020339Y00555I-000689J0D01*
G01*
X026089D02*
G03*
X026089Y00555I-000689J0D01*
G01*
X013289Y0075D02*
G03*
X013289Y0075I-000689J0D01*
G01*
Y0047D02*
G03*
X013289Y0047I-000689J0D01*
G01*
X030339Y0258658D02*
G03*
X030339Y0258658I-000689J0D01*
G01*
X0302639Y0218248D02*
G03*
X0302639Y0218248I-000689J0D01*
G01*
X023189Y0245657D02*
G03*
X023189Y0245657I-000689J0D01*
G01*
X020339D02*
G03*
X020339Y0245657I-000689J0D01*
G01*
X026089D02*
G03*
X026089Y0245657I-000689J0D01*
G01*
X013289Y0265158D02*
G03*
X013289Y0265158I-000689J0D01*
G01*
Y0237158D02*
G03*
X013289Y0237158I-000689J0D01*
G01*
D41*
X0299563Y0080976D02*
X03035D01*
Y0078024D02*
Y0080976D01*
X0289563D02*
X02935D01*
Y0078024D02*
Y0080976D01*
X0299563Y0078024D02*
Y0080976D01*
X0289563Y0078024D02*
Y0080976D01*
X0288Y0059894D02*
X0304453D01*
X0288Y0078D02*
X0304453D01*
X0288Y0059894D02*
Y0078D01*
X0289563Y0059976D02*
X02935D01*
X0299532Y0056941D02*
X0303468D01*
X0289563Y0057024D02*
Y0059976D01*
X0299532Y0056941D02*
Y0059894D01*
X0303468Y0056941D02*
Y0059894D01*
X02935Y0057024D02*
Y0059976D01*
X0299532Y0059894D02*
X0303468D01*
X0289563Y0057024D02*
X02935D01*
X0289563Y0078024D02*
X02935D01*
X0304453Y0059894D02*
Y0078D01*
X0299563Y0078024D02*
X03035D01*
X0288812Y0037614D02*
X0292749D01*
X0303702Y0019484D02*
Y0037591D01*
X0298812Y0037614D02*
X0302749D01*
X0298812Y0040567D02*
X0302749D01*
Y0037614D02*
Y0040567D01*
X0288812D02*
X0292749D01*
Y0037614D02*
Y0040567D01*
X0298812Y0037614D02*
Y0040567D01*
X0288812Y0037614D02*
Y0040567D01*
X0287249Y0019484D02*
X0303702D01*
X0287249Y0037591D02*
X0303702D01*
X0287249Y0019484D02*
Y0037591D01*
X0288812Y0019567D02*
X0292749D01*
X029878Y0016532D02*
X0302717D01*
X0288812Y0016614D02*
Y0019567D01*
X029878Y0016532D02*
Y0019484D01*
X0302717Y0016532D02*
Y0019484D01*
X0292749Y0016614D02*
Y0019567D01*
X029878Y0019484D02*
X0302717D01*
X0288812Y0016614D02*
X0292749D01*
X0228Y0064024D02*
X0231937D01*
X02335Y0046D02*
Y0064106D01*
X0217047Y0046D02*
X02335D01*
X0217047Y0064106D02*
X02335D01*
X0231937Y0043024D02*
Y0045976D01*
X0221937Y0043024D02*
Y0045976D01*
X0228Y0043024D02*
Y0045976D01*
Y0043024D02*
X0231937D01*
X0218D02*
Y0045976D01*
Y0043024D02*
X0221937D01*
X0218Y0045976D02*
X0221937D01*
X0217047Y0046D02*
Y0064106D01*
X0228Y0045976D02*
X0231937D01*
X0228Y0066976D02*
X0231937D01*
X0218032Y0064106D02*
X0221969D01*
X0228Y0064024D02*
Y0066976D01*
X0218032Y0064106D02*
Y0067059D01*
X0221969Y0064106D02*
Y0067059D01*
X0231937Y0064024D02*
Y0066976D01*
X0218032Y0067059D02*
X0221969D01*
X0189532Y0064106D02*
Y0067059D01*
X0193468Y0064106D02*
Y0067059D01*
X0203437Y0064024D02*
Y0066976D01*
X0189532Y0067059D02*
X0193468D01*
X01995Y0064024D02*
X0203437D01*
X0205Y0046D02*
Y0064106D01*
X0188547Y0046D02*
X0205D01*
X0188547Y0064106D02*
X0205D01*
X0203437Y0043024D02*
Y0045976D01*
X0193437Y0043024D02*
Y0045976D01*
X01995Y0043024D02*
Y0045976D01*
Y0043024D02*
X0203437D01*
X01895D02*
Y0045976D01*
Y0043024D02*
X0193437D01*
X01895Y0045976D02*
X0193437D01*
X0188547Y0046D02*
Y0064106D01*
X01995Y0045976D02*
X0203437D01*
X01995Y0066976D02*
X0203437D01*
X0189532Y0064106D02*
X0193468D01*
X01995Y0064024D02*
Y0066976D01*
X0257Y0045976D02*
X0260937D01*
X0246047Y0046D02*
Y0064106D01*
X0247Y0045976D02*
X0250937D01*
X0247Y0043024D02*
X0250937D01*
X0247D02*
Y0045976D01*
X0257Y0043024D02*
X0260937D01*
X0257D02*
Y0045976D01*
X0250937Y0043024D02*
Y0045976D01*
X0260937Y0043024D02*
Y0045976D01*
X0246047Y0064106D02*
X02625D01*
X0246047Y0046D02*
X02625D01*
Y0064106D01*
X0257Y0064024D02*
X0260937D01*
X0247031Y0067059D02*
X0250969D01*
X0260937Y0064024D02*
Y0066976D01*
X0250969Y0064106D02*
Y0067059D01*
X0247031Y0064106D02*
Y0067059D01*
X0257Y0064024D02*
Y0066976D01*
X0247031Y0064106D02*
X0250969D01*
X0257Y0066976D02*
X0260937D01*
X0116476Y0068063D02*
Y0072D01*
X01165Y0082953D02*
X0134606D01*
X0116476Y0078063D02*
Y0082D01*
X0113524Y0078063D02*
Y0082D01*
X0116476D01*
X0113524Y0068063D02*
Y0072D01*
X0116476D01*
X0113524Y0078063D02*
X0116476D01*
X0113524Y0068063D02*
X0116476D01*
X0134606Y00665D02*
Y0082953D01*
X01165Y00665D02*
Y0082953D01*
Y00665D02*
X0134606D01*
X0134524Y0068063D02*
Y0072D01*
X0137559Y0078031D02*
Y0081968D01*
X0134524Y0068063D02*
X0137476D01*
X0134606Y0078031D02*
X0137559D01*
X0134606Y0081968D02*
X0137559D01*
X0134524Y0072D02*
X0137476D01*
X0134606Y0078031D02*
Y0081968D01*
X0137476Y0068063D02*
Y0072D01*
X01165Y0054953D02*
X0134606D01*
X0116476Y0050063D02*
Y0054D01*
X0113524Y0050063D02*
Y0054D01*
X0116476D01*
X0113524Y0040063D02*
Y0044D01*
X0116476D01*
X0113524Y0050063D02*
X0116476Y0050063D01*
X0113524Y0040063D02*
X0116476D01*
X0134606Y00385D02*
Y0054953D01*
X01165Y00385D02*
Y0054953D01*
Y00385D02*
X0134606Y00385D01*
X0134524Y0040063D02*
Y0044D01*
X0137559Y0050032D02*
Y0053969D01*
X0134524Y0040063D02*
X0137476Y0040063D01*
X0134606Y0050032D02*
X0137559Y0050032D01*
X0134606Y0053969D02*
X0137559Y0053969D01*
X0134524Y0044D02*
X0137476Y0044D01*
X0134606Y0050032D02*
Y0053969D01*
X0137476Y0040063D02*
Y0044D01*
X0116476Y0040063D02*
Y0044D01*
X0299563Y0271134D02*
X03035D01*
Y0268181D02*
Y0271134D01*
X0289563D02*
X02935D01*
Y0268181D02*
Y0271134D01*
X0299563Y0268181D02*
Y0271134D01*
X0289563Y0268181D02*
Y0271134D01*
X0288Y0250051D02*
X0304453D01*
X0288Y0268158D02*
X0304453D01*
X0288Y0250051D02*
Y0268158D01*
X0289563Y0250134D02*
X02935D01*
X0299532Y0247098D02*
X0303468D01*
X0289563Y0247181D02*
Y0250134D01*
X0299532Y0247098D02*
Y0250051D01*
X0303468Y0247098D02*
Y0250051D01*
X02935Y0247181D02*
Y0250134D01*
X0299532Y0250051D02*
X0303468D01*
X0289563Y0247181D02*
X02935D01*
X0289563Y0268181D02*
X02935D01*
X0304453Y0250051D02*
Y0268158D01*
X0299563Y0268181D02*
X03035D01*
X0288812Y0227772D02*
X0292749D01*
X0303702Y0209642D02*
Y0227748D01*
X0298812Y0227772D02*
X0302749D01*
X0298812Y0230724D02*
X0302749D01*
Y0227772D02*
Y0230724D01*
X0288812D02*
X0292749D01*
Y0227772D02*
Y0230724D01*
X0298812Y0227772D02*
Y0230724D01*
X0288812Y0227772D02*
Y0230724D01*
X0287249Y0209642D02*
X0303702D01*
X0287249Y0227748D02*
X0303702D01*
X0287249Y0209642D02*
Y0227748D01*
X0288812Y0209724D02*
X0292749D01*
X029878Y0206689D02*
X0302717D01*
X0288812Y0206772D02*
Y0209724D01*
X029878Y0206689D02*
Y0209642D01*
X0302717Y0206689D02*
Y0209642D01*
X0292749Y0206772D02*
Y0209724D01*
X029878Y0209642D02*
X0302717D01*
X0288812Y0206772D02*
X0292749D01*
X0228Y0254181D02*
X0231937D01*
X02335Y0236157D02*
Y0254264D01*
X0217047Y0236157D02*
X02335D01*
X0217047Y0254264D02*
X02335D01*
X0231937Y0233181D02*
Y0236134D01*
X0221937Y0233181D02*
Y0236134D01*
X0228Y0233181D02*
Y0236134D01*
Y0233181D02*
X0231937D01*
X0218D02*
Y0236134D01*
Y0233181D02*
X0221937D01*
X0218Y0236134D02*
X0221937D01*
X0217047Y0236157D02*
Y0254264D01*
X0228Y0236134D02*
X0231937D01*
X0228Y0257134D02*
X0231937D01*
X0218032Y0254264D02*
X0221969D01*
X0228Y0254181D02*
Y0257134D01*
X0218032Y0254264D02*
Y0257217D01*
X0221969Y0254264D02*
Y0257217D01*
X0231937Y0254181D02*
Y0257134D01*
X0218032Y0257217D02*
X0221969D01*
X0189532Y0254264D02*
Y0257217D01*
X0193468Y0254264D02*
Y0257217D01*
X0203437Y0254181D02*
Y0257134D01*
X0189532Y0257217D02*
X0193468D01*
X01995Y0254181D02*
X0203437D01*
X0205Y0236157D02*
Y0254264D01*
X0188547Y0236157D02*
X0205D01*
X0188547Y0254264D02*
X0205D01*
X0203437Y0233181D02*
Y0236134D01*
X0193437Y0233181D02*
Y0236134D01*
X01995Y0233181D02*
Y0236134D01*
Y0233181D02*
X0203437D01*
X01895D02*
Y0236134D01*
Y0233181D02*
X0193437D01*
X01895Y0236134D02*
X0193437D01*
X0188547Y0236157D02*
Y0254264D01*
X01995Y0236134D02*
X0203437D01*
X01995Y0257134D02*
X0203437D01*
X0189532Y0254264D02*
X0193468D01*
X01995Y0254181D02*
Y0257134D01*
X0257Y0236134D02*
X0260937D01*
X0246047Y0236157D02*
Y0254264D01*
X0247Y0236134D02*
X0250937D01*
X0247Y0233181D02*
X0250937D01*
X0247D02*
Y0236134D01*
X0257Y0233181D02*
X0260937D01*
X0257D02*
Y0236134D01*
X0250937Y0233181D02*
Y0236134D01*
X0260937Y0233181D02*
Y0236134D01*
X0246047Y0254264D02*
X02625D01*
X0246047Y0236157D02*
X02625D01*
Y0254264D01*
X0257Y0254181D02*
X0260937D01*
X0247031Y0257217D02*
X0250969D01*
X0260937Y0254181D02*
Y0257134D01*
X0250969Y0254264D02*
Y0257217D01*
X0247031Y0254264D02*
Y0257217D01*
X0257Y0254181D02*
Y0257134D01*
X0247031Y0254264D02*
X0250969D01*
X0257Y0257134D02*
X0260937D01*
X0116476Y0258221D02*
Y0262158D01*
X01165Y027311D02*
X0134606D01*
X0116476Y026822D02*
Y0272158D01*
X0113524Y026822D02*
Y0272158D01*
X0116476D01*
X0113524Y0258221D02*
Y0262158D01*
X0116476D01*
X0113524Y026822D02*
X0116476D01*
X0113524Y0258221D02*
X0116476D01*
X0134606Y0256658D02*
Y027311D01*
X01165Y0256658D02*
Y027311D01*
Y0256658D02*
X0134606D01*
X0134524Y0258221D02*
Y0262158D01*
X0137559Y0268189D02*
Y0272126D01*
X0134524Y0258221D02*
X0137476D01*
X0134606Y0268189D02*
X0137559D01*
X0134606Y0272126D02*
X0137559D01*
X0134524Y0262158D02*
X0137476D01*
X0134606Y0268189D02*
Y0272126D01*
X0137476Y0258221D02*
Y0262158D01*
X01165Y024511D02*
X0134606D01*
X0116476Y024022D02*
Y0244158D01*
X0113524Y024022D02*
Y0244158D01*
X0116476D01*
X0113524Y0230221D02*
Y0234157D01*
X0116476D01*
X0113524Y024022D02*
X0116476Y024022D01*
X0113524Y0230221D02*
X0116476D01*
X0134606Y0228658D02*
Y024511D01*
X01165Y0228658D02*
Y024511D01*
Y0228658D02*
X0134606Y0228658D01*
X0134524Y0230221D02*
Y0234157D01*
X0137559Y0240189D02*
Y0244126D01*
X0134524Y0230221D02*
X0137476Y0230221D01*
X0134606Y0240189D02*
X0137559Y0240189D01*
X0134606Y0244126D02*
X0137559Y0244126D01*
X0134524Y0234157D02*
X0137476Y0234157D01*
X0134606Y0240189D02*
Y0244126D01*
X0137476Y0230221D02*
Y0234157D01*
X0116476Y0230221D02*
Y0234157D01*
M02*
