G04*
G04 #@! TF.GenerationSoftware,Altium Limited,Altium Designer,24.4.1 (13)*
G04*
G04 Layer_Color=8388736*
%FSTAX25Y25*%
%MOIN*%
G70*
G04*
G04 #@! TF.SameCoordinates,C872E002-563E-4E90-9F37-C142BC3F6998*
G04*
G04*
G04 #@! TF.FilePolarity,Negative*
G04*
G01*
G75*
%ADD20C,0.05937*%
%ADD30C,0.05753*%
%ADD31C,0.06194*%
%ADD32R,0.06194X0.06194*%
%ADD33R,0.05378X0.05378*%
%ADD34C,0.05378*%
%ADD35C,0.06800*%
%ADD36R,0.06194X0.06194*%
%ADD37C,0.05556*%
%ADD38R,0.05556X0.05556*%
D20*
X02915Y0078909D02*
D03*
X03015D02*
D03*
X02915Y0058909D02*
D03*
X03015D02*
D03*
X0290749Y00385D02*
D03*
X0300749D02*
D03*
X0290749Y00185D02*
D03*
X0300749D02*
D03*
X023Y0045091D02*
D03*
X022D02*
D03*
X023Y0065091D02*
D03*
X022D02*
D03*
X02015Y0045091D02*
D03*
X01915D02*
D03*
X02015Y0065091D02*
D03*
X01915D02*
D03*
X0249D02*
D03*
X0259D02*
D03*
X0249Y0045091D02*
D03*
X0259D02*
D03*
X0135591Y008D02*
D03*
Y007D02*
D03*
X0115591Y008D02*
D03*
Y007D02*
D03*
X0135591Y0052D02*
D03*
Y0042D02*
D03*
X0115591Y0052D02*
D03*
X0115591Y0042D02*
D03*
X02915Y0269067D02*
D03*
X03015D02*
D03*
X02915Y0249067D02*
D03*
X03015D02*
D03*
X0290749Y0228658D02*
D03*
X0300749D02*
D03*
X0290749Y0208658D02*
D03*
X0300749D02*
D03*
X023Y0235248D02*
D03*
X022D02*
D03*
X023Y0255248D02*
D03*
X022D02*
D03*
X02015Y0235248D02*
D03*
X01915D02*
D03*
X02015Y0255248D02*
D03*
X01915D02*
D03*
X0249D02*
D03*
X0259D02*
D03*
X0249Y0235248D02*
D03*
X0259D02*
D03*
X0135591Y0270158D02*
D03*
Y0260157D02*
D03*
X0115591Y0270158D02*
D03*
Y0260157D02*
D03*
X0135591Y0242158D02*
D03*
Y0232157D02*
D03*
X0115591Y0242158D02*
D03*
X0115591Y0232157D02*
D03*
D30*
X0103Y003922D02*
D03*
Y006678D02*
D03*
X01035Y010628D02*
D03*
Y007872D02*
D03*
X02105Y0083059D02*
D03*
Y00555D02*
D03*
X01815Y0069279D02*
D03*
Y0041721D02*
D03*
X0050779Y0054D02*
D03*
X0023221Y0054D02*
D03*
X0050779Y00735D02*
D03*
X0023221D02*
D03*
X0050779Y0113D02*
D03*
X0023221Y0113D02*
D03*
X0050779Y00935D02*
D03*
X0023221D02*
D03*
X0050779Y01325D02*
D03*
X0023221Y01325D02*
D03*
X024Y0041221D02*
D03*
Y0068779D02*
D03*
X0103Y0229378D02*
D03*
Y0256937D02*
D03*
X01035Y0296437D02*
D03*
Y0268878D02*
D03*
X02105Y0273217D02*
D03*
Y0245657D02*
D03*
X01815Y0259437D02*
D03*
Y0231878D02*
D03*
X0050779Y0244158D02*
D03*
X0023221Y0244158D02*
D03*
X0050779Y0263657D02*
D03*
X0023221D02*
D03*
X0050779Y0303157D02*
D03*
X0023221Y0303157D02*
D03*
X0050779Y0283658D02*
D03*
X0023221D02*
D03*
X0050779Y0322657D02*
D03*
X0023221Y0322657D02*
D03*
X024Y0231378D02*
D03*
Y0258937D02*
D03*
D31*
X01755Y01695D02*
D03*
X01655D02*
D03*
X01555D02*
D03*
X0252Y01845D02*
D03*
Y01745D02*
D03*
Y01645D02*
D03*
Y01545D02*
D03*
Y01445D02*
D03*
X01955Y00945D02*
D03*
X01855D02*
D03*
X01755D02*
D03*
X01655D02*
D03*
X01555D02*
D03*
X01455D02*
D03*
X01355D02*
D03*
X0072Y00545D02*
D03*
Y00645D02*
D03*
Y00745D02*
D03*
X0072Y00845D02*
D03*
X0072Y00945D02*
D03*
Y01045D02*
D03*
Y01145D02*
D03*
Y01245D02*
D03*
Y01345D02*
D03*
Y01445D02*
D03*
Y01545D02*
D03*
Y01645D02*
D03*
X0072Y01745D02*
D03*
X0072Y01845D02*
D03*
X01755Y0359658D02*
D03*
X01655D02*
D03*
X01555D02*
D03*
X0252Y0374658D02*
D03*
Y0364657D02*
D03*
Y0354658D02*
D03*
Y0344657D02*
D03*
Y0334658D02*
D03*
X01955Y0284658D02*
D03*
X01855D02*
D03*
X01755D02*
D03*
X01655D02*
D03*
X01555D02*
D03*
X01455D02*
D03*
X01355D02*
D03*
X0072Y0244657D02*
D03*
Y0254658D02*
D03*
Y0264657D02*
D03*
X0072Y0274658D02*
D03*
X0072Y0284658D02*
D03*
Y0294657D02*
D03*
Y0304658D02*
D03*
Y0314657D02*
D03*
Y0324658D02*
D03*
Y0334658D02*
D03*
Y0344657D02*
D03*
Y0354658D02*
D03*
X0072Y0364657D02*
D03*
X0072Y0374658D02*
D03*
D32*
X01455Y01695D02*
D03*
X02055Y00945D02*
D03*
X01455Y0359658D02*
D03*
X02055Y0284658D02*
D03*
D33*
X0252Y0005D02*
D03*
X027075Y0154D02*
D03*
X0252Y0195158D02*
D03*
X027075Y0344158D02*
D03*
D34*
X0252Y0015D02*
D03*
Y0025D02*
D03*
X027075Y0164D02*
D03*
Y0174D02*
D03*
X0252Y0205157D02*
D03*
Y0215158D02*
D03*
X027075Y0354157D02*
D03*
Y0364158D02*
D03*
D35*
X001Y01815D02*
D03*
Y01715D02*
D03*
X001Y01615D02*
D03*
X03Y01815D02*
D03*
X03Y01715D02*
D03*
Y01615D02*
D03*
Y01215D02*
D03*
Y01115D02*
D03*
Y01015D02*
D03*
Y01415D02*
D03*
Y01315D02*
D03*
X001Y01515D02*
D03*
X03Y01515D02*
D03*
X0062Y01345D02*
D03*
Y01445D02*
D03*
Y01045D02*
D03*
Y01145D02*
D03*
Y01245D02*
D03*
Y01545D02*
D03*
Y01645D02*
D03*
Y01745D02*
D03*
X0062Y01845D02*
D03*
X0062Y00845D02*
D03*
X0062Y00945D02*
D03*
X001Y0371657D02*
D03*
Y0361658D02*
D03*
X001Y0351658D02*
D03*
X03Y0371657D02*
D03*
X03Y0361658D02*
D03*
Y0351658D02*
D03*
Y0311658D02*
D03*
Y0301658D02*
D03*
Y0291657D02*
D03*
Y0331658D02*
D03*
Y0321657D02*
D03*
X001Y0341657D02*
D03*
X03Y0341657D02*
D03*
X0062Y0324658D02*
D03*
Y0334658D02*
D03*
Y0294657D02*
D03*
Y0304658D02*
D03*
Y0314657D02*
D03*
Y0344657D02*
D03*
Y0354658D02*
D03*
Y0364657D02*
D03*
X0062Y0374658D02*
D03*
X0062Y0274658D02*
D03*
X0062Y0284658D02*
D03*
D36*
X0252Y01345D02*
D03*
X0072Y00445D02*
D03*
X0252Y0324658D02*
D03*
X0072Y0234658D02*
D03*
D37*
X0004343Y0054D02*
D03*
X0004324Y00735D02*
D03*
X0004306Y00935D02*
D03*
X0004403Y0113D02*
D03*
X00045Y01325D02*
D03*
X0004343Y0244158D02*
D03*
X0004324Y0263657D02*
D03*
X0004306Y0283658D02*
D03*
X0004403Y0303157D02*
D03*
X00045Y0322657D02*
D03*
D38*
X0014343Y0054D02*
D03*
X0014324Y00735D02*
D03*
X0014306Y00935D02*
D03*
X0014403Y0113D02*
D03*
X00145Y01325D02*
D03*
X0014343Y0244158D02*
D03*
X0014324Y0263657D02*
D03*
X0014306Y0283658D02*
D03*
X0014403Y0303157D02*
D03*
X00145Y0322657D02*
D03*
M02*
