G04*
G04 #@! TF.GenerationSoftware,Altium Limited,Altium Designer,24.4.1 (13)*
G04*
G04 Layer_Color=32768*
%FSTAX25Y25*%
%MOIN*%
G70*
G04*
G04 #@! TF.SameCoordinates,C872E002-563E-4E90-9F37-C142BC3F6998*
G04*
G04*
G04 #@! TF.FilePolarity,Positive*
G04*
G01*
G75*
%ADD27C,0.00500*%
%ADD29C,0.00600*%
%ADD42C,0.00197*%
G36*
X0139528Y0256157D02*
X0109953D01*
Y0273969D01*
X0135575D01*
Y0273984D01*
X0139528D01*
Y0256157D01*
D02*
G37*
G36*
X0305311Y0249083D02*
X0305327D01*
Y024513D01*
X02875D01*
Y0249083D01*
Y0274705D01*
X0305311D01*
Y0249083D01*
D02*
G37*
G36*
X0263Y0255232D02*
Y022961D01*
X0245189D01*
Y0255232D01*
X0245173D01*
Y0259185D01*
X0263D01*
Y0255232D01*
D02*
G37*
G36*
X0234D02*
Y022961D01*
X0216189D01*
Y0255232D01*
X0216173D01*
Y0259185D01*
X0234D01*
Y0255232D01*
D02*
G37*
G36*
X02055D02*
Y022961D01*
X0187689D01*
Y0255232D01*
X0187673D01*
Y0259185D01*
X02055D01*
Y0255232D01*
D02*
G37*
G36*
X0139527Y0245984D02*
Y0228157D01*
X0135575Y0228157D01*
X0109953Y0228157D01*
Y0245969D01*
X0135575D01*
Y0245984D01*
X0139527Y0245984D01*
D02*
G37*
G36*
X030456Y0208673D02*
X0304576D01*
Y020472D01*
X0286749D01*
Y0208673D01*
Y0234295D01*
X030456D01*
Y0208673D01*
D02*
G37*
G36*
X0139528Y0066D02*
X0109953D01*
Y0083811D01*
X0135575D01*
Y0083827D01*
X0139528D01*
Y0066D01*
D02*
G37*
G36*
X0305311Y0058925D02*
X0305327D01*
Y0054972D01*
X02875D01*
Y0058925D01*
Y0084547D01*
X0305311D01*
Y0058925D01*
D02*
G37*
G36*
X0263Y0065075D02*
Y0039453D01*
X0245189D01*
Y0065075D01*
X0245173D01*
Y0069028D01*
X0263D01*
Y0065075D01*
D02*
G37*
G36*
X0234D02*
Y0039453D01*
X0216189D01*
Y0065075D01*
X0216173D01*
Y0069028D01*
X0234D01*
Y0065075D01*
D02*
G37*
G36*
X02055D02*
Y0039453D01*
X0187689D01*
Y0065075D01*
X0187673D01*
Y0069028D01*
X02055D01*
Y0065075D01*
D02*
G37*
G36*
X0139527Y0055827D02*
Y0038D01*
X0135575Y0038D01*
X0109953Y0038D01*
Y0055811D01*
X0135575D01*
Y0055827D01*
X0139527Y0055827D01*
D02*
G37*
G36*
X030456Y0018516D02*
X0304576D01*
Y0014563D01*
X0286749D01*
Y0018516D01*
Y0044138D01*
X030456D01*
Y0018516D01*
D02*
G37*
D27*
X0018004Y0054D02*
G03*
X0018004Y0054I-0008661J0D01*
G01*
X0017986Y00735D02*
G03*
X0017986Y00735I-0008661J0D01*
G01*
X0017967Y00935D02*
G03*
X0017967Y00935I-0008661J0D01*
G01*
X0018064Y0113D02*
G03*
X0018064Y0113I-0008661J0D01*
G01*
X0018161Y01325D02*
G03*
X0018161Y01325I-0008661J0D01*
G01*
X0018004Y0244158D02*
G03*
X0018004Y0244158I-0008661J0D01*
G01*
X0017986Y0263657D02*
G03*
X0017986Y0263657I-0008661J0D01*
G01*
X0017967Y0283658D02*
G03*
X0017967Y0283658I-0008661J0D01*
G01*
X0018064Y0303157D02*
G03*
X0018064Y0303157I-0008661J0D01*
G01*
X0018161Y0322657D02*
G03*
X0018161Y0322657I-0008661J0D01*
G01*
D29*
X0305453Y0058894D02*
Y0084516D01*
X02875Y0054941D02*
X0305469D01*
Y0058894D01*
X0287484Y0084516D02*
X0305469D01*
X0305453Y0058894D02*
X0305469D01*
X0287484Y0084516D02*
X02875Y00845D01*
X0305453Y0084516D02*
X0305469D01*
X02875Y0054941D02*
Y00845D01*
X0304702Y0018484D02*
Y0044106D01*
X0286749Y0014532D02*
X0304717D01*
Y0018484D01*
X0286733Y0044106D02*
X0304717D01*
X0304702Y0018484D02*
X0304717D01*
X0286733Y0044106D02*
X0286749Y0044091D01*
X0304702Y0044106D02*
X0304717D01*
X0286749Y0014532D02*
Y0044091D01*
X0234Y00395D02*
Y0069059D01*
X0216032Y0039484D02*
X0216047D01*
X0234Y00395D02*
X0234016Y0039484D01*
X0216032Y0065106D02*
X0216047D01*
X0216032Y0039484D02*
X0234016D01*
X0216032Y0065106D02*
Y0069059D01*
X0234D01*
X0216047Y0039484D02*
Y0065106D01*
X02055Y00395D02*
Y0069059D01*
X0187531Y0039484D02*
X0187547D01*
X02055Y00395D02*
X0205516Y0039484D01*
X0187531Y0065106D02*
X0187547D01*
X0187531Y0039484D02*
X0205516D01*
X0187531Y0065106D02*
Y0069059D01*
X02055D01*
X0187547Y0039484D02*
Y0065106D01*
X0245047Y0039484D02*
Y0065106D01*
X0245031Y0069059D02*
X0263D01*
X0245031Y0065106D02*
Y0069059D01*
Y0039484D02*
X0263016D01*
X0245031Y0065106D02*
X0245047D01*
X0263Y00395D02*
X0263016Y0039484D01*
X0245031D02*
X0245047D01*
X0263Y00395D02*
Y0069059D01*
X0109984Y0065984D02*
X011Y0066D01*
X0109984Y0083953D02*
Y0083969D01*
X011Y0066D02*
X0139559D01*
X0109984Y0083953D02*
X0135606D01*
X0139559Y0066D02*
Y0083969D01*
X0135606D02*
X0139559D01*
X0109984Y0065984D02*
Y0083969D01*
X0135606Y0083953D02*
Y0083969D01*
X0109984Y0055953D02*
X0135606Y0055953D01*
X0139559Y0038D02*
Y0055968D01*
X0135606D02*
X0139559D01*
X0109984Y0037984D02*
Y0055968D01*
X0135606Y0055953D02*
Y0055968D01*
X0109984Y0037984D02*
X011Y0038D01*
X0109984Y0055953D02*
Y0055968D01*
X011Y0038D02*
X0139559Y0038D01*
X0305453Y0249051D02*
Y0274673D01*
X02875Y0245098D02*
X0305469D01*
Y0249051D01*
X0287484Y0274673D02*
X0305469D01*
X0305453Y0249051D02*
X0305469D01*
X0287484Y0274673D02*
X02875Y0274658D01*
X0305453Y0274673D02*
X0305469D01*
X02875Y0245098D02*
Y0274658D01*
X0304702Y0208642D02*
Y0234264D01*
X0286749Y0204689D02*
X0304717D01*
Y0208642D01*
X0286733Y0234264D02*
X0304717D01*
X0304702Y0208642D02*
X0304717D01*
X0286733Y0234264D02*
X0286749Y0234248D01*
X0304702Y0234264D02*
X0304717D01*
X0286749Y0204689D02*
Y0234248D01*
X0234Y0229658D02*
Y0259216D01*
X0216032Y0229642D02*
X0216047D01*
X0234Y0229658D02*
X0234016Y0229642D01*
X0216032Y0255264D02*
X0216047D01*
X0216032Y0229642D02*
X0234016D01*
X0216032Y0255264D02*
Y0259216D01*
X0234D01*
X0216047Y0229642D02*
Y0255264D01*
X02055Y0229658D02*
Y0259216D01*
X0187531Y0229642D02*
X0187547D01*
X02055Y0229658D02*
X0205516Y0229642D01*
X0187531Y0255264D02*
X0187547D01*
X0187531Y0229642D02*
X0205516D01*
X0187531Y0255264D02*
Y0259216D01*
X02055D01*
X0187547Y0229642D02*
Y0255264D01*
X0245047Y0229642D02*
Y0255264D01*
X0245031Y0259216D02*
X0263D01*
X0245031Y0255264D02*
Y0259216D01*
Y0229642D02*
X0263016D01*
X0245031Y0255264D02*
X0245047D01*
X0263Y0229658D02*
X0263016Y0229642D01*
X0245031D02*
X0245047D01*
X0263Y0229658D02*
Y0259216D01*
X0109984Y0256142D02*
X011Y0256157D01*
X0109984Y027411D02*
Y0274126D01*
X011Y0256157D02*
X0139559D01*
X0109984Y027411D02*
X0135606D01*
X0139559Y0256157D02*
Y0274126D01*
X0135606D02*
X0139559D01*
X0109984Y0256142D02*
Y0274126D01*
X0135606Y027411D02*
Y0274126D01*
X0109984Y024611D02*
X0135606Y024611D01*
X0139559Y0228157D02*
Y0246126D01*
X0135606D02*
X0139559D01*
X0109984Y0228142D02*
Y0246126D01*
X0135606Y024611D02*
Y0246126D01*
X0109984Y0228142D02*
X011Y0228157D01*
X0109984Y024611D02*
Y0246126D01*
X011Y0228157D02*
X0139559Y0228157D01*
D42*
X0107626Y0045126D02*
Y0060874D01*
X0106465Y0045126D02*
X0107626D01*
X0106465Y0035756D02*
Y0045126D01*
X0099535Y0035756D02*
X0106465D01*
X0099535D02*
Y0045126D01*
X0098374D02*
X0099535D01*
X0098374D02*
Y0060874D01*
X0099535D01*
Y0070244D01*
X0106465D01*
Y0060874D02*
Y0070244D01*
Y0060874D02*
X0107626D01*
X0098874Y0084626D02*
Y0100374D01*
X0100035D01*
Y0109744D01*
X0106965D01*
Y0100374D02*
Y0109744D01*
Y0100374D02*
X0108126D01*
Y0084626D02*
Y0100374D01*
X0106965Y0084626D02*
X0108126D01*
X0106965Y0075256D02*
Y0084626D01*
X0100035Y0075256D02*
X0106965D01*
X0100035D02*
Y0084626D01*
X0098874D02*
X0100035D01*
X0139516Y0175484D02*
X0181484Y0175484D01*
X0139516Y0163516D02*
Y0175484D01*
Y0163516D02*
X0181484Y0163516D01*
Y0175484D01*
X0215126Y0061405D02*
Y0077153D01*
X0213965D02*
X0215126D01*
X0213965D02*
Y0086524D01*
X0207035D02*
X0213965D01*
X0207035Y0077153D02*
Y0086524D01*
X0205874Y0077153D02*
X0207035D01*
X0205874Y0061405D02*
Y0077153D01*
Y0061405D02*
X0207035D01*
Y0052035D02*
Y0061405D01*
Y0052035D02*
X0213965D01*
Y0061405D01*
X0215126D01*
X0186126Y0047626D02*
Y0063374D01*
X0184965D02*
X0186126D01*
X0184965D02*
Y0072744D01*
X0178035D02*
X0184965D01*
X0178035Y0063374D02*
Y0072744D01*
X0176874Y0063374D02*
X0178035D01*
X0176874Y0047626D02*
Y0063374D01*
Y0047626D02*
X0178035D01*
Y0038256D02*
Y0047626D01*
Y0038256D02*
X0184965D01*
Y0047626D01*
X0186126D01*
X0044874Y0049374D02*
Y0050535D01*
X0054244D01*
Y0057465D01*
X0044874D02*
X0054244D01*
X0044874D02*
Y0058626D01*
X0029126Y0058626D02*
X0044874Y0058626D01*
X0029126Y0057465D02*
Y0058626D01*
X0019756Y0057465D02*
X0029126D01*
X0019756D02*
X0019756Y0050535D01*
X0029126D01*
Y0049374D02*
Y0050535D01*
Y0049374D02*
X0044874D01*
X0248Y-0000984D02*
X0257984D01*
X0248D02*
Y0030984D01*
X0257984D01*
Y-0000984D02*
Y0030984D01*
X0246016Y0128516D02*
Y0190484D01*
Y0128516D02*
X0256D01*
Y0190484D01*
X0246016D02*
X0256D01*
X0211484Y0088516D02*
Y0100484D01*
X0129516Y0088516D02*
X0211484D01*
X0129516D02*
Y0100484D01*
X0211484D01*
X0019756Y0109535D02*
X0029126D01*
Y0108374D02*
Y0109535D01*
Y0108374D02*
X0044874Y0108374D01*
X0044874Y0068874D02*
X0044874Y0070035D01*
X0054244D01*
Y0076965D01*
X0044874D02*
X0054244D01*
X0044874Y0078126D02*
X0044874Y0076965D01*
X0029126Y0078126D02*
X0044874Y0078126D01*
X0029126Y0076965D02*
Y0078126D01*
X0019756Y0076965D02*
X0029126D01*
X0019756Y0070035D02*
Y0076965D01*
Y0070035D02*
X0029126D01*
Y0068874D02*
Y0070035D01*
Y0068874D02*
X0044874D01*
X0077728Y0037512D02*
Y01895D01*
X0066272D02*
X0077728D01*
X0066272Y0037512D02*
Y01895D01*
Y0037512D02*
X0077728D01*
X0276734Y0148016D02*
Y0179984D01*
X0264766D02*
X0276734D01*
X0264766Y0148016D02*
Y0179984D01*
Y0148016D02*
X0276734D01*
X0044874Y0127874D02*
Y0129035D01*
X0054244D01*
X0054244Y0135965D02*
X0054244Y0129035D01*
X0044874Y0135965D02*
X0054244D01*
X0044874D02*
Y0137126D01*
X0029126D02*
X0044874D01*
X0029126Y0135965D02*
Y0137126D01*
X0019756Y0135965D02*
X0029126D01*
X0019756Y0129035D02*
X0019756Y0135965D01*
X0019756Y0129035D02*
X0029126D01*
X0029126Y0127874D01*
X0044874D01*
X0044874Y0088874D02*
Y0090035D01*
X0054244D01*
X0054244Y0096965D01*
X0044874D02*
X0054244D01*
X0044874D02*
Y0098126D01*
X0029126D02*
X0044874D01*
X0029126D02*
X0029126Y0096965D01*
X0019756D02*
X0029126D01*
X0019756Y0090035D02*
Y0096965D01*
Y0090035D02*
X0029126D01*
X0029126Y0088874D02*
X0029126Y0090035D01*
X0029126Y0088874D02*
X0044874D01*
Y0109535D02*
X0044874Y0108374D01*
X0044874Y0109535D02*
X0054244D01*
Y0116465D01*
X0044874D02*
X0054244D01*
X0044874D02*
Y0117626D01*
X0029126Y0117626D02*
X0044874Y0117626D01*
X0029126Y0117626D02*
X0029126Y0116465D01*
X0019756D02*
X0029126D01*
X0019756Y0109535D02*
Y0116465D01*
X0235374Y0047126D02*
Y0062874D01*
X0236535D01*
Y0072244D01*
X0243465D01*
Y0062874D02*
Y0072244D01*
Y0062874D02*
X0244626D01*
Y0047126D02*
Y0062874D01*
X0243465Y0047126D02*
X0244626D01*
X0243465Y0037756D02*
Y0047126D01*
X0236535Y0037756D02*
X0243465D01*
X0236535D02*
Y0047126D01*
X0235374D02*
X0236535D01*
X0107626Y0235283D02*
Y0251031D01*
X0106465Y0235283D02*
X0107626D01*
X0106465Y0225913D02*
Y0235283D01*
X0099535Y0225913D02*
X0106465D01*
X0099535D02*
Y0235283D01*
X0098374D02*
X0099535D01*
X0098374D02*
Y0251031D01*
X0099535D01*
Y0260402D01*
X0106465D01*
Y0251031D02*
Y0260402D01*
Y0251031D02*
X0107626D01*
X0098874Y0274783D02*
Y0290531D01*
X0100035D01*
Y0299902D01*
X0106965D01*
Y0290531D02*
Y0299902D01*
Y0290531D02*
X0108126D01*
Y0274783D02*
Y0290531D01*
X0106965Y0274783D02*
X0108126D01*
X0106965Y0265413D02*
Y0274783D01*
X0100035Y0265413D02*
X0106965D01*
X0100035D02*
Y0274783D01*
X0098874D02*
X0100035D01*
X0139516Y0365642D02*
X0181484Y0365642D01*
X0139516Y0353673D02*
Y0365642D01*
Y0353673D02*
X0181484Y0353673D01*
Y0365642D01*
X0215126Y0251563D02*
Y0267311D01*
X0213965D02*
X0215126D01*
X0213965D02*
Y0276681D01*
X0207035D02*
X0213965D01*
X0207035Y0267311D02*
Y0276681D01*
X0205874Y0267311D02*
X0207035D01*
X0205874Y0251563D02*
Y0267311D01*
Y0251563D02*
X0207035D01*
Y0242193D02*
Y0251563D01*
Y0242193D02*
X0213965D01*
Y0251563D01*
X0215126D01*
X0186126Y0237784D02*
Y0253532D01*
X0184965D02*
X0186126D01*
X0184965D02*
Y0262902D01*
X0178035D02*
X0184965D01*
X0178035Y0253532D02*
Y0262902D01*
X0176874Y0253532D02*
X0178035D01*
X0176874Y0237784D02*
Y0253532D01*
Y0237784D02*
X0178035D01*
Y0228413D02*
Y0237784D01*
Y0228413D02*
X0184965D01*
Y0237784D01*
X0186126D01*
X0044874Y0239531D02*
Y0240693D01*
X0054244D01*
Y0247622D01*
X0044874D02*
X0054244D01*
X0044874D02*
Y0248783D01*
X0029126Y0248783D02*
X0044874Y0248783D01*
X0029126Y0247622D02*
Y0248783D01*
X0019756Y0247622D02*
X0029126D01*
X0019756D02*
X0019756Y0240693D01*
X0029126D01*
Y0239531D02*
Y0240693D01*
Y0239531D02*
X0044874D01*
X0248Y0189173D02*
X0257984D01*
X0248D02*
Y0221142D01*
X0257984D01*
Y0189173D02*
Y0221142D01*
X0246016Y0318673D02*
Y0380642D01*
Y0318673D02*
X0256D01*
Y0380642D01*
X0246016D02*
X0256D01*
X0211484Y0278673D02*
Y0290642D01*
X0129516Y0278673D02*
X0211484D01*
X0129516D02*
Y0290642D01*
X0211484D01*
X0019756Y0299693D02*
X0029126D01*
Y0298532D02*
Y0299693D01*
Y0298532D02*
X0044874Y0298532D01*
X0044874Y0259032D02*
X0044874Y0260193D01*
X0054244D01*
Y0267122D01*
X0044874D02*
X0054244D01*
X0044874Y0268284D02*
X0044874Y0267122D01*
X0029126Y0268284D02*
X0044874Y0268284D01*
X0029126Y0267122D02*
Y0268284D01*
X0019756Y0267122D02*
X0029126D01*
X0019756Y0260193D02*
Y0267122D01*
Y0260193D02*
X0029126D01*
Y0259032D02*
Y0260193D01*
Y0259032D02*
X0044874D01*
X0077728Y0227669D02*
Y0379658D01*
X0066272D02*
X0077728D01*
X0066272Y0227669D02*
Y0379658D01*
Y0227669D02*
X0077728D01*
X0276734Y0338173D02*
Y0370142D01*
X0264766D02*
X0276734D01*
X0264766Y0338173D02*
Y0370142D01*
Y0338173D02*
X0276734D01*
X0044874Y0318032D02*
Y0319193D01*
X0054244D01*
X0054244Y0326122D02*
X0054244Y0319193D01*
X0044874Y0326122D02*
X0054244D01*
X0044874D02*
Y0327284D01*
X0029126D02*
X0044874D01*
X0029126Y0326122D02*
Y0327284D01*
X0019756Y0326122D02*
X0029126D01*
X0019756Y0319193D02*
X0019756Y0326122D01*
X0019756Y0319193D02*
X0029126D01*
X0029126Y0318032D01*
X0044874D01*
X0044874Y0279031D02*
Y0280193D01*
X0054244D01*
X0054244Y0287122D01*
X0044874D02*
X0054244D01*
X0044874D02*
Y0288283D01*
X0029126D02*
X0044874D01*
X0029126D02*
X0029126Y0287122D01*
X0019756D02*
X0029126D01*
X0019756Y0280193D02*
Y0287122D01*
Y0280193D02*
X0029126D01*
X0029126Y0279031D02*
X0029126Y0280193D01*
X0029126Y0279031D02*
X0044874D01*
Y0299693D02*
X0044874Y0298532D01*
X0044874Y0299693D02*
X0054244D01*
Y0306622D01*
X0044874D02*
X0054244D01*
X0044874D02*
Y0307784D01*
X0029126Y0307783D02*
X0044874Y0307784D01*
X0029126Y0307783D02*
X0029126Y0306622D01*
X0019756D02*
X0029126D01*
X0019756Y0299693D02*
Y0306622D01*
X0235374Y0237283D02*
Y0253031D01*
X0236535D01*
Y0262402D01*
X0243465D01*
Y0253031D02*
Y0262402D01*
Y0253031D02*
X0244626D01*
Y0237283D02*
Y0253031D01*
X0243465Y0237283D02*
X0244626D01*
X0243465Y0227913D02*
Y0237283D01*
X0236535Y0227913D02*
X0243465D01*
X0236535D02*
Y0237283D01*
X0235374D02*
X0236535D01*
M02*
