M48
;Layer_Color=9474304
;FILE_FORMAT=2:4
INCH,LZ
;TYPE=PLATED
T01F00S00C0.0080
T02F00S00C0.0276
T03F00S00C0.0295
T04F00S00C0.0320
T05F00S00C0.0394
T06F00S00C0.0400
T07F00S00C0.0402
%
T01
X00155Y0009
Y0012
X002117Y003845
X002322Y00405
X00615Y002
X00685
X008008Y00345
X00995Y0025
X012881Y0005
X013347
X01386
X0107Y00995
X01045
X0086Y01005
Y01045
X00805Y01005
Y00975
X0086Y00865
X00895
X01485Y0149
X018Y014
X01815Y0132
X021Y014
X0263Y01335
X0253Y0119
Y0113
X02915Y0144
X01655Y0111
X01695Y0023
X0172Y00255
X01695Y021316
X0172Y021566
X01655Y030116
X0253Y030316
Y030916
X0107Y028966
X01045
X0086Y029066
Y029466
X00805Y029066
Y028766
X0086Y027666
X00895
X008008Y022466
X00685Y021016
X00615
X00995Y021516
X012881Y019516
X013347
X01386
X01115Y01695
Y01655
X00155Y019916
Y020216
X002117Y02286
X002322Y023066
X01115Y035566
Y035966
X01485Y033916
X018Y033016
X01815Y032216
X021Y033016
X0263Y032366
X02915Y033416
T02
X000434Y0054
X001434
X001432Y00735
X000432Y00735
X000431Y00935
X001431
X00144Y0113
X00044
X00045Y01325
X00145Y01325
X001434Y024416
X000434
X000432Y026366
X001432Y026366
X001431Y028366
X000431
X00044Y030316
X00144
X00145Y032266
X00045Y032266
T03
X002322Y0054
X002322Y00735
X002322Y00935
Y0113
X002322Y01325
X005078Y01325
X005078Y0113
Y00935
X005078Y00735
X005078Y0054
X0103Y006678
X01035Y007872
Y010628
X0103Y003922
X01815Y004172
Y006928
X02105Y008306
Y00555
X024Y006878
Y004122
Y023138
Y025894
X02105Y024566
Y027322
X01815Y025944
Y023188
X0103Y022938
Y025694
X01035Y026888
Y029644
X005078Y030316
Y028366
X005078Y026366
X005078Y024416
X002322Y024416
X002322Y026366
X002322Y028366
Y030316
X002322Y032266
X005078Y032266
T04
X0252Y0005
Y0015
Y0025
X027075Y0154
Y0164
Y0174
X0252Y019516
Y020516
Y021516
X027075Y034416
Y035416
Y036416
T05
X011559Y0042
X011559Y0052
X011559Y007
Y008
X013559
Y007
Y0052
Y0042
X01915Y004509
X02015
X022
X023
X0249
X0259
Y006509
X0249
X023
X022
X02015
X01915
X02915Y005891
X03015
Y007891
X02915
X029075Y00385
X030075
Y00185
X029075
Y020866
X030075
Y022866
X029075
X02915Y024907
X03015
Y026907
X02915
X0259Y025525
X0249
X023
X022
X02015
X01915
Y023525
X02015
X022
X023
X0249
X0259
X013559Y023216
Y024216
Y026016
Y027016
X011559
Y026016
X011559Y024216
X011559Y023216
T06
X0062Y00845
X0062Y00945
X0062Y01045
Y01145
Y01245
Y01345
Y01445
Y01545
X001Y01515
X03Y01515
Y01415
Y01315
Y01215
Y01115
Y01015
Y01615
Y01715
X03Y01815
X03Y029166
Y030166
Y031166
X0062Y030466
Y029466
X0062Y028466
X0062Y027466
X0062Y01845
X0062Y01745
Y01645
X001Y01615
X001Y01715
Y01815
X001Y034166
Y035166
X001Y036166
Y037166
X0062Y037466
X0062Y036466
Y035466
Y034466
Y033466
Y032466
Y031466
X03Y032166
Y033166
Y034166
Y035166
Y036166
X03Y037166
T07
X0072Y00445
Y00545
Y00645
Y00745
X0072Y00845
X0072Y00945
Y01045
Y01145
Y01245
Y01345
Y01445
Y01545
X01355Y00945
X01455
X01555
X01655
X01755
X01855
X01955
X02055
X0252Y01345
Y01445
Y01545
Y01645
Y01745
Y01845
X01755Y01695
X01655
X01655Y028466
X01755
X01855
X01955
X02055
X01555
X01455
X01355
X0072
X0072Y027466
X0072Y026466
Y025466
Y024466
Y023466
Y01845
X0072Y01745
X0072Y01645
X01455Y01695
X01555
X0072Y029466
Y030466
Y031466
Y032466
Y033466
Y034466
Y035466
X0072Y036466
X0072Y037466
X01455Y035966
X01555
X01655
X01755
X0252Y035466
Y036466
Y037466
Y034466
Y033466
Y032466
M30
