G04*
G04 #@! TF.GenerationSoftware,Altium Limited,Altium Designer,24.4.1 (13)*
G04*
G04 Layer_Physical_Order=1*
G04 Layer_Color=255*
%FSTAX25Y25*%
%MOIN*%
G70*
G04*
G04 #@! TF.SameCoordinates,C872E002-563E-4E90-9F37-C142BC3F6998*
G04*
G04*
G04 #@! TF.FilePolarity,Positive*
G04*
G01*
G75*
%ADD10C,0.02178*%
%ADD11C,0.01500*%
%ADD12C,0.03000*%
%ADD13C,0.02000*%
%ADD14C,0.04953*%
%ADD15C,0.05394*%
%ADD16R,0.05394X0.05394*%
%ADD17R,0.04578X0.04578*%
%ADD18C,0.04578*%
%ADD19C,0.06000*%
%ADD20C,0.05937*%
%ADD21R,0.05394X0.05394*%
%ADD22C,0.04756*%
%ADD23R,0.04756X0.04756*%
%ADD24C,0.02200*%
G36*
X030978Y0191378D02*
X0256086D01*
X0255289Y0191868D01*
X0255289Y0192378D01*
Y0198447D01*
X0248711D01*
Y0192378D01*
X0248711Y0191868D01*
X0247914Y0191378D01*
X000122D01*
Y0377937D01*
X0058209Y0377937D01*
X0058489Y0377547D01*
X0058697Y0376937D01*
X0058273Y0376201D01*
X0058Y0375184D01*
Y0375157D01*
X0066D01*
Y0375184D01*
X0065727Y0376201D01*
X0065303Y0376937D01*
X0065511Y0377547D01*
X0065791Y0377937D01*
X030978Y0377937D01*
X030978Y0191378D01*
D02*
G37*
G36*
Y000122D02*
X0256086D01*
X0255289Y0001711D01*
X0255289Y000222D01*
Y0008289D01*
X0248711D01*
Y000222D01*
X0248711Y0001711D01*
X0247914Y000122D01*
X000122D01*
Y018778D01*
X0058209Y018778D01*
X0058489Y0187389D01*
X0058697Y018678D01*
X0058273Y0186044D01*
X0058Y0185027D01*
Y0185D01*
X0066D01*
Y0185027D01*
X0065727Y0186044D01*
X0065303Y018678D01*
X0065511Y0187389D01*
X0065791Y018778D01*
X030978Y018778D01*
X030978Y000122D01*
D02*
G37*
%LPC*%
G36*
X0066Y0374158D02*
X00625D01*
Y0370657D01*
X0062527D01*
X0063544Y037093D01*
X0064456Y0371457D01*
X0065201Y0372201D01*
X0065727Y0373113D01*
X0066Y0374131D01*
Y0374158D01*
D02*
G37*
G36*
X00615D02*
X0058D01*
Y0374131D01*
X0058273Y0373113D01*
X0058799Y0372201D01*
X0059544Y0371457D01*
X0060456Y037093D01*
X0061473Y0370657D01*
X00615D01*
Y0374158D01*
D02*
G37*
G36*
X0300527Y0375658D02*
X0299473D01*
X0298456Y0375385D01*
X0297544Y0374858D01*
X0296799Y0374113D01*
X0296273Y0373201D01*
X0296Y0372184D01*
Y0371131D01*
X0296273Y0370113D01*
X0296799Y0369201D01*
X0297544Y0368457D01*
X0298456Y036793D01*
X0299473Y0367657D01*
X0300527D01*
X0301544Y036793D01*
X0302456Y0368457D01*
X0303201Y0369201D01*
X0303727Y0370113D01*
X0304Y0371131D01*
Y0372184D01*
X0303727Y0373201D01*
X0303201Y0374113D01*
X0302456Y0374858D01*
X0301544Y0375385D01*
X0300527Y0375658D01*
D02*
G37*
G36*
X0010527D02*
X0009473D01*
X0008456Y0375385D01*
X0007544Y0374858D01*
X0006799Y0374113D01*
X0006273Y0373201D01*
X0006Y0372184D01*
Y0371131D01*
X0006273Y0370113D01*
X0006799Y0369201D01*
X0007544Y0368457D01*
X0008456Y036793D01*
X0009473Y0367657D01*
X0010527D01*
X0011544Y036793D01*
X0012456Y0368457D01*
X0013201Y0369201D01*
X0013727Y0370113D01*
X0014Y0371131D01*
Y0372184D01*
X0013727Y0373201D01*
X0013201Y0374113D01*
X0012456Y0374858D01*
X0011544Y0375385D01*
X0010527Y0375658D01*
D02*
G37*
G36*
X0129624Y0369767D02*
X0129616Y0369765D01*
X0128403Y0369606D01*
X0127265Y0369134D01*
X0126287Y0368384D01*
X0125538Y0367407D01*
X0125066Y0366269D01*
X012495Y0365387D01*
X0123942D01*
X0123825Y0366269D01*
X0123354Y0367407D01*
X0122604Y0368384D01*
X0121627Y0369134D01*
X0120489Y0369606D01*
X0119276Y0369765D01*
X0119267Y0369767D01*
X0119259Y0369765D01*
X0118046Y0369606D01*
X0116908Y0369134D01*
X0115931Y0368384D01*
X0115181Y0367407D01*
X011471Y0366269D01*
X011455Y0365056D01*
X0114548Y0365048D01*
Y0361395D01*
X0113548Y0361092D01*
X0113302Y036146D01*
X0108302Y036646D01*
X0107475Y0367012D01*
X01065Y0367207D01*
X0074679D01*
X007427Y0367616D01*
X0073427Y0368102D01*
X0072487Y0368354D01*
X0071513D01*
X0070573Y0368102D01*
X006973Y0367616D01*
X0069321Y0367207D01*
X0065108D01*
X0064456Y0367858D01*
X0063544Y0368385D01*
X0062527Y0368657D01*
X0061473D01*
X0060456Y0368385D01*
X0059544Y0367858D01*
X0058799Y0367113D01*
X0058273Y0366201D01*
X0058Y0365184D01*
Y0364131D01*
X0058273Y0363113D01*
X0058799Y0362201D01*
X0059544Y0361457D01*
X0060456Y036093D01*
X0061473Y0360658D01*
X0062527D01*
X0063544Y036093D01*
X0064456Y0361457D01*
X0065108Y0362108D01*
X0069321D01*
X006973Y0361699D01*
X0070573Y0361213D01*
X0071513Y0360961D01*
X0072487D01*
X0073427Y0361213D01*
X007427Y0361699D01*
X0074679Y0362108D01*
X0105444D01*
X0108951Y0358602D01*
Y0355658D01*
X0109145Y0354682D01*
X0109698Y0353855D01*
X0110524Y0353303D01*
X01115Y0353109D01*
X0112476Y0353303D01*
X0113302Y0353855D01*
X0113548Y0354223D01*
X0114548Y035392D01*
Y0347613D01*
X0114253Y0347083D01*
X0113722Y0346788D01*
X0104D01*
X0103185Y0346625D01*
X0102494Y0346164D01*
X0101555Y0346611D01*
X0101518Y0346648D01*
X0101456Y0346689D01*
X0100642Y0347315D01*
X0099625Y0347736D01*
X0098535Y0347879D01*
X0097444Y0347736D01*
X0096427Y0347315D01*
X0095612Y0346689D01*
X0095551Y0346648D01*
Y0346648D01*
X009551Y0346587D01*
X0094885Y0345772D01*
X0094464Y0344756D01*
X009432Y0343665D01*
X0094464Y0342574D01*
X0093716Y0341827D01*
X0092625Y034197D01*
X0091535Y0341827D01*
X0090518Y0341406D01*
X0089703Y034078D01*
X0089642Y0340739D01*
Y0340739D01*
X0089601Y0340678D01*
X0088976Y0339863D01*
X0088555Y0338846D01*
X0088411Y0337756D01*
X0088555Y0336665D01*
X0087807Y0335917D01*
X0086716Y0336061D01*
X0085626Y0335917D01*
X0084609Y0335496D01*
X0083794Y0334871D01*
X0083733Y033483D01*
Y033483D01*
X0083692Y0334769D01*
X0083067Y0333954D01*
X0082646Y0332938D01*
X0082502Y0331847D01*
X0082646Y0330756D01*
X0083067Y032974D01*
X0083692Y0328925D01*
X0083733Y0328863D01*
X0083733Y0328863D01*
X0087951Y0324645D01*
X008799Y0324619D01*
X0088278Y0324188D01*
X0088379Y0323679D01*
X008837Y0323631D01*
Y0322973D01*
X0087994Y0322597D01*
X0087532Y0321906D01*
X008737Y0321091D01*
Y0313225D01*
X008637Y0312811D01*
X0075552Y0323629D01*
X0075697Y0324171D01*
Y0325144D01*
X0075445Y0326084D01*
X0074958Y0326927D01*
X007427Y0327616D01*
X0073427Y0328102D01*
X0072487Y0328354D01*
X0071513D01*
X0070573Y0328102D01*
X006973Y0327616D01*
X0069042Y0326927D01*
X0068555Y0326084D01*
X0068303Y0325144D01*
Y0324171D01*
X0068448Y0323629D01*
X0066932Y0322113D01*
X0066333Y0322179D01*
X0065804Y0322994D01*
X0065753Y032321D01*
X0066Y0324131D01*
Y0325184D01*
X0065727Y0326201D01*
X0065201Y0327114D01*
X0064456Y0327858D01*
X0063544Y0328385D01*
X0062527Y0328658D01*
X0061473D01*
X0060456Y0328385D01*
X0059544Y0327858D01*
X0058799Y0327114D01*
X0058273Y0326201D01*
X0058Y0325184D01*
Y0324131D01*
X0058273Y0323113D01*
X0058516Y0322692D01*
X0057946Y0321692D01*
X0055203D01*
X0054256Y0322639D01*
Y0323115D01*
X0054019Y0323999D01*
X0053561Y0324792D01*
X0052914Y0325439D01*
X0052121Y0325897D01*
X0051237Y0326134D01*
X0050322D01*
X0049438Y0325897D01*
X0048645Y0325439D01*
X0047998Y0324792D01*
X004754Y0323999D01*
X0047303Y0323115D01*
Y03222D01*
X004754Y0321316D01*
X0047998Y0320523D01*
X0048645Y0319876D01*
X0049438Y0319418D01*
X0050322Y0319181D01*
X0051237D01*
X0052121Y0319418D01*
X0052317Y0319531D01*
X0053202Y0318646D01*
X0053202Y0318646D01*
X0053781Y0318259D01*
X0054464Y0318123D01*
X0054464Y0318123D01*
X0058395D01*
X0058809Y0317123D01*
X0058799Y0317113D01*
X0058273Y0316201D01*
X0058Y0315184D01*
Y0314131D01*
X0058273Y0313113D01*
X005866Y0312442D01*
X0058376Y031171D01*
X0058145Y0311442D01*
X005728D01*
X0057279Y0311442D01*
X0056597Y0311306D01*
X0056018Y0310919D01*
X0056018Y0310919D01*
X0051628Y0306529D01*
X0051237Y0306634D01*
X0050322D01*
X0049438Y0306397D01*
X0048645Y0305939D01*
X0047998Y0305292D01*
X004754Y0304499D01*
X0047303Y0303615D01*
Y03027D01*
X004754Y0301816D01*
X0047998Y0301023D01*
X0048645Y0300376D01*
X0049438Y0299918D01*
X0050322Y0299681D01*
X0051237D01*
X0052121Y0299918D01*
X0052914Y0300376D01*
X0053561Y0301023D01*
X0054019Y0301816D01*
X0054256Y03027D01*
Y0303615D01*
X0054151Y0304006D01*
X0057382Y0307236D01*
X0057512Y0307285D01*
X0057716Y0307238D01*
X0058238Y0306266D01*
X0058243Y0306092D01*
X0058Y0305184D01*
Y0304131D01*
X0058273Y0303114D01*
X0058799Y0302201D01*
X0059544Y0301457D01*
X0060456Y030093D01*
X0061473Y0300658D01*
X0062527D01*
X0063544Y030093D01*
X0064456Y0301457D01*
X0065201Y0302201D01*
X0065727Y0303114D01*
X0066Y0304131D01*
Y0305184D01*
X0065727Y0306201D01*
X006534Y0306873D01*
X0065624Y0307605D01*
X0065855Y0307873D01*
X0067D01*
X0067683Y0308009D01*
X0068262Y0308396D01*
X0070972Y0311106D01*
X0071513Y0310961D01*
X0072487D01*
X0073028Y0311106D01*
X0078716Y0305418D01*
Y0291837D01*
X00784Y0291075D01*
Y029024D01*
X0078716Y0289478D01*
Y0288837D01*
X00784Y0288075D01*
Y028724D01*
X007872Y0286468D01*
X0079311Y0285877D01*
X0080082Y0285558D01*
X0080918D01*
X008169Y0285877D01*
X008228Y0286468D01*
X00826Y028724D01*
Y0288075D01*
X0082284Y0288837D01*
Y0289478D01*
X00826Y029024D01*
Y0291075D01*
X0082284Y0291837D01*
Y0306157D01*
X0082284Y0306157D01*
X0082148Y030684D01*
X0081762Y0307419D01*
X0081762Y0307419D01*
X0075552Y0313629D01*
X0075697Y0314171D01*
Y0315144D01*
X0075445Y0316084D01*
X0074958Y0316927D01*
X007427Y0317616D01*
X0073427Y0318102D01*
X0072487Y0318354D01*
X0071513D01*
X0070573Y0318102D01*
X006973Y0317616D01*
X0069042Y0316927D01*
X0068555Y0316084D01*
X0068303Y0315144D01*
Y0314171D01*
X0068448Y0313629D01*
X0066688Y0311868D01*
X0066273Y0311807D01*
X0066095Y0311857D01*
X0065645Y0312971D01*
X0065727Y0313113D01*
X0066Y0314131D01*
Y0315184D01*
X0065727Y0316201D01*
X0065201Y0317113D01*
X0065191Y0317123D01*
X0065605Y0318123D01*
X006725D01*
X0067933Y0318259D01*
X0068512Y0318646D01*
X0070972Y0321106D01*
X0071513Y0320961D01*
X0072487D01*
X0073028Y0321106D01*
X0084216Y0309918D01*
Y0295837D01*
X00839Y0295075D01*
Y029424D01*
X0084216Y0293478D01*
Y0291837D01*
X00839Y0291075D01*
Y029024D01*
X008422Y0289468D01*
X0084811Y0288877D01*
X0085582Y0288558D01*
X0086418D01*
X008678Y0288296D01*
X0086869Y0287039D01*
X0083618Y0283788D01*
X0076629D01*
X0075697Y0284171D01*
Y0285144D01*
X0075445Y0286084D01*
X0074958Y0286927D01*
X007427Y0287616D01*
X0073427Y0288102D01*
X0072487Y0288354D01*
X0071513D01*
X0070573Y0288102D01*
X006973Y0287616D01*
X0069042Y0286927D01*
X0068555Y0286084D01*
X0068303Y0285144D01*
Y0284171D01*
X0068555Y028323D01*
X0069042Y0282388D01*
X006973Y0281699D01*
X0070573Y0281213D01*
X0071513Y0280961D01*
X0072487D01*
X0072643Y0281002D01*
X0073494Y0280151D01*
X0074185Y027969D01*
X0075Y0279527D01*
X0084301D01*
X0084411Y0279527D01*
X0084481Y0279525D01*
X0084509Y0279494D01*
X008481Y0278438D01*
X0084634Y0278261D01*
X0084488Y0278164D01*
X0083112Y0276788D01*
X0075039D01*
X0074958Y0276927D01*
X007427Y0277616D01*
X0073427Y0278102D01*
X0072487Y0278354D01*
X0071513D01*
X0070573Y0278102D01*
X006973Y0277616D01*
X0069042Y0276927D01*
X0068555Y0276084D01*
X0068303Y0275144D01*
Y0274171D01*
X0068555Y0273231D01*
X0069042Y0272388D01*
X006973Y0271699D01*
X0070573Y0271213D01*
X0071513Y0270961D01*
X0072487D01*
X0073427Y0271213D01*
X007427Y0271699D01*
X0074958Y0272388D01*
X0075039Y0272527D01*
X0083994D01*
X0084809Y027269D01*
X00855Y0273151D01*
X0086876Y0274527D01*
X00895D01*
X0089651Y0274557D01*
X0089918D01*
X0090164Y0274659D01*
X0090315Y027469D01*
X009037Y0274726D01*
X0090638Y0274665D01*
X0091182Y0274357D01*
X009137Y0274159D01*
Y023104D01*
X0082138Y0221808D01*
X0081474Y0221878D01*
X0081301Y0222738D01*
X0081298Y0222902D01*
X0081461Y0223066D01*
X0081589Y0223151D01*
X0081675Y022328D01*
X0081863Y0223468D01*
X0081965Y0223714D01*
X0082051Y0223842D01*
X0082081Y0223994D01*
X0082183Y022424D01*
Y0224506D01*
X0082213Y0224658D01*
X0082183Y0224809D01*
Y0225075D01*
X0082081Y0225321D01*
X0082051Y0225473D01*
X0081965Y0225601D01*
X0081863Y0225847D01*
X0081675Y0226035D01*
X0081589Y0226164D01*
X0081461Y0226249D01*
X0081273Y0226438D01*
X0081026Y022654D01*
X0080898Y0226625D01*
X0080747Y0226656D01*
X0080501Y0226758D01*
X0080234D01*
X0080083Y0226788D01*
X0070382D01*
X006613Y023104D01*
Y0271623D01*
X0065968Y0272439D01*
X006563Y0272944D01*
X0065727Y0273113D01*
X0066Y0274131D01*
Y0275184D01*
X0065727Y0276201D01*
X0065201Y0277114D01*
X0064456Y0277858D01*
X0063544Y0278385D01*
X0062527Y0278658D01*
X0061473D01*
X0060456Y0278385D01*
X0059544Y0277858D01*
X0058799Y0277114D01*
X0058273Y0276201D01*
X0058Y0275184D01*
Y0274131D01*
X0058273Y0273113D01*
X0058799Y0272201D01*
X0059544Y0271457D01*
X0060456Y027093D01*
X0061473Y0270657D01*
X006187D01*
Y0230157D01*
X0062032Y0229342D01*
X0062494Y0228651D01*
X0067994Y0223151D01*
X0068538Y0222788D01*
X0068505Y022217D01*
X0068372Y0221788D01*
X0064882D01*
X005863Y022804D01*
Y0269158D01*
X0058468Y0269973D01*
X0058006Y0270664D01*
X005563Y027304D01*
Y0276275D01*
X0060348Y0280993D01*
X0060456Y028093D01*
X0061473Y0280658D01*
X0062527D01*
X0063544Y028093D01*
X0064456Y0281457D01*
X0065201Y0282201D01*
X0065727Y0283114D01*
X0066Y0284131D01*
Y0285184D01*
X0065727Y0286201D01*
X0065201Y0287113D01*
X0064456Y0287858D01*
X0063544Y0288385D01*
X0062527Y0288657D01*
X0061473D01*
X0060456Y0288385D01*
X0059544Y0287858D01*
X0058799Y0287113D01*
X0058273Y0286201D01*
X0058Y0285184D01*
Y028467D01*
X0054529Y0281199D01*
X0053729Y0281813D01*
X0054019Y0282316D01*
X0054256Y02832D01*
Y0284115D01*
X0054019Y0284999D01*
X0053561Y0285792D01*
X0052914Y0286439D01*
X0052121Y0286897D01*
X0051237Y0287134D01*
X0050322D01*
X0049438Y0286897D01*
X0048645Y0286439D01*
X0047998Y0285792D01*
X004754Y0284999D01*
X0047303Y0284115D01*
Y02832D01*
X004754Y0282316D01*
X0047998Y0281523D01*
X0048645Y0280876D01*
X0049438Y0280418D01*
X0050322Y0280181D01*
X0051237D01*
X0052121Y0280418D01*
X0052624Y0280708D01*
X0053238Y0279908D01*
X0051994Y0278664D01*
X0051532Y0277973D01*
X005137Y0277157D01*
Y0272158D01*
X0051532Y0271342D01*
X0051994Y0270651D01*
X005437Y0268275D01*
Y0266336D01*
X0054166Y0266199D01*
X005337Y0265983D01*
X0052914Y0266439D01*
X0052121Y0266897D01*
X0051237Y0267134D01*
X0050322D01*
X0049438Y0266897D01*
X0048645Y0266439D01*
X0047998Y0265792D01*
X004754Y0264999D01*
X0047303Y0264115D01*
Y02632D01*
X004754Y0262316D01*
X0047998Y0261523D01*
X0048645Y0260876D01*
X0049438Y0260418D01*
X0050322Y0260181D01*
X0051237D01*
X0052121Y0260418D01*
X0052914Y0260876D01*
X005337Y0261332D01*
X0054166Y0261116D01*
X005437Y0260979D01*
Y0246836D01*
X0054166Y0246699D01*
X005337Y0246483D01*
X0052914Y0246939D01*
X0052121Y0247397D01*
X0051237Y0247634D01*
X0050322D01*
X0049438Y0247397D01*
X0048645Y0246939D01*
X0047998Y0246292D01*
X004754Y0245499D01*
X0047303Y0244615D01*
Y02437D01*
X004754Y0242816D01*
X0047998Y0242023D01*
X0048645Y0241376D01*
X0049438Y0240918D01*
X0050322Y0240681D01*
X0051237D01*
X0052121Y0240918D01*
X0052914Y0241376D01*
X005337Y0241831D01*
X0054166Y0241616D01*
X005437Y0241479D01*
Y0227157D01*
X0054532Y0226342D01*
X0054994Y0225651D01*
X0062494Y0218151D01*
X0063038Y0217788D01*
X0063005Y021717D01*
X0062872Y0216788D01*
X0059882D01*
X004513Y023154D01*
Y0286775D01*
X0050882Y0292527D01*
X0058611D01*
X0058799Y0292201D01*
X0059544Y0291457D01*
X0060456Y029093D01*
X0061473Y0290657D01*
X0062527D01*
X0063544Y029093D01*
X0064456Y0291457D01*
X0065201Y0292201D01*
X0065727Y0293113D01*
X0066Y0294131D01*
Y0295184D01*
X0065727Y0296201D01*
X0065201Y0297113D01*
X0064456Y0297858D01*
X0063544Y0298385D01*
X0062527Y0298657D01*
X0061473D01*
X0060456Y0298385D01*
X0059544Y0297858D01*
X0058799Y0297113D01*
X0058611Y0296788D01*
X005D01*
X0049185Y0296625D01*
X0048494Y0296164D01*
X0041494Y0289164D01*
X0041032Y0288473D01*
X004087Y0287657D01*
Y0230658D01*
X0041032Y0229842D01*
X0041494Y0229151D01*
X0057494Y0213151D01*
X0058185Y0212689D01*
X0059Y0212527D01*
X009D01*
X0090815Y0212689D01*
X0091506Y0213151D01*
X0098382Y0220027D01*
X0142D01*
X0142815Y0220189D01*
X0143506Y0220651D01*
X0154006Y0231151D01*
X0154468Y0231842D01*
X015463Y0232658D01*
Y0274158D01*
X0154468Y0274973D01*
X0154006Y0275664D01*
X0148557Y0281113D01*
X0148458Y0282388D01*
X0148945Y028323D01*
X0149197Y0284171D01*
Y0285144D01*
X0148945Y0286084D01*
X0148458Y0286927D01*
X014777Y0287616D01*
X014763Y0287696D01*
Y0294775D01*
X0165382Y0312527D01*
X0260618D01*
X0262994Y0310151D01*
X0263685Y030969D01*
X02645Y0309527D01*
X0296611D01*
X0296799Y0309201D01*
X0297544Y0308457D01*
X0298456Y030793D01*
X0299473Y0307658D01*
X0300527D01*
X0301544Y030793D01*
X0302456Y0308457D01*
X0303201Y0309201D01*
X0303727Y0310114D01*
X0304Y0311131D01*
Y0312184D01*
X0303727Y0313201D01*
X0303201Y0314113D01*
X0302456Y0314858D01*
X0301544Y0315385D01*
X0300527Y0315657D01*
X0299473D01*
X0298456Y0315385D01*
X0297544Y0314858D01*
X0296799Y0314113D01*
X0296611Y0313788D01*
X0265382D01*
X0263006Y0316164D01*
X0262315Y0316625D01*
X02615Y0316788D01*
X01645D01*
X0163685Y0316625D01*
X0162994Y0316164D01*
X0143994Y0297164D01*
X0143532Y0296473D01*
X014337Y0295657D01*
Y0287696D01*
X014323Y0287616D01*
X0142542Y0286927D01*
X0142055Y0286084D01*
X0141803Y0285144D01*
Y0284171D01*
X0142055Y028323D01*
X0142542Y0282388D01*
X014323Y0281699D01*
X0143659Y0281452D01*
Y0280868D01*
X0143821Y0280053D01*
X0144283Y0279362D01*
X015037Y0273275D01*
Y023354D01*
X0141118Y0224288D01*
X00975D01*
X0096685Y0224125D01*
X0095994Y0223664D01*
X0089118Y0216788D01*
X0084128D01*
X0083995Y021717D01*
X0083962Y0217788D01*
X0084506Y0218151D01*
X0095006Y0228651D01*
X0095468Y0229342D01*
X009563Y0230157D01*
Y0314275D01*
X0118382Y0337027D01*
X01485D01*
X0148651Y0337057D01*
X0148918D01*
X0149164Y0337159D01*
X0149315Y033719D01*
X0149443Y0337275D01*
X014969Y0337377D01*
X0149878Y0337566D01*
X0150006Y0337651D01*
X0150092Y0337779D01*
X015028Y0337968D01*
X0150382Y0338214D01*
X0150468Y0338342D01*
X0150498Y0338494D01*
X01506Y033874D01*
Y0339006D01*
X015063Y0339158D01*
X01506Y0339309D01*
Y0339575D01*
X0150498Y0339821D01*
X0150468Y0339973D01*
X0150382Y0340101D01*
X015028Y0340347D01*
X0150092Y0340535D01*
X0150006Y0340664D01*
X0149878Y0340749D01*
X014969Y0340938D01*
X0149443Y034104D01*
X0149315Y0341125D01*
X0149164Y0341156D01*
X0148918Y0341258D01*
X0148651D01*
X01485Y0341288D01*
X012635D01*
X0126151Y0342288D01*
X0126805Y0342559D01*
X0127782Y0343308D01*
X0128532Y0344286D01*
X0129004Y0345424D01*
X0129163Y0346637D01*
X0129165Y0346645D01*
X0130164Y0346641D01*
X0130245Y0346025D01*
X0130716Y0344887D01*
X0131466Y034391D01*
X0132443Y034316D01*
X0133581Y0342689D01*
X0134794Y0342529D01*
X0134802Y0342527D01*
X0163D01*
X0163815Y0342689D01*
X0164506Y0343151D01*
X0176391Y0355036D01*
X0176853Y0355727D01*
X0176952Y0356227D01*
X017777Y0356699D01*
X0178458Y0357388D01*
X0178945Y035823D01*
X0179197Y0359171D01*
Y0360144D01*
X0178945Y0361084D01*
X0178458Y0361927D01*
X017777Y0362616D01*
X0176927Y0363102D01*
X0175987Y0363354D01*
X0175013D01*
X0174073Y0363102D01*
X017323Y0362616D01*
X0172542Y0361927D01*
X0172055Y0361084D01*
X0171803Y0360144D01*
Y0359171D01*
X0172055Y035823D01*
X0172542Y0357388D01*
X017263Y03573D01*
X0162118Y0346788D01*
X0135169D01*
X0134638Y0347083D01*
X0134343Y0347613D01*
Y0365048D01*
X0134342Y0365056D01*
X0134182Y0366269D01*
X0133711Y0367407D01*
X0132961Y0368384D01*
X0131983Y0369134D01*
X0130845Y0369606D01*
X0129632Y0369765D01*
X0129624Y0369767D01*
D02*
G37*
G36*
X0252487Y0368354D02*
X0251513D01*
X0250573Y0368102D01*
X024973Y0367616D01*
X0249042Y0366927D01*
X0248555Y0366084D01*
X0248303Y0365144D01*
Y0364171D01*
X0248555Y036323D01*
X0249042Y0362388D01*
X024973Y0361699D01*
X0250573Y0361213D01*
X0251513Y0360961D01*
X0252487D01*
X0253427Y0361213D01*
X025427Y0361699D01*
X0254958Y0362388D01*
X0255445Y036323D01*
X0255697Y0364171D01*
Y0365144D01*
X0255445Y0366084D01*
X0254958Y0366927D01*
X025427Y0367616D01*
X0253427Y0368102D01*
X0252487Y0368354D01*
D02*
G37*
G36*
X0271183Y0367446D02*
X0270317D01*
X026948Y0367222D01*
X026873Y0366789D01*
X0268118Y0366177D01*
X0267685Y0365427D01*
X0267461Y0364591D01*
Y0363724D01*
X0267685Y0362888D01*
X0268118Y0362138D01*
X026873Y0361526D01*
X026948Y0361093D01*
X0270317Y0360869D01*
X0271183D01*
X027202Y0361093D01*
X0272769Y0361526D01*
X0273382Y0362138D01*
X0273815Y0362888D01*
X0274039Y0363724D01*
Y0364591D01*
X0273815Y0365427D01*
X0273382Y0366177D01*
X0272769Y0366789D01*
X027202Y0367222D01*
X0271183Y0367446D01*
D02*
G37*
G36*
X0300527Y0365657D02*
X0299473D01*
X0298456Y0365385D01*
X0297544Y0364858D01*
X0296799Y0364113D01*
X0296558Y0363697D01*
X02855D01*
X028472Y0363541D01*
X0284058Y0363099D01*
X0277155Y0356197D01*
X0273362D01*
X0272769Y0356789D01*
X027202Y0357222D01*
X0271183Y0357447D01*
X0270317D01*
X026948Y0357222D01*
X026873Y0356789D01*
X0268118Y0356177D01*
X0267685Y0355427D01*
X0267461Y0354591D01*
Y0353725D01*
X0267685Y0352888D01*
X0268118Y0352138D01*
X026873Y0351526D01*
X026948Y0351093D01*
X0270317Y0350869D01*
X0271183D01*
X027202Y0351093D01*
X0272769Y0351526D01*
X0273362Y0352118D01*
X0278D01*
X027878Y0352274D01*
X0279442Y0352716D01*
X0286345Y0359618D01*
X0296558D01*
X0296799Y0359201D01*
X0297544Y0358457D01*
X0298456Y035793D01*
X0299473Y0357658D01*
X0300527D01*
X0301544Y035793D01*
X0302456Y0358457D01*
X0303201Y0359201D01*
X0303727Y0360114D01*
X0304Y0361131D01*
Y0362184D01*
X0303727Y0363201D01*
X0303201Y0364113D01*
X0302456Y0364858D01*
X0301544Y0365385D01*
X0300527Y0365657D01*
D02*
G37*
G36*
X0010527D02*
X0009473D01*
X0008456Y0365385D01*
X0007544Y0364858D01*
X0006799Y0364113D01*
X0006273Y0363201D01*
X0006Y0362184D01*
Y0361131D01*
X0006273Y0360114D01*
X0006799Y0359201D01*
X0007544Y0358457D01*
X0008456Y035793D01*
X0009473Y0357658D01*
X0010527D01*
X0011544Y035793D01*
X0012456Y0358457D01*
X0013201Y0359201D01*
X0013727Y0360114D01*
X0014Y0361131D01*
Y0362184D01*
X0013727Y0363201D01*
X0013201Y0364113D01*
X0012456Y0364858D01*
X0011544Y0365385D01*
X0010527Y0365657D01*
D02*
G37*
G36*
X0165987Y0363354D02*
X0165013D01*
X0164073Y0363102D01*
X016323Y0362616D01*
X0162542Y0361927D01*
X0162055Y0361084D01*
X0161803Y0360144D01*
Y0359171D01*
X0162055Y035823D01*
X0162542Y0357388D01*
X016323Y0356699D01*
X0164073Y0356213D01*
X0165013Y0355961D01*
X0165987D01*
X0166927Y0356213D01*
X016777Y0356699D01*
X0168458Y0357388D01*
X0168945Y035823D01*
X0169197Y0359171D01*
Y0360144D01*
X0168945Y0361084D01*
X0168458Y0361927D01*
X016777Y0362616D01*
X0166927Y0363102D01*
X0165987Y0363354D01*
D02*
G37*
G36*
X0155987D02*
X0155013D01*
X0154073Y0363102D01*
X015323Y0362616D01*
X0152542Y0361927D01*
X0152055Y0361084D01*
X0151803Y0360144D01*
Y0359171D01*
X0152055Y035823D01*
X0152542Y0357388D01*
X015323Y0356699D01*
X0154073Y0356213D01*
X0155013Y0355961D01*
X0155987D01*
X0156927Y0356213D01*
X015777Y0356699D01*
X0158458Y0357388D01*
X0158945Y035823D01*
X0159197Y0359171D01*
Y0360144D01*
X0158945Y0361084D01*
X0158458Y0361927D01*
X015777Y0362616D01*
X0156927Y0363102D01*
X0155987Y0363354D01*
D02*
G37*
G36*
X0252487Y0358354D02*
X0251513D01*
X0250573Y0358102D01*
X024973Y0357616D01*
X0249042Y0356927D01*
X0248555Y0356084D01*
X0248303Y0355144D01*
Y0354171D01*
X0248555Y0353231D01*
X0249042Y0352388D01*
X024973Y0351699D01*
X0250573Y0351213D01*
X0251513Y0350961D01*
X0252487D01*
X0253427Y0351213D01*
X025427Y0351699D01*
X0254958Y0352388D01*
X0255445Y0353231D01*
X0255697Y0354171D01*
Y0355144D01*
X0255445Y0356084D01*
X0254958Y0356927D01*
X025427Y0357616D01*
X0253427Y0358102D01*
X0252487Y0358354D01*
D02*
G37*
G36*
X0062527Y0358658D02*
X0061473D01*
X0060456Y0358385D01*
X0059544Y0357858D01*
X0058799Y0357114D01*
X0058273Y0356201D01*
X0058Y0355184D01*
Y0354262D01*
X0030698Y032696D01*
X0030145Y0326133D01*
X0029951Y0325157D01*
Y0240993D01*
X0021418Y023246D01*
X0019365Y0230407D01*
X0018813Y022958D01*
X0018619Y0228605D01*
X0018813Y0227629D01*
X0019365Y0226802D01*
X0020192Y022625D01*
X0021168Y0226056D01*
X0022143Y022625D01*
X002297Y0226802D01*
X0025023Y0228855D01*
X0034302Y0238135D01*
X0034855Y0238962D01*
X0035049Y0239937D01*
Y0324102D01*
X005727Y0346322D01*
X0058166Y0345805D01*
X0058Y0345184D01*
Y0344131D01*
X0058273Y0343113D01*
X0058799Y0342201D01*
X0059544Y0341457D01*
X0060456Y034093D01*
X0061473Y0340657D01*
X0062527D01*
X0063544Y034093D01*
X0064456Y0341457D01*
X0065201Y0342201D01*
X0065727Y0343113D01*
X0066Y0344131D01*
Y0345184D01*
X0065727Y0346201D01*
X0065201Y0347113D01*
X0064456Y0347858D01*
X0063544Y0348385D01*
X0062527Y0348657D01*
X0061473D01*
X0060853Y0348491D01*
X0060335Y0349388D01*
X0061605Y0350658D01*
X0062527D01*
X0063544Y035093D01*
X0064456Y0351457D01*
X0065201Y0352201D01*
X0065442Y0352618D01*
X0068909D01*
X0069042Y0352388D01*
X006973Y0351699D01*
X0070573Y0351213D01*
X0071513Y0350961D01*
X0072487D01*
X0073427Y0351213D01*
X007427Y0351699D01*
X0074958Y0352388D01*
X0075445Y0353231D01*
X0075697Y0354171D01*
Y0355144D01*
X0075445Y0356084D01*
X0074958Y0356927D01*
X007427Y0357616D01*
X0073427Y0358102D01*
X0072487Y0358354D01*
X0071513D01*
X0070573Y0358102D01*
X006973Y0357616D01*
X0069042Y0356927D01*
X0068909Y0356697D01*
X0065442D01*
X0065201Y0357114D01*
X0064456Y0357858D01*
X0063544Y0358385D01*
X0062527Y0358658D01*
D02*
G37*
G36*
X0300527Y0355658D02*
X0299473D01*
X0298456Y0355385D01*
X0297544Y0354858D01*
X0296799Y0354114D01*
X0296273Y0353201D01*
X0296Y0352184D01*
Y0351131D01*
X0296097Y0350767D01*
X0289994Y0344664D01*
X0289532Y0343973D01*
X028937Y0343158D01*
Y0334157D01*
X02894Y0334006D01*
Y033374D01*
X0289502Y0333494D01*
X0289532Y0333342D01*
X0289618Y0333214D01*
X028972Y0332968D01*
X0289908Y033278D01*
X0289994Y0332651D01*
X0290122Y0332566D01*
X029031Y0332377D01*
X0290557Y0332275D01*
X0290685Y0332189D01*
X0290836Y0332159D01*
X0291082Y0332057D01*
X0291349D01*
X02915Y0332027D01*
X0291651Y0332057D01*
X0291918D01*
X0292164Y0332159D01*
X0292315Y0332189D01*
X0292443Y0332275D01*
X029269Y0332377D01*
X0292878Y0332566D01*
X0293006Y0332651D01*
X0293092Y033278D01*
X029328Y0332968D01*
X0293382Y0333214D01*
X0293468Y0333342D01*
X0293498Y0333494D01*
X02936Y033374D01*
Y0334006D01*
X029363Y0334157D01*
Y0342275D01*
X0295885Y034453D01*
X0296685Y0343916D01*
X0296273Y0343201D01*
X0296Y0342184D01*
Y0341131D01*
X0296273Y0340113D01*
X0296799Y0339201D01*
X0297544Y0338457D01*
X0298456Y033793D01*
X0299473Y0337657D01*
X0300527D01*
X0301544Y033793D01*
X0302456Y0338457D01*
X0303201Y0339201D01*
X0303727Y0340113D01*
X0304Y0341131D01*
Y0342184D01*
X0303727Y0343201D01*
X0303201Y0344113D01*
X0302456Y0344858D01*
X0301544Y0345385D01*
X0300527Y0345657D01*
X0299473D01*
X0298456Y0345385D01*
X0297741Y0344972D01*
X0297127Y0345773D01*
X029911Y0347755D01*
X0299473Y0347657D01*
X0300527D01*
X0301544Y034793D01*
X0302456Y0348457D01*
X0303201Y0349201D01*
X0303727Y0350114D01*
X0304Y0351131D01*
Y0352184D01*
X0303727Y0353201D01*
X0303201Y0354114D01*
X0302456Y0354858D01*
X0301544Y0355385D01*
X0300527Y0355658D01*
D02*
G37*
G36*
X0010527D02*
X0009473D01*
X0008456Y0355385D01*
X0007544Y0354858D01*
X0006799Y0354114D01*
X0006273Y0353201D01*
X0006Y0352184D01*
Y0351131D01*
X0006273Y0350114D01*
X0006799Y0349201D01*
X0007544Y0348457D01*
X0008456Y034793D01*
X0009473Y0347657D01*
X0010527D01*
X0011544Y034793D01*
X0012456Y0348457D01*
X0013201Y0349201D01*
X0013727Y0350114D01*
X0014Y0351131D01*
Y0352184D01*
X0013727Y0353201D01*
X0013201Y0354114D01*
X0012456Y0354858D01*
X0011544Y0355385D01*
X0010527Y0355658D01*
D02*
G37*
G36*
X0072487Y0348354D02*
X0071513D01*
X0070573Y0348102D01*
X006973Y0347616D01*
X0069042Y0346927D01*
X0068555Y0346084D01*
X0068303Y0345144D01*
Y0344171D01*
X0068555Y0343231D01*
X0069042Y0342388D01*
X006973Y0341699D01*
X0070573Y0341213D01*
X0071513Y0340961D01*
X0072487D01*
X0073427Y0341213D01*
X007427Y0341699D01*
X0074958Y0342388D01*
X0075445Y0343231D01*
X0075697Y0344171D01*
Y0345144D01*
X0075445Y0346084D01*
X0074958Y0346927D01*
X007427Y0347616D01*
X0073427Y0348102D01*
X0072487Y0348354D01*
D02*
G37*
G36*
X0252487Y0348354D02*
X0251513D01*
X0250573Y0348102D01*
X024973Y0347616D01*
X0249042Y0346927D01*
X0248555Y0346084D01*
X0248303Y0345144D01*
Y0344171D01*
X0248555Y0343231D01*
X0249042Y0342388D01*
X024973Y0341699D01*
X0250573Y0341213D01*
X0251513Y0340961D01*
X0252487D01*
X0253427Y0341213D01*
X025427Y0341699D01*
X0254958Y0342388D01*
X0255445Y0343231D01*
X0255697Y0344171D01*
Y0345144D01*
X0255445Y0346084D01*
X0254958Y0346927D01*
X025427Y0347616D01*
X0253427Y0348102D01*
X0252487Y0348354D01*
D02*
G37*
G36*
X0274039Y0347446D02*
X0267461D01*
Y0340868D01*
X0274039D01*
Y0347446D01*
D02*
G37*
G36*
X0010527Y0345657D02*
X0009473D01*
X0008456Y0345385D01*
X0007544Y0344858D01*
X0006799Y0344113D01*
X0006273Y0343201D01*
X0006Y0342184D01*
Y0341131D01*
X0006273Y0340113D01*
X0006799Y0339201D01*
X0007544Y0338457D01*
X0008456Y033793D01*
X0009473Y0337657D01*
X0010527D01*
X0011544Y033793D01*
X0012456Y0338457D01*
X0013201Y0339201D01*
X0013727Y0340113D01*
X0014Y0341131D01*
Y0342184D01*
X0013727Y0343201D01*
X0013201Y0344113D01*
X0012456Y0344858D01*
X0011544Y0345385D01*
X0010527Y0345657D01*
D02*
G37*
G36*
X0252487Y0338354D02*
X0251513D01*
X0250573Y0338102D01*
X024973Y0337616D01*
X0249698Y0337584D01*
X0249132Y0337697D01*
X0157D01*
X015622Y0337541D01*
X0155558Y0337099D01*
X0134058Y0315599D01*
X0133616Y0314938D01*
X0133461Y0314158D01*
Y0287749D01*
X013323Y0287616D01*
X0132542Y0286927D01*
X0132055Y0286084D01*
X0131803Y0285144D01*
Y0284171D01*
X0132055Y028323D01*
X0132542Y0282388D01*
X013323Y0281699D01*
X0134073Y0281213D01*
X0135013Y0280961D01*
X0135987D01*
X0136927Y0281213D01*
X013777Y0281699D01*
X0138458Y0282388D01*
X0138945Y028323D01*
X0139197Y0284171D01*
Y0285144D01*
X0138945Y0286084D01*
X0138458Y0286927D01*
X013777Y0287616D01*
X0137539Y0287749D01*
Y0313313D01*
X0157845Y0333618D01*
X0248409D01*
X024846Y0333584D01*
X0248555Y033323D01*
X0249042Y0332388D01*
X024973Y0331699D01*
X0250573Y0331213D01*
X0251513Y0330961D01*
X0252487D01*
X0253427Y0331213D01*
X025427Y0331699D01*
X0254958Y0332388D01*
X0255445Y033323D01*
X0255697Y0334171D01*
Y0335144D01*
X0255445Y0336084D01*
X0254958Y0336927D01*
X025427Y0337616D01*
X0253427Y0338102D01*
X0252487Y0338354D01*
D02*
G37*
G36*
X0072487D02*
X0071513D01*
X0070573Y0338102D01*
X006973Y0337616D01*
X0069042Y0336927D01*
X0068555Y0336084D01*
X0068303Y0335144D01*
Y0334171D01*
X0068555Y033323D01*
X0069042Y0332388D01*
X006973Y0331699D01*
X0070573Y0331213D01*
X0071513Y0330961D01*
X0072487D01*
X0073427Y0331213D01*
X007427Y0331699D01*
X0074958Y0332388D01*
X0075445Y033323D01*
X0075697Y0334171D01*
Y0335144D01*
X0075445Y0336084D01*
X0074958Y0336927D01*
X007427Y0337616D01*
X0073427Y0338102D01*
X0072487Y0338354D01*
D02*
G37*
G36*
X0062527Y0338657D02*
X0061473D01*
X0060456Y0338385D01*
X0059544Y0337858D01*
X0058799Y0337113D01*
X0058273Y0336201D01*
X0058Y0335184D01*
Y0334131D01*
X0058273Y0333114D01*
X0058799Y0332201D01*
X0059544Y0331457D01*
X0060456Y033093D01*
X0061473Y0330658D01*
X0062527D01*
X0063544Y033093D01*
X0064456Y0331457D01*
X0065201Y0332201D01*
X0065727Y0333114D01*
X0066Y0334131D01*
Y0335184D01*
X0065727Y0336201D01*
X0065201Y0337113D01*
X0064456Y0337858D01*
X0063544Y0338385D01*
X0062527Y0338657D01*
D02*
G37*
G36*
X021Y0332288D02*
X018D01*
X0179849Y0332258D01*
X0179582D01*
X0179336Y0332155D01*
X0179185Y0332125D01*
X0179057Y033204D01*
X017881Y0331938D01*
X0178622Y0331749D01*
X0178494Y0331664D01*
X017849Y033166D01*
X0178404Y0331531D01*
X017822Y0331347D01*
X017812Y0331106D01*
X0178028Y0330968D01*
X0177996Y0330806D01*
X01779Y0330575D01*
Y0330325D01*
X0177866Y0330153D01*
X01779Y0329981D01*
Y032974D01*
X0177992Y0329517D01*
X0178028Y0329338D01*
X0178129Y0329187D01*
X017822Y0328968D01*
X0178387Y03288D01*
X017849Y0328647D01*
X0178643Y0328545D01*
X017881Y0328377D01*
X0179029Y0328287D01*
X0179181Y0328185D01*
X0179359Y032815D01*
X0179582Y0328058D01*
X0179824D01*
X0179996Y0328023D01*
X0180017Y0328027D01*
X021D01*
X0210151Y0328058D01*
X0210418D01*
X0210664Y0328159D01*
X0210815Y0328189D01*
X0210943Y0328275D01*
X021119Y0328377D01*
X0211378Y0328566D01*
X0211506Y0328651D01*
X0211592Y032878D01*
X021178Y0328968D01*
X0211882Y0329214D01*
X0211968Y0329342D01*
X0211998Y0329494D01*
X02121Y032974D01*
Y0330006D01*
X021213Y0330157D01*
X02121Y0330309D01*
Y0330575D01*
X0211998Y0330821D01*
X0211968Y0330973D01*
X0211882Y0331101D01*
X021178Y0331347D01*
X0211592Y0331536D01*
X0211506Y0331664D01*
X0211378Y0331749D01*
X021119Y0331938D01*
X0210943Y033204D01*
X0210815Y0332125D01*
X0210664Y0332155D01*
X0210418Y0332258D01*
X0210151D01*
X021Y0332288D01*
D02*
G37*
G36*
X0300527Y0335658D02*
X0299473D01*
X0298456Y0335385D01*
X0297544Y0334858D01*
X0296799Y0334114D01*
X0296273Y0333201D01*
X0296Y0332184D01*
Y0331131D01*
X0296023Y0331044D01*
X029532Y0330197D01*
X02555D01*
X025472Y0330041D01*
X0254058Y0329599D01*
X0252813Y0328354D01*
X0248303D01*
Y0326697D01*
X0184054D01*
X0183274Y0326541D01*
X0182612Y0326099D01*
X018055Y0324037D01*
X018031Y0323938D01*
X017972Y0323347D01*
X01794Y0322575D01*
Y032174D01*
X017972Y0320968D01*
X018031Y0320377D01*
X0181082Y0320058D01*
X0181918D01*
X018269Y0320377D01*
X018328Y0320968D01*
X0183303Y0321022D01*
X0184899Y0322618D01*
X0248303D01*
Y0320961D01*
X0255697D01*
Y032547D01*
X0256345Y0326118D01*
X0261077D01*
X0261491Y0325118D01*
X026122Y0324847D01*
X02609Y0324075D01*
Y032324D01*
X026122Y0322468D01*
X026181Y0321877D01*
X026205Y0321778D01*
X0263612Y0320216D01*
X0264274Y0319774D01*
X0265054Y0319618D01*
X0296558D01*
X0296799Y0319201D01*
X0297544Y0318457D01*
X0298456Y031793D01*
X0299473Y0317657D01*
X0300527D01*
X0301544Y031793D01*
X0302456Y0318457D01*
X0303201Y0319201D01*
X0303727Y0320113D01*
X0304Y0321131D01*
Y0322184D01*
X0303727Y0323201D01*
X0303201Y0324113D01*
X0302456Y0324858D01*
X0301544Y0325385D01*
X0300527Y0325658D01*
X0299473D01*
X0298456Y0325385D01*
X0297544Y0324858D01*
X0296799Y0324113D01*
X0296558Y0323697D01*
X0265899D01*
X0264803Y0324793D01*
X026478Y0324847D01*
X0264509Y0325118D01*
X0264923Y0326118D01*
X02965D01*
X029728Y0326273D01*
X0297942Y0326716D01*
X0299008Y0327782D01*
X0299473Y0327658D01*
X0300527D01*
X0301544Y032793D01*
X0302456Y0328457D01*
X0303201Y0329201D01*
X0303727Y0330114D01*
X0304Y0331131D01*
Y0332184D01*
X0303727Y0333201D01*
X0303201Y0334114D01*
X0302456Y0334858D01*
X0301544Y0335385D01*
X0300527Y0335658D01*
D02*
G37*
G36*
X0023678Y0326134D02*
X0022763D01*
X0021879Y0325897D01*
X0021086Y0325439D01*
X0020439Y0324792D01*
X0020236Y0324442D01*
X0017878D01*
Y0326035D01*
X0011122D01*
Y031928D01*
X0017878D01*
Y0320873D01*
X0020236D01*
X0020439Y0320523D01*
X0021086Y0319876D01*
X0021879Y0319418D01*
X0022763Y0319181D01*
X0023678D01*
X0024562Y0319418D01*
X0025355Y0319876D01*
X0026002Y0320523D01*
X002646Y0321316D01*
X0026697Y03222D01*
Y0323115D01*
X002646Y0323999D01*
X0026002Y0324792D01*
X0025355Y0325439D01*
X0024562Y0325897D01*
X0023678Y0326134D01*
D02*
G37*
G36*
X0023678Y0306634D02*
X0022763D01*
X0021879Y0306397D01*
X0021086Y0305939D01*
X0020439Y0305292D01*
X0020384Y0305197D01*
X0017781D01*
Y0306535D01*
X0011025D01*
Y029978D01*
X0017781D01*
Y0301118D01*
X0020384D01*
X0020439Y0301023D01*
X0021086Y0300376D01*
X0021879Y0299918D01*
X0022763Y0299681D01*
X0023678D01*
X0024562Y0299918D01*
X0025355Y0300376D01*
X0026002Y0301023D01*
X002646Y0301816D01*
X0026697Y03027D01*
Y0303615D01*
X002646Y0304499D01*
X0026002Y0305292D01*
X0025355Y0305939D01*
X0024562Y0306397D01*
X0023678Y0306634D01*
D02*
G37*
G36*
X0300527Y0305658D02*
X03005D01*
Y0302157D01*
X0304D01*
Y0302184D01*
X0303727Y0303201D01*
X0303201Y0304114D01*
X0302456Y0304858D01*
X0301544Y0305385D01*
X0300527Y0305658D01*
D02*
G37*
G36*
X02995D02*
X0299473D01*
X0298456Y0305385D01*
X0297544Y0304858D01*
X0296799Y0304114D01*
X0296273Y0303201D01*
X0296Y0302184D01*
Y0302157D01*
X02995D01*
Y0305658D01*
D02*
G37*
G36*
X0072487Y0308354D02*
X0071513D01*
X0070573Y0308102D01*
X006973Y0307616D01*
X0069042Y0306927D01*
X0068555Y0306084D01*
X0068303Y0305144D01*
Y0304171D01*
X0068555Y0303231D01*
X0069042Y0302388D01*
X006973Y0301699D01*
X0070573Y0301213D01*
X0071513Y0300961D01*
X0072487D01*
X0073427Y0301213D01*
X007427Y0301699D01*
X0074958Y0302388D01*
X0075445Y0303231D01*
X0075697Y0304171D01*
Y0305144D01*
X0075445Y0306084D01*
X0074958Y0306927D01*
X007427Y0307616D01*
X0073427Y0308102D01*
X0072487Y0308354D01*
D02*
G37*
G36*
X0253Y0311288D02*
X01805D01*
X0179685Y0311125D01*
X0178994Y0310664D01*
X0168408Y0300078D01*
X0167561Y0300645D01*
X01676Y030074D01*
Y0301575D01*
X016728Y0302347D01*
X016669Y0302938D01*
X0165918Y0303257D01*
X0165082D01*
X016431Y0302938D01*
X016372Y0302347D01*
X0163659Y03022D01*
X0154058Y0292599D01*
X0153616Y0291938D01*
X0153461Y0291158D01*
Y0287749D01*
X015323Y0287616D01*
X0152542Y0286927D01*
X0152055Y0286084D01*
X0151803Y0285144D01*
Y0284171D01*
X0152055Y028323D01*
X0152542Y0282388D01*
X015323Y0281699D01*
X0154073Y0281213D01*
X0155013Y0280961D01*
X0155987D01*
X0156927Y0281213D01*
X015777Y0281699D01*
X0158458Y0282388D01*
X0158945Y028323D01*
X0159197Y0284171D01*
Y0285144D01*
X0158945Y0286084D01*
X0158458Y0286927D01*
X015777Y0287616D01*
X0157539Y0287749D01*
Y0290313D01*
X016235Y0295124D01*
X0162546Y0295089D01*
X016337Y0294158D01*
Y0287696D01*
X016323Y0287616D01*
X0162542Y0286927D01*
X0162055Y0286084D01*
X0161803Y0285144D01*
Y0284171D01*
X0162055Y028323D01*
X0162542Y0282388D01*
X016323Y0281699D01*
X016337Y0281618D01*
Y0273158D01*
Y0266495D01*
X0163364D01*
X0163352Y0266465D01*
X0163322Y0266453D01*
Y0266447D01*
X0161589D01*
X0161517Y0266432D01*
X0160498Y0266298D01*
X0159482Y0265877D01*
X0158609Y0265207D01*
X0157939Y0264335D01*
X0157518Y0263318D01*
X0157384Y02623D01*
X015737Y0262227D01*
X0157384Y0262155D01*
X0157518Y0261137D01*
X0157939Y026012D01*
X0158609Y0259247D01*
X0159482Y0258578D01*
Y0257521D01*
X0158609Y0256851D01*
X0157939Y0255978D01*
X0157518Y0254961D01*
X0157384Y0253943D01*
X015737Y0253871D01*
X0157384Y0253798D01*
X0157518Y025278D01*
X0157939Y0251764D01*
X0158609Y0250891D01*
X0159482Y0250221D01*
Y0249164D01*
X0158609Y0248494D01*
X0157939Y0247621D01*
X0157518Y0246605D01*
X0157384Y0245587D01*
X015737Y0245514D01*
X0157384Y0245442D01*
X0157518Y0244423D01*
X0157939Y0243407D01*
X0158609Y0242534D01*
X0159482Y0241864D01*
X0160498Y0241443D01*
X0161517Y0241309D01*
X0161589Y0241295D01*
X0163322D01*
Y0241289D01*
X0163352Y0241277D01*
X0163364Y0241247D01*
X016337D01*
Y0240158D01*
Y023304D01*
X0147618Y0217288D01*
X00995D01*
X0099349Y0217257D01*
X0099082D01*
X0098836Y0217156D01*
X0098685Y0217125D01*
X0098557Y021704D01*
X0098311Y0216938D01*
X0098122Y0216749D01*
X0097994Y0216664D01*
X0097908Y0216535D01*
X009772Y0216347D01*
X0097618Y0216101D01*
X0097532Y0215973D01*
X0097502Y0215821D01*
X00974Y0215575D01*
Y0215309D01*
X009737Y0215158D01*
X00974Y0215006D01*
Y021474D01*
X0097502Y0214494D01*
X0097532Y0214342D01*
X0097618Y0214214D01*
X009772Y0213968D01*
X0097908Y0213779D01*
X0097994Y0213651D01*
X0098122Y0213566D01*
X0098311Y0213377D01*
X0098557Y0213275D01*
X0098685Y021319D01*
X0098836Y0213159D01*
X0099082Y0213057D01*
X0099349D01*
X00995Y0213027D01*
X01485D01*
X0149315Y021319D01*
X0150006Y0213651D01*
X0167006Y0230651D01*
X0167468Y0231342D01*
X016763Y0232157D01*
Y0240158D01*
Y0241247D01*
X0167618Y0241308D01*
X0167479Y0242361D01*
X0167049Y0243399D01*
X0166365Y024429D01*
X0166127Y0244473D01*
X0166466Y0245473D01*
X0168822D01*
X0168894Y0245488D01*
X0169912Y0245622D01*
X0170929Y0246043D01*
X0171802Y0246712D01*
X0172471Y0247585D01*
X0172892Y0248602D01*
X0173027Y024962D01*
X0173041Y0249693D01*
X0173027Y0249765D01*
X0172892Y0250783D01*
X0172471Y02518D01*
X0171802Y0252673D01*
X0171157Y0253167D01*
X0171144Y0253968D01*
X0171254Y025429D01*
X0171518Y0254399D01*
X0172391Y0255069D01*
X0173061Y0255942D01*
X0173482Y0256958D01*
X0173616Y0257977D01*
X017363Y0258049D01*
X0173616Y0258122D01*
X0173482Y025914D01*
X0173061Y0260156D01*
X0172391Y0261029D01*
X0171518Y0261699D01*
X0170502Y026212D01*
X0169483Y0262254D01*
X0169411Y0262268D01*
X0166466D01*
X0166127Y0263268D01*
X0166365Y0263451D01*
X0167049Y0264343D01*
X0167479Y0265381D01*
X0167618Y0266434D01*
X016763Y0266495D01*
Y0273158D01*
Y0281618D01*
X016777Y0281699D01*
X0168458Y0282388D01*
X0168945Y028323D01*
X0169197Y0284171D01*
Y0285144D01*
X0168945Y0286084D01*
X0168458Y0286927D01*
X016777Y0287616D01*
X016763Y0287696D01*
Y0293275D01*
X0181382Y0307027D01*
X0253D01*
X0253151Y0307057D01*
X0253418D01*
X0253664Y0307159D01*
X0253815Y0307189D01*
X0253943Y0307275D01*
X025419Y0307377D01*
X0254378Y0307566D01*
X0254506Y0307651D01*
X0254592Y030778D01*
X025478Y0307968D01*
X0254882Y0308214D01*
X0254968Y0308342D01*
X0254998Y0308494D01*
X02551Y030874D01*
Y0309006D01*
X025513Y0309157D01*
X02551Y0309309D01*
Y0309575D01*
X0254998Y0309821D01*
X0254968Y0309973D01*
X0254882Y0310101D01*
X025478Y0310347D01*
X0254592Y0310536D01*
X0254506Y0310664D01*
X0254378Y0310749D01*
X025419Y0310938D01*
X0253943Y031104D01*
X0253815Y0311125D01*
X0253664Y0311156D01*
X0253418Y0311258D01*
X0253151D01*
X0253Y0311288D01*
D02*
G37*
G36*
X0304Y0301157D02*
X03005D01*
Y0297657D01*
X0300527D01*
X0301544Y029793D01*
X0302456Y0298457D01*
X0303201Y0299201D01*
X0303727Y0300114D01*
X0304Y0301131D01*
Y0301157D01*
D02*
G37*
G36*
X02995D02*
X0296D01*
Y0301131D01*
X0296273Y0300114D01*
X0296799Y0299201D01*
X0297544Y0298457D01*
X0298456Y029793D01*
X0299473Y0297657D01*
X02995D01*
Y0301157D01*
D02*
G37*
G36*
X0107418Y0291757D02*
X0106582D01*
X010582Y0291442D01*
X010568D01*
X0104918Y0291757D01*
X0104082D01*
X010331Y0291438D01*
X010272Y0290847D01*
X01024Y0290075D01*
Y0289891D01*
X0102238Y028973D01*
X0101851Y0289151D01*
X0101716Y0288468D01*
Y0271862D01*
X0101365Y027166D01*
X0100718Y0271012D01*
X010026Y027022D01*
X0100024Y0269336D01*
Y026842D01*
X010026Y0267536D01*
X0100718Y0266743D01*
X0101365Y0266096D01*
X0102158Y0265638D01*
X0103042Y0265402D01*
X0103958D01*
X0104842Y0265638D01*
X0105634Y0266096D01*
X0106282Y0266743D01*
X0106739Y0267536D01*
X0106964Y0268373D01*
X0112038D01*
X0112415Y0267721D01*
X0113154Y0266982D01*
X0114059Y0266459D01*
X0115068Y0266189D01*
X0116113D01*
X0117122Y0266459D01*
X0118027Y0266982D01*
X0118766Y0267721D01*
X0119289Y0268626D01*
X0119559Y0269635D01*
Y027068D01*
X0119289Y0271689D01*
X0118766Y0272594D01*
X0118027Y0273333D01*
X0117122Y0273855D01*
X0116113Y0274126D01*
X0115068D01*
X0114059Y0273855D01*
X0113154Y0273333D01*
X0112415Y0272594D01*
X0112038Y0271942D01*
X0105714D01*
X0105714Y0271942D01*
X0105284Y0272876D01*
Y0287102D01*
X0106284Y0287681D01*
X0106582Y0287558D01*
X0107418D01*
X010819Y0287877D01*
X010878Y0288468D01*
X01091Y028924D01*
Y0290075D01*
X010878Y0290847D01*
X010819Y0291438D01*
X0107418Y0291757D01*
D02*
G37*
G36*
X0072487Y0298354D02*
X0071513D01*
X0070573Y0298102D01*
X006973Y0297616D01*
X0069042Y0296927D01*
X0068555Y0296084D01*
X0068303Y0295144D01*
Y0294171D01*
X0068555Y0293231D01*
X0069042Y0292388D01*
X006973Y0291699D01*
X0070573Y0291213D01*
X0071513Y0290961D01*
X0072487D01*
X0073427Y0291213D01*
X007427Y0291699D01*
X0074958Y0292388D01*
X0075445Y0293231D01*
X0075697Y0294171D01*
Y0295144D01*
X0075445Y0296084D01*
X0074958Y0296927D01*
X007427Y0297616D01*
X0073427Y0298102D01*
X0072487Y0298354D01*
D02*
G37*
G36*
X0295688Y0297707D02*
X0191D01*
X0190024Y0297512D01*
X0189198Y029696D01*
X0184156Y0291918D01*
X0183603Y0291091D01*
X0183409Y0290115D01*
Y0287719D01*
X018323Y0287616D01*
X0182542Y0286927D01*
X0182055Y0286084D01*
X0181803Y0285144D01*
Y0284171D01*
X0182055Y028323D01*
X0182542Y0282388D01*
X018323Y0281699D01*
X0184073Y0281213D01*
X0185013Y0280961D01*
X0185592D01*
X0205451Y0261102D01*
Y0258254D01*
X0205385Y0258206D01*
X0204451Y0257909D01*
X0203937Y0258424D01*
X0203032Y0258946D01*
X0202023Y0259216D01*
X0200977D01*
X0199968Y0258946D01*
X0199063Y0258424D01*
X0198324Y0257685D01*
X0197802Y025678D01*
X0197531Y025577D01*
Y0254726D01*
X0197802Y0253716D01*
X0198324Y0252811D01*
X0199063Y0252072D01*
X0199968Y025155D01*
X0200977Y0251279D01*
X0201603D01*
X0202017Y0250279D01*
X0201698Y024996D01*
X0201145Y0249133D01*
X0200951Y0248158D01*
Y0242657D01*
X0201145Y0241682D01*
X0201698Y0240855D01*
X0202403Y024015D01*
X0202122Y0239462D01*
X0201922Y0239216D01*
X0200977D01*
X0199968Y0238946D01*
X0199063Y0238424D01*
X0198324Y0237685D01*
X0197802Y023678D01*
X0197531Y0235771D01*
Y0234726D01*
X0197802Y0233716D01*
X0198324Y0232811D01*
X0199063Y0232072D01*
X0199968Y023155D01*
X0200977Y0231279D01*
X0202023D01*
X0203032Y023155D01*
X0203937Y0232072D01*
X0204676Y0232811D01*
X0205198Y0233716D01*
X0205469Y0234726D01*
Y0235336D01*
X0206403Y0235828D01*
X0206951Y0235395D01*
Y0228213D01*
X0186444Y0207706D01*
X01255D01*
X0124524Y0207512D01*
X0123698Y020696D01*
X0118444Y0201707D01*
X0019556D01*
X0017302Y020396D01*
X0016476Y0204512D01*
X00155Y0204707D01*
X0014525Y0204512D01*
X0013698Y020396D01*
X0013145Y0203133D01*
X0012951Y0202157D01*
Y0199158D01*
X0013145Y0198182D01*
X0013698Y0197355D01*
X0014525Y0196802D01*
X00155Y0196608D01*
X01195D01*
X0120475Y0196802D01*
X0121302Y0197355D01*
X0126556Y0202608D01*
X01875D01*
X0188476Y0202802D01*
X0189302Y0203355D01*
X0211302Y0225355D01*
X0211855Y0226182D01*
X0212049Y0227157D01*
Y0236658D01*
X0211855Y0237633D01*
X0211302Y023846D01*
X0206049Y0243713D01*
Y0244275D01*
X0206334Y0245157D01*
X0207024Y02452D01*
X0207039Y0245144D01*
X020726Y0244316D01*
X0207718Y0243523D01*
X0208366Y0242876D01*
X0209158Y0242418D01*
X0210042Y0242181D01*
X0210958D01*
X0211842Y0242418D01*
X0212634Y0242876D01*
X0213282Y0243523D01*
X0213739Y0244316D01*
X0213976Y02452D01*
Y0246115D01*
X0213739Y0246999D01*
X0213282Y0247792D01*
X0212634Y0248439D01*
X0211842Y0248897D01*
X0210958Y0249134D01*
X0210042D01*
X0209085Y0249913D01*
X0209054Y0250107D01*
X0209802Y0250855D01*
X0210355Y0251682D01*
X0210549Y0252658D01*
Y0262158D01*
X0210355Y0263133D01*
X0209802Y026396D01*
X0193201Y0280561D01*
X0193815Y0281362D01*
X0194073Y0281213D01*
X0195013Y0280961D01*
X0195987D01*
X0196927Y0281213D01*
X019777Y0281699D01*
X0198458Y0282388D01*
X0198945Y028323D01*
X0199197Y0284171D01*
Y0285144D01*
X0198945Y0286084D01*
X0198458Y0286927D01*
X019777Y0287616D01*
X0196927Y0288102D01*
X0195987Y0288354D01*
X0195013D01*
X0194073Y0288102D01*
X019323Y0287616D01*
X0192542Y0286927D01*
X0192055Y0286084D01*
X0191803Y0285144D01*
Y0284171D01*
X0192055Y028323D01*
X0192204Y0282972D01*
X0191404Y0282358D01*
X0189197Y0284565D01*
Y0285144D01*
X0188945Y0286084D01*
X0188507Y0286843D01*
Y028906D01*
X0192056Y0292608D01*
X0294632D01*
X0296Y0291241D01*
Y0291131D01*
X0296273Y0290113D01*
X0296799Y0289201D01*
X0297544Y0288457D01*
X0298456Y028793D01*
X0299473Y0287657D01*
X0300527D01*
X0301544Y028793D01*
X0302456Y0288457D01*
X0303201Y0289201D01*
X0303727Y0290113D01*
X0304Y0291131D01*
Y0292184D01*
X0303727Y0293201D01*
X0303201Y0294113D01*
X0302456Y0294858D01*
X0301544Y0295385D01*
X0300527Y0295657D01*
X0299473D01*
X0298937Y0295514D01*
X0297491Y029696D01*
X0296664Y0297512D01*
X0295688Y0297707D01*
D02*
G37*
G36*
X0023678Y0287134D02*
X0022763D01*
X0021879Y0286897D01*
X0021086Y0286439D01*
X0020439Y0285792D01*
X0020095Y0285197D01*
X0017684D01*
Y0287035D01*
X0010928D01*
Y0280279D01*
X0017684D01*
Y0281118D01*
X0020843D01*
X0021086Y0280876D01*
X0021879Y0280418D01*
X0022763Y0280181D01*
X0023678D01*
X0024562Y0280418D01*
X0025355Y0280876D01*
X0026002Y0281523D01*
X002646Y0282316D01*
X0026697Y02832D01*
Y0284115D01*
X002646Y0284999D01*
X0026002Y0285792D01*
X0025355Y0286439D01*
X0024562Y0286897D01*
X0023678Y0287134D01*
D02*
G37*
G36*
X0253Y0305288D02*
X01865D01*
X0185685Y0305125D01*
X0184994Y0304664D01*
X0173994Y0293664D01*
X0173532Y0292973D01*
X017337Y0292158D01*
Y0287696D01*
X017323Y0287616D01*
X0172542Y0286927D01*
X0172055Y0286084D01*
X0171803Y0285144D01*
Y0284171D01*
X0172055Y028323D01*
X0172542Y0282388D01*
X017323Y0281699D01*
X0174073Y0281213D01*
X0175013Y0280961D01*
X0175987D01*
X0176927Y0281213D01*
X017777Y0281699D01*
X0178458Y0282388D01*
X0178945Y028323D01*
X0179197Y0284171D01*
Y0285144D01*
X0178945Y0286084D01*
X0178458Y0286927D01*
X017777Y0287616D01*
X017763Y0287696D01*
Y0291275D01*
X0187382Y0301027D01*
X0253D01*
X0253151Y0301058D01*
X0253418D01*
X0253664Y030116D01*
X0253815Y0301189D01*
X0253943Y0301275D01*
X025419Y0301377D01*
X0254378Y0301566D01*
X0254506Y0301651D01*
X0254592Y030178D01*
X025478Y0301968D01*
X0254882Y0302214D01*
X0254968Y0302342D01*
X0254998Y0302494D01*
X02551Y030274D01*
Y0303006D01*
X025513Y0303157D01*
X02551Y0303309D01*
Y0303575D01*
X0254998Y0303821D01*
X0254968Y0303973D01*
X0254882Y0304101D01*
X025478Y0304347D01*
X0254592Y0304536D01*
X0254506Y0304664D01*
X0254378Y0304749D01*
X025419Y0304938D01*
X0253943Y030504D01*
X0253815Y0305125D01*
X0253664Y0305155D01*
X0253418Y0305258D01*
X0253151D01*
X0253Y0305288D01*
D02*
G37*
G36*
X0136113Y0274126D02*
X0135068D01*
X0134059Y0273855D01*
X0133154Y0273333D01*
X0132415Y0272594D01*
X0131893Y0271689D01*
X0131622Y027068D01*
Y0269635D01*
X0131893Y0268626D01*
X0132415Y0267721D01*
X0133154Y0266982D01*
X0134059Y0266459D01*
X0135068Y0266189D01*
X0136113D01*
X0137122Y0266459D01*
X0138027Y0266982D01*
X0138766Y0267721D01*
X0139289Y0268626D01*
X0139559Y0269635D01*
Y027068D01*
X0139289Y0271689D01*
X0138766Y0272594D01*
X0138027Y0273333D01*
X0137122Y0273855D01*
X0136113Y0274126D01*
D02*
G37*
G36*
X0023678Y0267134D02*
X0022763D01*
X0021879Y0266897D01*
X0021086Y0266439D01*
X0020439Y0265792D01*
X0020384Y0265697D01*
X0017702D01*
Y0267035D01*
X0010946D01*
Y0260279D01*
X0017702D01*
Y0261618D01*
X0020384D01*
X0020439Y0261523D01*
X0021086Y0260876D01*
X0021879Y0260418D01*
X0022763Y0260181D01*
X0023678D01*
X0024562Y0260418D01*
X0025355Y0260876D01*
X0026002Y0261523D01*
X002646Y0262316D01*
X0026697Y02632D01*
Y0264115D01*
X002646Y0264999D01*
X0026002Y0265792D01*
X0025355Y0266439D01*
X0024562Y0266897D01*
X0023678Y0267134D01*
D02*
G37*
G36*
X0292022Y0273035D02*
X0290978D01*
X0289968Y0272765D01*
X0289063Y0272242D01*
X0288324Y0271504D01*
X0287802Y0270599D01*
X0287531Y0269589D01*
Y0268545D01*
X0287802Y0267535D01*
X0288324Y026663D01*
X0289063Y0265891D01*
X0289968Y0265369D01*
X0290978Y0265098D01*
X0292022D01*
X0293032Y0265369D01*
X0293937Y0265891D01*
X0294676Y026663D01*
X0295198Y0267535D01*
X0295468Y0268545D01*
Y0269589D01*
X0295198Y0270599D01*
X0294676Y0271504D01*
X0293937Y0272242D01*
X0293032Y0272765D01*
X0292022Y0273035D01*
D02*
G37*
G36*
X0072487Y0268354D02*
X0071513D01*
X0070573Y0268102D01*
X006973Y0267616D01*
X0069042Y0266927D01*
X0068555Y0266084D01*
X0068303Y0265144D01*
Y0264171D01*
X0068555Y026323D01*
X0069042Y0262388D01*
X006973Y0261699D01*
X0070573Y0261213D01*
X0071513Y0260961D01*
X0072487D01*
X0073427Y0261213D01*
X007427Y0261699D01*
X0074958Y0262388D01*
X0075445Y026323D01*
X0075697Y0264171D01*
Y0265144D01*
X0075445Y0266084D01*
X0074958Y0266927D01*
X007427Y0267616D01*
X0073427Y0268102D01*
X0072487Y0268354D01*
D02*
G37*
G36*
X0116113Y0264126D02*
X0115068D01*
X0114059Y0263856D01*
X0113154Y0263333D01*
X0112415Y0262594D01*
X0111892Y0261689D01*
X0111622Y026068D01*
Y0259635D01*
X0111892Y0258626D01*
X0112415Y0257721D01*
X0113154Y0256982D01*
X0114059Y0256459D01*
X0115068Y0256189D01*
X0116113D01*
X0117122Y0256459D01*
X0118027Y0256982D01*
X0118766Y0257721D01*
X0119289Y0258626D01*
X0119559Y0259635D01*
Y026068D01*
X0119289Y0261689D01*
X0118766Y0262594D01*
X0118027Y0263333D01*
X0117122Y0263856D01*
X0116113Y0264126D01*
D02*
G37*
G36*
X0249522Y0259216D02*
X0248478D01*
X0247468Y0258946D01*
X0246563Y0258424D01*
X0245824Y0257685D01*
X0245302Y025678D01*
X0245031Y025577D01*
Y0254726D01*
X0245302Y0253716D01*
X0245824Y0252811D01*
X0246563Y0252072D01*
X0247468Y025155D01*
X0248478Y0251279D01*
X0249522D01*
X0250532Y025155D01*
X0251437Y0252072D01*
X0252176Y0252811D01*
X0252698Y0253716D01*
X0252969Y0254726D01*
Y025577D01*
X0252698Y025678D01*
X0252176Y0257685D01*
X0251437Y0258424D01*
X0250532Y0258946D01*
X0249522Y0259216D01*
D02*
G37*
G36*
X0230522D02*
X0229478D01*
X0228468Y0258946D01*
X0227563Y0258424D01*
X0226824Y0257685D01*
X0226302Y025678D01*
X0226031Y025577D01*
Y0254726D01*
X0226302Y0253716D01*
X0226824Y0252811D01*
X0227563Y0252072D01*
X0228468Y025155D01*
X0229478Y0251279D01*
X0230522D01*
X0231532Y025155D01*
X0232437Y0252072D01*
X0233176Y0252811D01*
X0233698Y0253716D01*
X0233968Y0254726D01*
Y025577D01*
X0233698Y025678D01*
X0233176Y0257685D01*
X0232437Y0258424D01*
X0231532Y0258946D01*
X0230522Y0259216D01*
D02*
G37*
G36*
X0220522D02*
X0219478D01*
X0218468Y0258946D01*
X0217563Y0258424D01*
X0216824Y0257685D01*
X0216302Y025678D01*
X0216032Y025577D01*
Y0254726D01*
X0216302Y0253716D01*
X0216824Y0252811D01*
X0217563Y0252072D01*
X0218468Y025155D01*
X0219478Y0251279D01*
X0220522D01*
X0221532Y025155D01*
X0222437Y0252072D01*
X0223176Y0252811D01*
X0223698Y0253716D01*
X0223969Y0254726D01*
Y025577D01*
X0223698Y025678D01*
X0223176Y0257685D01*
X0222437Y0258424D01*
X0221532Y0258946D01*
X0220522Y0259216D01*
D02*
G37*
G36*
X0192023D02*
X0190978D01*
X0189968Y0258946D01*
X0189063Y0258424D01*
X0188324Y0257685D01*
X0187802Y025678D01*
X0187531Y025577D01*
Y0254726D01*
X0187802Y0253716D01*
X0188324Y0252811D01*
X0189063Y0252072D01*
X0189968Y025155D01*
X0190978Y0251279D01*
X0192023D01*
X0193032Y025155D01*
X0193937Y0252072D01*
X0194676Y0252811D01*
X0195198Y0253716D01*
X0195468Y0254726D01*
Y025577D01*
X0195198Y025678D01*
X0194676Y0257685D01*
X0193937Y0258424D01*
X0193032Y0258946D01*
X0192023Y0259216D01*
D02*
G37*
G36*
X0072487Y0258354D02*
X0071513D01*
X0070573Y0258102D01*
X006973Y0257616D01*
X0069042Y0256927D01*
X0068555Y0256084D01*
X0068303Y0255144D01*
Y0254171D01*
X0068555Y0253231D01*
X0069042Y0252388D01*
X006973Y0251699D01*
X0070573Y0251213D01*
X0071513Y0250961D01*
X0072487D01*
X0073427Y0251213D01*
X007427Y0251699D01*
X0074958Y0252388D01*
X0075445Y0253231D01*
X0075697Y0254171D01*
Y0255144D01*
X0075445Y0256084D01*
X0074958Y0256927D01*
X007427Y0257616D01*
X0073427Y0258102D01*
X0072487Y0258354D01*
D02*
G37*
G36*
X0023678Y0247634D02*
X0022763D01*
X0021879Y0247397D01*
X0021086Y0246939D01*
X0020439Y0246292D01*
X0020384Y0246197D01*
X001772D01*
Y0247535D01*
X0010965D01*
Y0240779D01*
X001772D01*
Y0242118D01*
X0020384D01*
X0020439Y0242023D01*
X0021086Y0241376D01*
X0021879Y0240918D01*
X0022763Y0240681D01*
X0023678D01*
X0024562Y0240918D01*
X0025355Y0241376D01*
X0026002Y0242023D01*
X002646Y0242816D01*
X0026697Y02437D01*
Y0244615D01*
X002646Y0245499D01*
X0026002Y0246292D01*
X0025355Y0246939D01*
X0024562Y0247397D01*
X0023678Y0247634D01*
D02*
G37*
G36*
X0302023Y0253035D02*
X0300977D01*
X0299968Y0252765D01*
X0299063Y0252242D01*
X0298324Y0251504D01*
X0297802Y0250599D01*
X0297532Y0249589D01*
Y0248545D01*
X0297802Y0247535D01*
X0298324Y024663D01*
X0299063Y0245891D01*
X0299968Y0245369D01*
X0300977Y0245098D01*
X0302023D01*
X0303032Y0245369D01*
X0303937Y0245891D01*
X0304676Y024663D01*
X0305198Y0247535D01*
X0305469Y0248545D01*
Y0249589D01*
X0305198Y0250599D01*
X0304676Y0251504D01*
X0303937Y0252242D01*
X0303032Y0252765D01*
X0302023Y0253035D01*
D02*
G37*
G36*
X0292022D02*
X0290978D01*
X0289968Y0252765D01*
X0289063Y0252242D01*
X0288324Y0251504D01*
X0287802Y0250599D01*
X0287531Y0249589D01*
Y0248545D01*
X0287802Y0247535D01*
X0288324Y024663D01*
X0289063Y0245891D01*
X0289968Y0245369D01*
X0290978Y0245098D01*
X0292022D01*
X0293032Y0245369D01*
X0293937Y0245891D01*
X0294676Y024663D01*
X0295198Y0247535D01*
X0295468Y0248545D01*
Y0249589D01*
X0295198Y0250599D01*
X0294676Y0251504D01*
X0293937Y0252242D01*
X0293032Y0252765D01*
X0292022Y0253035D01*
D02*
G37*
G36*
X0072487Y0248354D02*
X0071513D01*
X0070573Y0248102D01*
X006973Y0247616D01*
X0069042Y0246927D01*
X0068555Y0246084D01*
X0068303Y0245144D01*
Y0244171D01*
X0068555Y0243231D01*
X0069042Y0242388D01*
X006973Y0241699D01*
X0070573Y0241213D01*
X0071513Y0240961D01*
X0072487D01*
X0073427Y0241213D01*
X007427Y0241699D01*
X0074958Y0242388D01*
X0075445Y0243231D01*
X0075697Y0244171D01*
Y0245144D01*
X0075445Y0246084D01*
X0074958Y0246927D01*
X007427Y0247616D01*
X0073427Y0248102D01*
X0072487Y0248354D01*
D02*
G37*
G36*
X0136113Y0246126D02*
X0135068D01*
X0134059Y0245855D01*
X0133154Y0245333D01*
X0132415Y0244594D01*
X0131893Y0243689D01*
X0131622Y024268D01*
Y0241635D01*
X0131893Y0240626D01*
X0132415Y0239721D01*
X0133154Y0238982D01*
X0134059Y0238459D01*
X0135068Y0238189D01*
X0136113D01*
X0137122Y0238459D01*
X0138027Y0238982D01*
X0138766Y0239721D01*
X0139289Y0240626D01*
X0139559Y0241635D01*
Y024268D01*
X0139289Y0243689D01*
X0138766Y0244594D01*
X0138027Y0245333D01*
X0137122Y0245855D01*
X0136113Y0246126D01*
D02*
G37*
G36*
X0103458Y0260413D02*
X0102542D01*
X0101658Y0260176D01*
X0100865Y0259719D01*
X0100218Y0259072D01*
X0099761Y0258279D01*
X0099524Y0257395D01*
Y0256479D01*
X0099761Y0255595D01*
X0100218Y0254802D01*
X0100865Y0254155D01*
X0101658Y0253697D01*
X0102542Y0253461D01*
X0103458D01*
X0103848Y0253565D01*
X0112617Y0244796D01*
X0112415Y0244594D01*
X0111892Y0243689D01*
X0111622Y024268D01*
Y0241635D01*
X0111892Y0240626D01*
X0112415Y0239721D01*
X0113154Y0238982D01*
X0114059Y0238459D01*
X0115068Y0238189D01*
X0116113D01*
X0117122Y0238459D01*
X0118027Y0238982D01*
X0118766Y0239721D01*
X0119289Y0240626D01*
X0119559Y0241635D01*
Y024268D01*
X0119289Y0243689D01*
X0118766Y0244594D01*
X0118027Y0245333D01*
X0117122Y0245855D01*
X0116249Y024609D01*
X0116003Y0246457D01*
X0116003Y0246457D01*
X0106372Y0256089D01*
X0106476Y0256479D01*
Y0257395D01*
X0106239Y0258279D01*
X0105782Y0259072D01*
X0105134Y0259719D01*
X0104342Y0260176D01*
X0103458Y0260413D01*
D02*
G37*
G36*
X0136113Y0264126D02*
X0135068D01*
X0134059Y0263856D01*
X0133154Y0263333D01*
X0132415Y0262594D01*
X0131893Y0261689D01*
X0131622Y026068D01*
Y0259635D01*
X0131893Y0258626D01*
X0132415Y0257721D01*
X0133154Y0256982D01*
X0134059Y0256459D01*
X0135068Y0256189D01*
X0136113D01*
X0137122Y0256459D01*
X0137738Y0256815D01*
X0142451Y0252102D01*
Y0239713D01*
X0138049Y0235311D01*
X0138027Y0235333D01*
X0137122Y0235856D01*
X0136113Y0236126D01*
X0135068D01*
X0134059Y0235856D01*
X0133154Y0235333D01*
X0132415Y0234594D01*
X0131893Y0233689D01*
X0131622Y023268D01*
Y0231635D01*
X0131893Y0230626D01*
X0132415Y0229721D01*
X0133154Y0228982D01*
X0134059Y0228459D01*
X0135068Y0228189D01*
X0136113D01*
X0137122Y0228459D01*
X0138027Y0228982D01*
X0138766Y0229721D01*
X0139026Y023017D01*
X0139062D01*
X0140037Y0230364D01*
X0140864Y0230917D01*
X0146802Y0236855D01*
X0147355Y0237682D01*
X0147549Y0238657D01*
Y0253157D01*
X0147355Y0254133D01*
X0146802Y025496D01*
X0140364Y0261398D01*
X0139537Y026195D01*
X0139086Y026204D01*
X0138766Y0262594D01*
X0138027Y0263333D01*
X0137122Y0263856D01*
X0136113Y0264126D01*
D02*
G37*
G36*
X0259523Y0239216D02*
X0258477D01*
X0257468Y0238946D01*
X0256563Y0238424D01*
X0255824Y0237685D01*
X0255302Y023678D01*
X0255031Y0235771D01*
Y0234726D01*
X0255302Y0233716D01*
X0255824Y0232811D01*
X0256563Y0232072D01*
X0257468Y023155D01*
X0258477Y0231279D01*
X0259523D01*
X0260532Y023155D01*
X0261437Y0232072D01*
X0262176Y0232811D01*
X0262698Y0233716D01*
X0262968Y0234726D01*
Y0235771D01*
X0262698Y023678D01*
X0262176Y0237685D01*
X0261437Y0238424D01*
X0260532Y0238946D01*
X0259523Y0239216D01*
D02*
G37*
G36*
X0249522D02*
X0248478D01*
X0247468Y0238946D01*
X0246563Y0238424D01*
X0245824Y0237685D01*
X0245302Y023678D01*
X0245031Y0235771D01*
Y0234726D01*
X0245302Y0233716D01*
X0245824Y0232811D01*
X0246563Y0232072D01*
X0247468Y023155D01*
X0248478Y0231279D01*
X0249522D01*
X0250532Y023155D01*
X0251437Y0232072D01*
X0252176Y0232811D01*
X0252698Y0233716D01*
X0252969Y0234726D01*
Y0235771D01*
X0252698Y023678D01*
X0252176Y0237685D01*
X0251437Y0238424D01*
X0250532Y0238946D01*
X0249522Y0239216D01*
D02*
G37*
G36*
X0230522D02*
X0229478D01*
X0228468Y0238946D01*
X0227563Y0238424D01*
X0226824Y0237685D01*
X0226302Y023678D01*
X0226031Y0235771D01*
Y0234726D01*
X0226302Y0233716D01*
X0226824Y0232811D01*
X0227563Y0232072D01*
X0228468Y023155D01*
X0229478Y0231279D01*
X0230522D01*
X0231532Y023155D01*
X0232437Y0232072D01*
X0233176Y0232811D01*
X0233698Y0233716D01*
X0233968Y0234726D01*
Y0235771D01*
X0233698Y023678D01*
X0233176Y0237685D01*
X0232437Y0238424D01*
X0231532Y0238946D01*
X0230522Y0239216D01*
D02*
G37*
G36*
X0220522D02*
X0219478D01*
X0218468Y0238946D01*
X0217563Y0238424D01*
X0216824Y0237685D01*
X0216302Y023678D01*
X0216032Y0235771D01*
Y0234726D01*
X0216302Y0233716D01*
X0216824Y0232811D01*
X0217563Y0232072D01*
X0218468Y023155D01*
X0219478Y0231279D01*
X0220522D01*
X0221532Y023155D01*
X0222437Y0232072D01*
X0223176Y0232811D01*
X0223698Y0233716D01*
X0223969Y0234726D01*
Y0235771D01*
X0223698Y023678D01*
X0223176Y0237685D01*
X0222437Y0238424D01*
X0221532Y0238946D01*
X0220522Y0239216D01*
D02*
G37*
G36*
X0192023D02*
X0190978D01*
X0189968Y0238946D01*
X0189063Y0238424D01*
X0188324Y0237685D01*
X0187802Y023678D01*
X0187531Y0235771D01*
Y0234726D01*
X0187802Y0233716D01*
X0188324Y0232811D01*
X0189063Y0232072D01*
X0189968Y023155D01*
X0190978Y0231279D01*
X0192023D01*
X0193032Y023155D01*
X0193937Y0232072D01*
X0194676Y0232811D01*
X0195198Y0233716D01*
X0195468Y0234726D01*
Y0235771D01*
X0195198Y023678D01*
X0194676Y0237685D01*
X0193937Y0238424D01*
X0193032Y0238946D01*
X0192023Y0239216D01*
D02*
G37*
G36*
X0075697Y0238354D02*
X0068303D01*
Y0230961D01*
X0075697D01*
Y0238354D01*
D02*
G37*
G36*
X0181958Y0235354D02*
X0181042D01*
X0180158Y0235117D01*
X0179366Y023466D01*
X0178718Y0234013D01*
X0178261Y023322D01*
X0178024Y0232336D01*
Y023142D01*
X0178261Y0230536D01*
X0178718Y0229743D01*
X0179366Y0229096D01*
X0180158Y0228639D01*
X0181042Y0228402D01*
X0181958D01*
X0182842Y0228639D01*
X0183634Y0229096D01*
X0184282Y0229743D01*
X0184739Y0230536D01*
X0184976Y023142D01*
Y0232336D01*
X0184739Y023322D01*
X0184282Y0234013D01*
X0183634Y023466D01*
X0182842Y0235117D01*
X0181958Y0235354D01*
D02*
G37*
G36*
X0116113Y0236126D02*
X0115068D01*
X0114059Y0235856D01*
X0113154Y0235333D01*
X0112415Y0234594D01*
X0111892Y0233689D01*
X0111622Y023268D01*
Y0231635D01*
X0111892Y0230626D01*
X0112415Y0229721D01*
X0113154Y0228982D01*
X0114059Y0228459D01*
X0115068Y0228189D01*
X0116113D01*
X0117122Y0228459D01*
X0118027Y0228982D01*
X0118766Y0229721D01*
X0119289Y0230626D01*
X0119559Y0231635D01*
Y023268D01*
X0119289Y0233689D01*
X0118766Y0234594D01*
X0118027Y0235333D01*
X0117122Y0235856D01*
X0116113Y0236126D01*
D02*
G37*
G36*
X0240458Y0234854D02*
X0239542D01*
X0238658Y0234617D01*
X0237865Y023416D01*
X0237218Y0233512D01*
X023676Y023272D01*
X0236524Y0231836D01*
Y023092D01*
X023676Y0230036D01*
X0237218Y0229243D01*
X0237865Y0228596D01*
X0238658Y0228138D01*
X0239542Y0227902D01*
X0240458D01*
X0241342Y0228138D01*
X0242134Y0228596D01*
X0242782Y0229243D01*
X0243239Y0230036D01*
X0243476Y023092D01*
Y0231836D01*
X0243239Y023272D01*
X0242782Y0233512D01*
X0242134Y023416D01*
X0241342Y0234617D01*
X0240458Y0234854D01*
D02*
G37*
G36*
X0291271Y0232626D02*
X0290227D01*
X0289217Y0232355D01*
X0288312Y0231833D01*
X0287573Y0231094D01*
X0287051Y0230189D01*
X0286781Y022918D01*
Y0228135D01*
X0287051Y0227126D01*
X0287573Y0226221D01*
X0288312Y0225482D01*
X0289217Y0224959D01*
X0290227Y0224689D01*
X0291271D01*
X0292281Y0224959D01*
X0293186Y0225482D01*
X0293925Y0226221D01*
X0294447Y0227126D01*
X0294718Y0228135D01*
Y022918D01*
X0294447Y0230189D01*
X0293925Y0231094D01*
X0293186Y0231833D01*
X0292281Y0232355D01*
X0291271Y0232626D01*
D02*
G37*
G36*
X0252433Y0218446D02*
X0251567D01*
X025073Y0218222D01*
X024998Y0217789D01*
X0249368Y0217177D01*
X0248935Y0216427D01*
X0248711Y0215591D01*
Y0214724D01*
X0248935Y0213888D01*
X0249368Y0213138D01*
X024998Y0212526D01*
X025073Y0212093D01*
X0251567Y0211869D01*
X0252433D01*
X025327Y0212093D01*
X0254019Y0212526D01*
X0254632Y0213138D01*
X0255065Y0213888D01*
X0255289Y0214724D01*
Y0215591D01*
X0255065Y0216427D01*
X0254632Y0217177D01*
X0254019Y0217789D01*
X025327Y0218222D01*
X0252433Y0218446D01*
D02*
G37*
G36*
X0301272Y0212626D02*
X0300226D01*
X0299217Y0212355D01*
X0298312Y0211833D01*
X0297573Y0211094D01*
X0297051Y0210189D01*
X029678Y020918D01*
Y0208135D01*
X0297051Y0207126D01*
X0297573Y0206221D01*
X0298312Y0205482D01*
X0299217Y0204959D01*
X0300226Y0204689D01*
X0301272D01*
X0302281Y0204959D01*
X0303186Y0205482D01*
X0303925Y0206221D01*
X0304447Y0207126D01*
X0304717Y0208135D01*
Y020918D01*
X0304447Y0210189D01*
X0303925Y0211094D01*
X0303186Y0211833D01*
X0302281Y0212355D01*
X0301272Y0212626D01*
D02*
G37*
G36*
X0291271D02*
X0290227D01*
X0289217Y0212355D01*
X0288312Y0211833D01*
X0287573Y0211094D01*
X0287051Y0210189D01*
X0286781Y020918D01*
Y0208135D01*
X0287051Y0207126D01*
X0287573Y0206221D01*
X0288312Y0205482D01*
X0289217Y0204959D01*
X0290227Y0204689D01*
X0291271D01*
X0292281Y0204959D01*
X0293186Y0205482D01*
X0293925Y0206221D01*
X0294447Y0207126D01*
X0294718Y0208135D01*
Y020918D01*
X0294447Y0210189D01*
X0293925Y0211094D01*
X0293186Y0211833D01*
X0292281Y0212355D01*
X0291271Y0212626D01*
D02*
G37*
G36*
X0252433Y0208447D02*
X0251567D01*
X025073Y0208222D01*
X024998Y0207789D01*
X0249368Y0207177D01*
X0248935Y0206427D01*
X0248711Y0205591D01*
Y0204725D01*
X0248935Y0203888D01*
X0249368Y0203138D01*
X024998Y0202526D01*
X025073Y0202093D01*
X0251567Y0201869D01*
X0252433D01*
X025327Y0202093D01*
X0254019Y0202526D01*
X0254632Y0203138D01*
X0255065Y0203888D01*
X0255289Y0204725D01*
Y0205591D01*
X0255065Y0206427D01*
X0254632Y0207177D01*
X0254019Y0207789D01*
X025327Y0208222D01*
X0252433Y0208447D01*
D02*
G37*
G36*
X0259523Y0259216D02*
X0258477D01*
X0257468Y0258946D01*
X0256563Y0258424D01*
X0255824Y0257685D01*
X0255302Y025678D01*
X0255031Y025577D01*
Y0254726D01*
X0255302Y0253716D01*
X0255824Y0252811D01*
X0256563Y0252072D01*
X0257468Y025155D01*
X0258477Y0251279D01*
X0259364D01*
X0264951Y0245692D01*
Y0230713D01*
X0261444Y0227206D01*
X02495D01*
X0248524Y0227012D01*
X0247698Y022646D01*
X0218944Y0197706D01*
X0128811D01*
X0127836Y0197512D01*
X0127009Y019696D01*
X0126456Y0196133D01*
X0126262Y0195158D01*
X0126456Y0194182D01*
X0127009Y0193355D01*
X0127836Y0192803D01*
X0128811Y0192608D01*
X022D01*
X0220975Y0192803D01*
X0221802Y0193355D01*
X0250556Y0222109D01*
X02625D01*
X0263475Y0222303D01*
X0264302Y0222855D01*
X0269302Y0227855D01*
X0269855Y0228682D01*
X0270049Y0229658D01*
Y0246748D01*
X0269855Y0247724D01*
X0269302Y024855D01*
X0262968Y0254884D01*
Y025577D01*
X0262698Y025678D01*
X0262176Y0257685D01*
X0261437Y0258424D01*
X0260532Y0258946D01*
X0259523Y0259216D01*
D02*
G37*
%LPD*%
G36*
X0119728Y0346637D02*
X0119888Y0345424D01*
X0120359Y0344286D01*
X0121109Y0343308D01*
X0122087Y0342559D01*
X0122741Y0342288D01*
X0122542Y0341288D01*
X01175D01*
X0116685Y0341125D01*
X0115994Y0340664D01*
X009263Y03173D01*
X009163Y0317714D01*
Y0320209D01*
X0092006Y0320585D01*
X0092468Y0321276D01*
X009263Y0322091D01*
Y0323631D01*
X0092638D01*
X0092444Y0325108D01*
X0092439Y032512D01*
X0093204Y0325885D01*
X0093582Y0325729D01*
X0094673Y0325585D01*
X0095763Y0325729D01*
X009678Y032615D01*
X0097595Y0326775D01*
X0097656Y0326816D01*
X0097656D01*
X0097697Y0326877D01*
X0098322Y0327692D01*
X0098743Y0328709D01*
X0098887Y03298D01*
X0098743Y033089D01*
X0099491Y0331638D01*
X0100582Y0331494D01*
X0101672Y0331638D01*
X0102689Y0332059D01*
X0103504Y0332684D01*
X0103565Y0332725D01*
X0103565D01*
X0103606Y0332786D01*
X0104232Y0333601D01*
X0104653Y0334618D01*
X0104796Y0335708D01*
X0104653Y0336799D01*
X0104232Y0337816D01*
X0103606Y033863D01*
X0103565Y0338692D01*
X0101483Y0340774D01*
X010195Y0341721D01*
X0102248Y0341682D01*
X0103362Y0341829D01*
X01044Y0342259D01*
X0104751Y0342527D01*
X0114089D01*
X0114097Y0342529D01*
X0115311Y0342689D01*
X0116448Y034316D01*
X0117426Y034391D01*
X0118176Y0344887D01*
X0118647Y0346025D01*
X0118728Y0346641D01*
X0119727Y0346645D01*
X0119728Y0346637D01*
D02*
G37*
G36*
X009137Y0284101D02*
Y0279156D01*
X0091182Y0278958D01*
X0090638Y027865D01*
X009037Y0278589D01*
X0090315Y0278625D01*
X0090164Y0278656D01*
X0089918Y0278758D01*
X0089651D01*
X00895Y0278788D01*
X008636D01*
X0086105Y0278788D01*
X008597Y0278805D01*
X0085884Y0278867D01*
X0085844Y0280042D01*
X0085848Y0280045D01*
X0086006Y0280151D01*
X009037Y0284515D01*
X009137Y0284101D01*
D02*
G37*
%LPC*%
G36*
X0066Y0184D02*
X00625D01*
Y01805D01*
X0062527D01*
X0063544Y0180773D01*
X0064456Y0181299D01*
X0065201Y0182044D01*
X0065727Y0182956D01*
X0066Y0183973D01*
Y0184D01*
D02*
G37*
G36*
X00615D02*
X0058D01*
Y0183973D01*
X0058273Y0182956D01*
X0058799Y0182044D01*
X0059544Y0181299D01*
X0060456Y0180773D01*
X0061473Y01805D01*
X00615D01*
Y0184D01*
D02*
G37*
G36*
X0300527Y01855D02*
X0299473D01*
X0298456Y0185227D01*
X0297544Y0184701D01*
X0296799Y0183956D01*
X0296273Y0183044D01*
X0296Y0182027D01*
Y0180973D01*
X0296273Y0179956D01*
X0296799Y0179044D01*
X0297544Y0178299D01*
X0298456Y0177773D01*
X0299473Y01775D01*
X0300527D01*
X0301544Y0177773D01*
X0302456Y0178299D01*
X0303201Y0179044D01*
X0303727Y0179956D01*
X0304Y0180973D01*
Y0182027D01*
X0303727Y0183044D01*
X0303201Y0183956D01*
X0302456Y0184701D01*
X0301544Y0185227D01*
X0300527Y01855D01*
D02*
G37*
G36*
X0010527D02*
X0009473D01*
X0008456Y0185227D01*
X0007544Y0184701D01*
X0006799Y0183956D01*
X0006273Y0183044D01*
X0006Y0182027D01*
Y0180973D01*
X0006273Y0179956D01*
X0006799Y0179044D01*
X0007544Y0178299D01*
X0008456Y0177773D01*
X0009473Y01775D01*
X0010527D01*
X0011544Y0177773D01*
X0012456Y0178299D01*
X0013201Y0179044D01*
X0013727Y0179956D01*
X0014Y0180973D01*
Y0182027D01*
X0013727Y0183044D01*
X0013201Y0183956D01*
X0012456Y0184701D01*
X0011544Y0185227D01*
X0010527Y01855D01*
D02*
G37*
G36*
X0129624Y0179609D02*
X0129616Y0179608D01*
X0128403Y0179448D01*
X0127265Y0178977D01*
X0126287Y0178227D01*
X0125538Y017725D01*
X0125066Y0176111D01*
X012495Y017523D01*
X0123942D01*
X0123825Y0176111D01*
X0123354Y017725D01*
X0122604Y0178227D01*
X0121627Y0178977D01*
X0120489Y0179448D01*
X0119276Y0179608D01*
X0119267Y0179609D01*
X0119259Y0179608D01*
X0118046Y0179448D01*
X0116908Y0178977D01*
X0115931Y0178227D01*
X0115181Y017725D01*
X011471Y0176111D01*
X011455Y0174899D01*
X0114548Y017489D01*
Y0171238D01*
X0113548Y0170934D01*
X0113302Y0171302D01*
X0108302Y0176302D01*
X0107475Y0176855D01*
X01065Y0177049D01*
X0074679D01*
X007427Y0177458D01*
X0073427Y0177945D01*
X0072487Y0178197D01*
X0071513D01*
X0070573Y0177945D01*
X006973Y0177458D01*
X0069321Y0177049D01*
X0065108D01*
X0064456Y0177701D01*
X0063544Y0178227D01*
X0062527Y01785D01*
X0061473D01*
X0060456Y0178227D01*
X0059544Y0177701D01*
X0058799Y0176956D01*
X0058273Y0176044D01*
X0058Y0175027D01*
Y0173973D01*
X0058273Y0172956D01*
X0058799Y0172044D01*
X0059544Y0171299D01*
X0060456Y0170773D01*
X0061473Y01705D01*
X0062527D01*
X0063544Y0170773D01*
X0064456Y0171299D01*
X0065108Y0171951D01*
X0069321D01*
X006973Y0171542D01*
X0070573Y0171055D01*
X0071513Y0170803D01*
X0072487D01*
X0073427Y0171055D01*
X007427Y0171542D01*
X0074679Y0171951D01*
X0105444D01*
X0108951Y0168444D01*
Y01655D01*
X0109145Y0164524D01*
X0109698Y0163698D01*
X0110524Y0163145D01*
X01115Y0162951D01*
X0112476Y0163145D01*
X0113302Y0163698D01*
X0113548Y0164066D01*
X0114548Y0163762D01*
Y0157456D01*
X0114253Y0156925D01*
X0113722Y015663D01*
X0104D01*
X0103185Y0156468D01*
X0102494Y0156006D01*
X0101555Y0156454D01*
X0101518Y0156491D01*
X0101456Y0156532D01*
X0100642Y0157157D01*
X0099625Y0157578D01*
X0098535Y0157722D01*
X0097444Y0157578D01*
X0096427Y0157157D01*
X0095612Y0156532D01*
X0095551Y0156491D01*
Y0156491D01*
X009551Y0156429D01*
X0094885Y0155614D01*
X0094464Y0154598D01*
X009432Y0153507D01*
X0094464Y0152417D01*
X0093716Y0151669D01*
X0092625Y0151813D01*
X0091535Y0151669D01*
X0090518Y0151248D01*
X0089703Y0150623D01*
X0089642Y0150582D01*
Y0150582D01*
X0089601Y015052D01*
X0088976Y0149706D01*
X0088555Y0148689D01*
X0088411Y0147598D01*
X0088555Y0146508D01*
X0087807Y014576D01*
X0086716Y0145904D01*
X0085626Y014576D01*
X0084609Y0145339D01*
X0083794Y0144714D01*
X0083733Y0144673D01*
Y0144673D01*
X0083692Y0144611D01*
X0083067Y0143797D01*
X0082646Y014278D01*
X0082502Y0141689D01*
X0082646Y0140598D01*
X0083067Y0139582D01*
X0083692Y0138767D01*
X0083733Y0138706D01*
X0083733Y0138706D01*
X0087951Y0134488D01*
X008799Y0134462D01*
X0088278Y0134031D01*
X0088379Y0133521D01*
X008837Y0133474D01*
Y0132816D01*
X0087994Y013244D01*
X0087532Y0131749D01*
X008737Y0130934D01*
Y0123068D01*
X008637Y0122653D01*
X0075552Y0133472D01*
X0075697Y0134013D01*
Y0134987D01*
X0075445Y0135927D01*
X0074958Y013677D01*
X007427Y0137458D01*
X0073427Y0137945D01*
X0072487Y0138197D01*
X0071513D01*
X0070573Y0137945D01*
X006973Y0137458D01*
X0069042Y013677D01*
X0068555Y0135927D01*
X0068303Y0134987D01*
Y0134013D01*
X0068448Y0133472D01*
X0066932Y0131956D01*
X0066333Y0132021D01*
X0065804Y0132837D01*
X0065753Y0133053D01*
X0066Y0133973D01*
Y0135027D01*
X0065727Y0136044D01*
X0065201Y0136956D01*
X0064456Y0137701D01*
X0063544Y0138227D01*
X0062527Y01385D01*
X0061473D01*
X0060456Y0138227D01*
X0059544Y0137701D01*
X0058799Y0136956D01*
X0058273Y0136044D01*
X0058Y0135027D01*
Y0133973D01*
X0058273Y0132956D01*
X0058516Y0132534D01*
X0057946Y0131534D01*
X0055203D01*
X0054256Y0132481D01*
Y0132958D01*
X0054019Y0133842D01*
X0053561Y0134634D01*
X0052914Y0135282D01*
X0052121Y013574D01*
X0051237Y0135976D01*
X0050322D01*
X0049438Y013574D01*
X0048645Y0135282D01*
X0047998Y0134634D01*
X004754Y0133842D01*
X0047303Y0132958D01*
Y0132042D01*
X004754Y0131158D01*
X0047998Y0130366D01*
X0048645Y0129718D01*
X0049438Y0129261D01*
X0050322Y0129024D01*
X0051237D01*
X0052121Y0129261D01*
X0052317Y0129374D01*
X0053202Y0128488D01*
X0053202Y0128488D01*
X0053781Y0128102D01*
X0054464Y0127966D01*
X0054464Y0127966D01*
X0058395D01*
X0058809Y0126966D01*
X0058799Y0126956D01*
X0058273Y0126044D01*
X0058Y0125027D01*
Y0123973D01*
X0058273Y0122956D01*
X005866Y0122284D01*
X0058376Y0121553D01*
X0058145Y0121284D01*
X005728D01*
X0057279Y0121284D01*
X0056597Y0121149D01*
X0056018Y0120762D01*
X0056018Y0120762D01*
X0051628Y0116372D01*
X0051237Y0116476D01*
X0050322D01*
X0049438Y011624D01*
X0048645Y0115782D01*
X0047998Y0115135D01*
X004754Y0114342D01*
X0047303Y0113458D01*
Y0112542D01*
X004754Y0111658D01*
X0047998Y0110865D01*
X0048645Y0110218D01*
X0049438Y010976D01*
X0050322Y0109524D01*
X0051237D01*
X0052121Y010976D01*
X0052914Y0110218D01*
X0053561Y0110865D01*
X0054019Y0111658D01*
X0054256Y0112542D01*
Y0113458D01*
X0054151Y0113848D01*
X0057382Y0117079D01*
X0057512Y0117127D01*
X0057716Y011708D01*
X0058238Y0116109D01*
X0058243Y0115935D01*
X0058Y0115027D01*
Y0113973D01*
X0058273Y0112956D01*
X0058799Y0112044D01*
X0059544Y0111299D01*
X0060456Y0110773D01*
X0061473Y01105D01*
X0062527D01*
X0063544Y0110773D01*
X0064456Y0111299D01*
X0065201Y0112044D01*
X0065727Y0112956D01*
X0066Y0113973D01*
Y0115027D01*
X0065727Y0116044D01*
X006534Y0116716D01*
X0065624Y0117447D01*
X0065855Y0117716D01*
X0067D01*
X0067683Y0117851D01*
X0068262Y0118238D01*
X0070972Y0120948D01*
X0071513Y0120803D01*
X0072487D01*
X0073028Y0120948D01*
X0078716Y0115261D01*
Y010168D01*
X00784Y0100918D01*
Y0100082D01*
X0078716Y009932D01*
Y009868D01*
X00784Y0097918D01*
Y0097082D01*
X007872Y0096311D01*
X0079311Y009572D01*
X0080082Y00954D01*
X0080918D01*
X008169Y009572D01*
X008228Y0096311D01*
X00826Y0097082D01*
Y0097918D01*
X0082284Y009868D01*
Y009932D01*
X00826Y0100082D01*
Y0100918D01*
X0082284Y010168D01*
Y0116D01*
X0082284Y0116D01*
X0082148Y0116683D01*
X0081762Y0117262D01*
X0081762Y0117262D01*
X0075552Y0123472D01*
X0075697Y0124013D01*
Y0124987D01*
X0075445Y0125927D01*
X0074958Y012677D01*
X007427Y0127458D01*
X0073427Y0127945D01*
X0072487Y0128197D01*
X0071513D01*
X0070573Y0127945D01*
X006973Y0127458D01*
X0069042Y012677D01*
X0068555Y0125927D01*
X0068303Y0124987D01*
Y0124013D01*
X0068448Y0123472D01*
X0066688Y0121711D01*
X0066273Y0121649D01*
X0066095Y01217D01*
X0065645Y0122814D01*
X0065727Y0122956D01*
X0066Y0123973D01*
Y0125027D01*
X0065727Y0126044D01*
X0065201Y0126956D01*
X0065191Y0126966D01*
X0065605Y0127966D01*
X006725D01*
X0067933Y0128102D01*
X0068512Y0128488D01*
X0070972Y0130948D01*
X0071513Y0130803D01*
X0072487D01*
X0073028Y0130948D01*
X0084216Y0119761D01*
Y010568D01*
X00839Y0104918D01*
Y0104082D01*
X0084216Y010332D01*
Y010168D01*
X00839Y0100918D01*
Y0100082D01*
X008422Y009931D01*
X0084811Y009872D01*
X0085582Y00984D01*
X0086418D01*
X008678Y0098138D01*
X0086869Y0096881D01*
X0083618Y009363D01*
X0076629D01*
X0075697Y0094013D01*
Y0094987D01*
X0075445Y0095927D01*
X0074958Y009677D01*
X007427Y0097458D01*
X0073427Y0097945D01*
X0072487Y0098197D01*
X0071513D01*
X0070573Y0097945D01*
X006973Y0097458D01*
X0069042Y009677D01*
X0068555Y0095927D01*
X0068303Y0094987D01*
Y0094013D01*
X0068555Y0093073D01*
X0069042Y009223D01*
X006973Y0091542D01*
X0070573Y0091055D01*
X0071513Y0090803D01*
X0072487D01*
X0072643Y0090845D01*
X0073494Y0089994D01*
X0074185Y0089532D01*
X0075Y008937D01*
X0084301D01*
X0084411Y008937D01*
X0084481Y0089368D01*
X0084509Y0089337D01*
X008481Y008828D01*
X0084634Y0088104D01*
X0084488Y0088006D01*
X0083112Y008663D01*
X0075039D01*
X0074958Y008677D01*
X007427Y0087458D01*
X0073427Y0087945D01*
X0072487Y0088197D01*
X0071513D01*
X0070573Y0087945D01*
X006973Y0087458D01*
X0069042Y008677D01*
X0068555Y0085927D01*
X0068303Y0084987D01*
Y0084013D01*
X0068555Y0083073D01*
X0069042Y008223D01*
X006973Y0081542D01*
X0070573Y0081055D01*
X0071513Y0080803D01*
X0072487D01*
X0073427Y0081055D01*
X007427Y0081542D01*
X0074958Y008223D01*
X0075039Y008237D01*
X0083994D01*
X0084809Y0082532D01*
X00855Y0082994D01*
X0086876Y008437D01*
X00895D01*
X0089651Y00844D01*
X0089918D01*
X0090164Y0084502D01*
X0090315Y0084532D01*
X009037Y0084569D01*
X0090638Y0084508D01*
X0091182Y00842D01*
X009137Y0084001D01*
Y0040882D01*
X0082138Y003165D01*
X0081474Y0031721D01*
X0081301Y0032581D01*
X0081298Y0032745D01*
X0081461Y0032908D01*
X0081589Y0032994D01*
X0081675Y0033122D01*
X0081863Y003331D01*
X0081965Y0033557D01*
X0082051Y0033685D01*
X0082081Y0033836D01*
X0082183Y0034082D01*
Y0034349D01*
X0082213Y00345D01*
X0082183Y0034651D01*
Y0034918D01*
X0082081Y0035164D01*
X0082051Y0035315D01*
X0081965Y0035443D01*
X0081863Y003569D01*
X0081675Y0035878D01*
X0081589Y0036006D01*
X0081461Y0036092D01*
X0081273Y003628D01*
X0081026Y0036382D01*
X0080898Y0036468D01*
X0080747Y0036498D01*
X0080501Y00366D01*
X0080234D01*
X0080083Y003663D01*
X0070382D01*
X006613Y0040882D01*
Y0081466D01*
X0065968Y0082281D01*
X006563Y0082787D01*
X0065727Y0082956D01*
X0066Y0083973D01*
Y0085027D01*
X0065727Y0086044D01*
X0065201Y0086956D01*
X0064456Y0087701D01*
X0063544Y0088227D01*
X0062527Y00885D01*
X0061473D01*
X0060456Y0088227D01*
X0059544Y0087701D01*
X0058799Y0086956D01*
X0058273Y0086044D01*
X0058Y0085027D01*
Y0083973D01*
X0058273Y0082956D01*
X0058799Y0082044D01*
X0059544Y0081299D01*
X0060456Y0080773D01*
X0061473Y00805D01*
X006187D01*
Y004D01*
X0062032Y0039185D01*
X0062494Y0038494D01*
X0067994Y0032994D01*
X0068538Y003263D01*
X0068505Y0032013D01*
X0068372Y003163D01*
X0064882D01*
X005863Y0037882D01*
Y0079D01*
X0058468Y0079815D01*
X0058006Y0080506D01*
X005563Y0082882D01*
Y0086118D01*
X0060348Y0090835D01*
X0060456Y0090773D01*
X0061473Y00905D01*
X0062527D01*
X0063544Y0090773D01*
X0064456Y0091299D01*
X0065201Y0092044D01*
X0065727Y0092956D01*
X0066Y0093973D01*
Y0095027D01*
X0065727Y0096044D01*
X0065201Y0096956D01*
X0064456Y0097701D01*
X0063544Y0098227D01*
X0062527Y00985D01*
X0061473D01*
X0060456Y0098227D01*
X0059544Y0097701D01*
X0058799Y0096956D01*
X0058273Y0096044D01*
X0058Y0095027D01*
Y0094512D01*
X0054529Y0091041D01*
X0053729Y0091655D01*
X0054019Y0092158D01*
X0054256Y0093042D01*
Y0093958D01*
X0054019Y0094842D01*
X0053561Y0095635D01*
X0052914Y0096282D01*
X0052121Y009674D01*
X0051237Y0096976D01*
X0050322D01*
X0049438Y009674D01*
X0048645Y0096282D01*
X0047998Y0095635D01*
X004754Y0094842D01*
X0047303Y0093958D01*
Y0093042D01*
X004754Y0092158D01*
X0047998Y0091365D01*
X0048645Y0090718D01*
X0049438Y009026D01*
X0050322Y0090024D01*
X0051237D01*
X0052121Y009026D01*
X0052624Y0090551D01*
X0053238Y0089751D01*
X0051994Y0088506D01*
X0051532Y0087815D01*
X005137Y0087D01*
Y0082D01*
X0051532Y0081185D01*
X0051994Y0080494D01*
X005437Y0078118D01*
Y0076179D01*
X0054166Y0076042D01*
X005337Y0075826D01*
X0052914Y0076282D01*
X0052121Y007674D01*
X0051237Y0076976D01*
X0050322D01*
X0049438Y007674D01*
X0048645Y0076282D01*
X0047998Y0075635D01*
X004754Y0074842D01*
X0047303Y0073958D01*
Y0073042D01*
X004754Y0072158D01*
X0047998Y0071365D01*
X0048645Y0070718D01*
X0049438Y0070261D01*
X0050322Y0070024D01*
X0051237D01*
X0052121Y0070261D01*
X0052914Y0070718D01*
X005337Y0071174D01*
X0054166Y0070959D01*
X005437Y0070821D01*
Y0056679D01*
X0054166Y0056541D01*
X005337Y0056326D01*
X0052914Y0056782D01*
X0052121Y005724D01*
X0051237Y0057476D01*
X0050322D01*
X0049438Y005724D01*
X0048645Y0056782D01*
X0047998Y0056134D01*
X004754Y0055342D01*
X0047303Y0054458D01*
Y0053542D01*
X004754Y0052658D01*
X0047998Y0051865D01*
X0048645Y0051218D01*
X0049438Y0050761D01*
X0050322Y0050524D01*
X0051237D01*
X0052121Y0050761D01*
X0052914Y0051218D01*
X005337Y0051674D01*
X0054166Y0051459D01*
X005437Y0051321D01*
Y0037D01*
X0054532Y0036185D01*
X0054994Y0035494D01*
X0062494Y0027994D01*
X0063038Y002763D01*
X0063005Y0027013D01*
X0062872Y002663D01*
X0059882D01*
X004513Y0041382D01*
Y0096618D01*
X0050882Y010237D01*
X0058611D01*
X0058799Y0102044D01*
X0059544Y0101299D01*
X0060456Y0100773D01*
X0061473Y01005D01*
X0062527D01*
X0063544Y0100773D01*
X0064456Y0101299D01*
X0065201Y0102044D01*
X0065727Y0102956D01*
X0066Y0103973D01*
Y0105027D01*
X0065727Y0106044D01*
X0065201Y0106956D01*
X0064456Y0107701D01*
X0063544Y0108227D01*
X0062527Y01085D01*
X0061473D01*
X0060456Y0108227D01*
X0059544Y0107701D01*
X0058799Y0106956D01*
X0058611Y010663D01*
X005D01*
X0049185Y0106468D01*
X0048494Y0106006D01*
X0041494Y0099006D01*
X0041032Y0098315D01*
X004087Y00975D01*
Y00405D01*
X0041032Y0039685D01*
X0041494Y0038994D01*
X0057494Y0022994D01*
X0058185Y0022532D01*
X0059Y002237D01*
X009D01*
X0090815Y0022532D01*
X0091506Y0022994D01*
X0098382Y002987D01*
X0142D01*
X0142815Y0030032D01*
X0143506Y0030494D01*
X0154006Y0040994D01*
X0154468Y0041685D01*
X015463Y00425D01*
Y0084D01*
X0154468Y0084815D01*
X0154006Y0085506D01*
X0148557Y0090955D01*
X0148458Y009223D01*
X0148945Y0093073D01*
X0149197Y0094013D01*
Y0094987D01*
X0148945Y0095927D01*
X0148458Y009677D01*
X014777Y0097458D01*
X014763Y0097539D01*
Y0104618D01*
X0165382Y012237D01*
X0260618D01*
X0262994Y0119994D01*
X0263685Y0119532D01*
X02645Y011937D01*
X0296611D01*
X0296799Y0119044D01*
X0297544Y0118299D01*
X0298456Y0117773D01*
X0299473Y01175D01*
X0300527D01*
X0301544Y0117773D01*
X0302456Y0118299D01*
X0303201Y0119044D01*
X0303727Y0119956D01*
X0304Y0120973D01*
Y0122027D01*
X0303727Y0123044D01*
X0303201Y0123956D01*
X0302456Y0124701D01*
X0301544Y0125227D01*
X0300527Y01255D01*
X0299473D01*
X0298456Y0125227D01*
X0297544Y0124701D01*
X0296799Y0123956D01*
X0296611Y012363D01*
X0265382D01*
X0263006Y0126006D01*
X0262315Y0126468D01*
X02615Y012663D01*
X01645D01*
X0163685Y0126468D01*
X0162994Y0126006D01*
X0143994Y0107006D01*
X0143532Y0106315D01*
X014337Y01055D01*
Y0097539D01*
X014323Y0097458D01*
X0142542Y009677D01*
X0142055Y0095927D01*
X0141803Y0094987D01*
Y0094013D01*
X0142055Y0093073D01*
X0142542Y009223D01*
X014323Y0091542D01*
X0143659Y0091294D01*
Y0090711D01*
X0143821Y0089896D01*
X0144283Y0089205D01*
X015037Y0083118D01*
Y0043382D01*
X0141118Y003413D01*
X00975D01*
X0096685Y0033968D01*
X0095994Y0033506D01*
X0089118Y002663D01*
X0084128D01*
X0083995Y0027013D01*
X0083962Y002763D01*
X0084506Y0027994D01*
X0095006Y0038494D01*
X0095468Y0039185D01*
X009563Y004D01*
Y0124118D01*
X0118382Y014687D01*
X01485D01*
X0148651Y01469D01*
X0148918D01*
X0149164Y0147002D01*
X0149315Y0147032D01*
X0149443Y0147118D01*
X014969Y014722D01*
X0149878Y0147408D01*
X0150006Y0147494D01*
X0150092Y0147622D01*
X015028Y014781D01*
X0150382Y0148057D01*
X0150468Y0148185D01*
X0150498Y0148336D01*
X01506Y0148582D01*
Y0148849D01*
X015063Y0149D01*
X01506Y0149151D01*
Y0149418D01*
X0150498Y0149664D01*
X0150468Y0149815D01*
X0150382Y0149943D01*
X015028Y0150189D01*
X0150092Y0150378D01*
X0150006Y0150506D01*
X0149878Y0150592D01*
X014969Y015078D01*
X0149443Y0150882D01*
X0149315Y0150968D01*
X0149164Y0150998D01*
X0148918Y01511D01*
X0148651D01*
X01485Y015113D01*
X012635D01*
X0126151Y015213D01*
X0126805Y0152401D01*
X0127782Y0153151D01*
X0128532Y0154128D01*
X0129004Y0155266D01*
X0129163Y0156479D01*
X0129165Y0156488D01*
X0130164Y0156484D01*
X0130245Y0155868D01*
X0130716Y015473D01*
X0131466Y0153753D01*
X0132443Y0153003D01*
X0133581Y0152531D01*
X0134794Y0152372D01*
X0134802Y015237D01*
X0163D01*
X0163815Y0152532D01*
X0164506Y0152994D01*
X0176391Y0164879D01*
X0176853Y016557D01*
X0176952Y016607D01*
X017777Y0166542D01*
X0178458Y016723D01*
X0178945Y0168073D01*
X0179197Y0169013D01*
Y0169987D01*
X0178945Y0170927D01*
X0178458Y017177D01*
X017777Y0172458D01*
X0176927Y0172945D01*
X0175987Y0173197D01*
X0175013D01*
X0174073Y0172945D01*
X017323Y0172458D01*
X0172542Y017177D01*
X0172055Y0170927D01*
X0171803Y0169987D01*
Y0169013D01*
X0172055Y0168073D01*
X0172542Y016723D01*
X017263Y0167142D01*
X0162118Y015663D01*
X0135169D01*
X0134638Y0156925D01*
X0134343Y0157456D01*
Y017489D01*
X0134342Y0174899D01*
X0134182Y0176111D01*
X0133711Y017725D01*
X0132961Y0178227D01*
X0131983Y0178977D01*
X0130845Y0179448D01*
X0129632Y0179608D01*
X0129624Y0179609D01*
D02*
G37*
G36*
X0252487Y0178197D02*
X0251513D01*
X0250573Y0177945D01*
X024973Y0177458D01*
X0249042Y017677D01*
X0248555Y0175927D01*
X0248303Y0174987D01*
Y0174013D01*
X0248555Y0173073D01*
X0249042Y017223D01*
X024973Y0171542D01*
X0250573Y0171055D01*
X0251513Y0170803D01*
X0252487D01*
X0253427Y0171055D01*
X025427Y0171542D01*
X0254958Y017223D01*
X0255445Y0173073D01*
X0255697Y0174013D01*
Y0174987D01*
X0255445Y0175927D01*
X0254958Y017677D01*
X025427Y0177458D01*
X0253427Y0177945D01*
X0252487Y0178197D01*
D02*
G37*
G36*
X0271183Y0177289D02*
X0270317D01*
X026948Y0177065D01*
X026873Y0176632D01*
X0268118Y017602D01*
X0267685Y0175269D01*
X0267461Y0174433D01*
Y0173567D01*
X0267685Y0172731D01*
X0268118Y0171981D01*
X026873Y0171368D01*
X026948Y0170935D01*
X0270317Y0170711D01*
X0271183D01*
X027202Y0170935D01*
X0272769Y0171368D01*
X0273382Y0171981D01*
X0273815Y0172731D01*
X0274039Y0173567D01*
Y0174433D01*
X0273815Y0175269D01*
X0273382Y017602D01*
X0272769Y0176632D01*
X027202Y0177065D01*
X0271183Y0177289D01*
D02*
G37*
G36*
X0300527Y01755D02*
X0299473D01*
X0298456Y0175227D01*
X0297544Y0174701D01*
X0296799Y0173956D01*
X0296558Y0173539D01*
X02855D01*
X028472Y0173384D01*
X0284058Y0172942D01*
X0277155Y0166039D01*
X0273362D01*
X0272769Y0166632D01*
X027202Y0167065D01*
X0271183Y0167289D01*
X0270317D01*
X026948Y0167065D01*
X026873Y0166632D01*
X0268118Y0166019D01*
X0267685Y0165269D01*
X0267461Y0164433D01*
Y0163567D01*
X0267685Y0162731D01*
X0268118Y016198D01*
X026873Y0161368D01*
X026948Y0160935D01*
X0270317Y0160711D01*
X0271183D01*
X027202Y0160935D01*
X0272769Y0161368D01*
X0273362Y0161961D01*
X0278D01*
X027878Y0162116D01*
X0279442Y0162558D01*
X0286345Y0169461D01*
X0296558D01*
X0296799Y0169044D01*
X0297544Y0168299D01*
X0298456Y0167773D01*
X0299473Y01675D01*
X0300527D01*
X0301544Y0167773D01*
X0302456Y0168299D01*
X0303201Y0169044D01*
X0303727Y0169956D01*
X0304Y0170973D01*
Y0172027D01*
X0303727Y0173044D01*
X0303201Y0173956D01*
X0302456Y0174701D01*
X0301544Y0175227D01*
X0300527Y01755D01*
D02*
G37*
G36*
X0010527D02*
X0009473D01*
X0008456Y0175227D01*
X0007544Y0174701D01*
X0006799Y0173956D01*
X0006273Y0173044D01*
X0006Y0172027D01*
Y0170973D01*
X0006273Y0169956D01*
X0006799Y0169044D01*
X0007544Y0168299D01*
X0008456Y0167773D01*
X0009473Y01675D01*
X0010527D01*
X0011544Y0167773D01*
X0012456Y0168299D01*
X0013201Y0169044D01*
X0013727Y0169956D01*
X0014Y0170973D01*
Y0172027D01*
X0013727Y0173044D01*
X0013201Y0173956D01*
X0012456Y0174701D01*
X0011544Y0175227D01*
X0010527Y01755D01*
D02*
G37*
G36*
X0165987Y0173197D02*
X0165013D01*
X0164073Y0172945D01*
X016323Y0172458D01*
X0162542Y017177D01*
X0162055Y0170927D01*
X0161803Y0169987D01*
Y0169013D01*
X0162055Y0168073D01*
X0162542Y016723D01*
X016323Y0166542D01*
X0164073Y0166055D01*
X0165013Y0165803D01*
X0165987D01*
X0166927Y0166055D01*
X016777Y0166542D01*
X0168458Y016723D01*
X0168945Y0168073D01*
X0169197Y0169013D01*
Y0169987D01*
X0168945Y0170927D01*
X0168458Y017177D01*
X016777Y0172458D01*
X0166927Y0172945D01*
X0165987Y0173197D01*
D02*
G37*
G36*
X0155987D02*
X0155013D01*
X0154073Y0172945D01*
X015323Y0172458D01*
X0152542Y017177D01*
X0152055Y0170927D01*
X0151803Y0169987D01*
Y0169013D01*
X0152055Y0168073D01*
X0152542Y016723D01*
X015323Y0166542D01*
X0154073Y0166055D01*
X0155013Y0165803D01*
X0155987D01*
X0156927Y0166055D01*
X015777Y0166542D01*
X0158458Y016723D01*
X0158945Y0168073D01*
X0159197Y0169013D01*
Y0169987D01*
X0158945Y0170927D01*
X0158458Y017177D01*
X015777Y0172458D01*
X0156927Y0172945D01*
X0155987Y0173197D01*
D02*
G37*
G36*
X0252487Y0168197D02*
X0251513D01*
X0250573Y0167945D01*
X024973Y0167458D01*
X0249042Y016677D01*
X0248555Y0165927D01*
X0248303Y0164987D01*
Y0164013D01*
X0248555Y0163073D01*
X0249042Y016223D01*
X024973Y0161542D01*
X0250573Y0161055D01*
X0251513Y0160803D01*
X0252487D01*
X0253427Y0161055D01*
X025427Y0161542D01*
X0254958Y016223D01*
X0255445Y0163073D01*
X0255697Y0164013D01*
Y0164987D01*
X0255445Y0165927D01*
X0254958Y016677D01*
X025427Y0167458D01*
X0253427Y0167945D01*
X0252487Y0168197D01*
D02*
G37*
G36*
X0062527Y01685D02*
X0061473D01*
X0060456Y0168227D01*
X0059544Y0167701D01*
X0058799Y0166956D01*
X0058273Y0166044D01*
X0058Y0165027D01*
Y0164105D01*
X0030698Y0136802D01*
X0030145Y0135976D01*
X0029951Y0135D01*
Y0050835D01*
X0021418Y0042302D01*
X0019365Y0040249D01*
X0018813Y0039423D01*
X0018619Y0038447D01*
X0018813Y0037472D01*
X0019365Y0036645D01*
X0020192Y0036092D01*
X0021168Y0035898D01*
X0022143Y0036092D01*
X002297Y0036645D01*
X0025023Y0038698D01*
X0034302Y0047977D01*
X0034855Y0048804D01*
X0035049Y0049779D01*
Y0133944D01*
X005727Y0156165D01*
X0058166Y0155647D01*
X0058Y0155027D01*
Y0153973D01*
X0058273Y0152956D01*
X0058799Y0152044D01*
X0059544Y0151299D01*
X0060456Y0150773D01*
X0061473Y01505D01*
X0062527D01*
X0063544Y0150773D01*
X0064456Y0151299D01*
X0065201Y0152044D01*
X0065727Y0152956D01*
X0066Y0153973D01*
Y0155027D01*
X0065727Y0156044D01*
X0065201Y0156956D01*
X0064456Y0157701D01*
X0063544Y0158227D01*
X0062527Y01585D01*
X0061473D01*
X0060853Y0158334D01*
X0060335Y015923D01*
X0061605Y01605D01*
X0062527D01*
X0063544Y0160773D01*
X0064456Y0161299D01*
X0065201Y0162044D01*
X0065442Y0162461D01*
X0068909D01*
X0069042Y016223D01*
X006973Y0161542D01*
X0070573Y0161055D01*
X0071513Y0160803D01*
X0072487D01*
X0073427Y0161055D01*
X007427Y0161542D01*
X0074958Y016223D01*
X0075445Y0163073D01*
X0075697Y0164013D01*
Y0164987D01*
X0075445Y0165927D01*
X0074958Y016677D01*
X007427Y0167458D01*
X0073427Y0167945D01*
X0072487Y0168197D01*
X0071513D01*
X0070573Y0167945D01*
X006973Y0167458D01*
X0069042Y016677D01*
X0068909Y0166539D01*
X0065442D01*
X0065201Y0166956D01*
X0064456Y0167701D01*
X0063544Y0168227D01*
X0062527Y01685D01*
D02*
G37*
G36*
X0300527Y01655D02*
X0299473D01*
X0298456Y0165227D01*
X0297544Y0164701D01*
X0296799Y0163956D01*
X0296273Y0163044D01*
X0296Y0162027D01*
Y0160973D01*
X0296097Y016061D01*
X0289994Y0154506D01*
X0289532Y0153815D01*
X028937Y0153D01*
Y0144D01*
X02894Y0143849D01*
Y0143582D01*
X0289502Y0143336D01*
X0289532Y0143185D01*
X0289618Y0143057D01*
X028972Y014281D01*
X0289908Y0142622D01*
X0289994Y0142494D01*
X0290122Y0142408D01*
X029031Y014222D01*
X0290557Y0142118D01*
X0290685Y0142032D01*
X0290836Y0142002D01*
X0291082Y01419D01*
X0291349D01*
X02915Y014187D01*
X0291651Y01419D01*
X0291918D01*
X0292164Y0142002D01*
X0292315Y0142032D01*
X0292443Y0142118D01*
X029269Y014222D01*
X0292878Y0142408D01*
X0293006Y0142494D01*
X0293092Y0142622D01*
X029328Y014281D01*
X0293382Y0143057D01*
X0293468Y0143185D01*
X0293498Y0143336D01*
X02936Y0143582D01*
Y0143849D01*
X029363Y0144D01*
Y0152118D01*
X0295885Y0154373D01*
X0296685Y0153759D01*
X0296273Y0153044D01*
X0296Y0152027D01*
Y0150973D01*
X0296273Y0149956D01*
X0296799Y0149044D01*
X0297544Y0148299D01*
X0298456Y0147773D01*
X0299473Y01475D01*
X0300527D01*
X0301544Y0147773D01*
X0302456Y0148299D01*
X0303201Y0149044D01*
X0303727Y0149956D01*
X0304Y0150973D01*
Y0152027D01*
X0303727Y0153044D01*
X0303201Y0153956D01*
X0302456Y0154701D01*
X0301544Y0155227D01*
X0300527Y01555D01*
X0299473D01*
X0298456Y0155227D01*
X0297741Y0154815D01*
X0297127Y0155615D01*
X029911Y0157597D01*
X0299473Y01575D01*
X0300527D01*
X0301544Y0157773D01*
X0302456Y0158299D01*
X0303201Y0159044D01*
X0303727Y0159956D01*
X0304Y0160973D01*
Y0162027D01*
X0303727Y0163044D01*
X0303201Y0163956D01*
X0302456Y0164701D01*
X0301544Y0165227D01*
X0300527Y01655D01*
D02*
G37*
G36*
X0010527D02*
X0009473D01*
X0008456Y0165227D01*
X0007544Y0164701D01*
X0006799Y0163956D01*
X0006273Y0163044D01*
X0006Y0162027D01*
Y0160973D01*
X0006273Y0159956D01*
X0006799Y0159044D01*
X0007544Y0158299D01*
X0008456Y0157773D01*
X0009473Y01575D01*
X0010527D01*
X0011544Y0157773D01*
X0012456Y0158299D01*
X0013201Y0159044D01*
X0013727Y0159956D01*
X0014Y0160973D01*
Y0162027D01*
X0013727Y0163044D01*
X0013201Y0163956D01*
X0012456Y0164701D01*
X0011544Y0165227D01*
X0010527Y01655D01*
D02*
G37*
G36*
X0072487Y0158197D02*
X0071513D01*
X0070573Y0157945D01*
X006973Y0157458D01*
X0069042Y015677D01*
X0068555Y0155927D01*
X0068303Y0154987D01*
Y0154013D01*
X0068555Y0153073D01*
X0069042Y015223D01*
X006973Y0151542D01*
X0070573Y0151055D01*
X0071513Y0150803D01*
X0072487D01*
X0073427Y0151055D01*
X007427Y0151542D01*
X0074958Y015223D01*
X0075445Y0153073D01*
X0075697Y0154013D01*
Y0154987D01*
X0075445Y0155927D01*
X0074958Y015677D01*
X007427Y0157458D01*
X0073427Y0157945D01*
X0072487Y0158197D01*
D02*
G37*
G36*
X0252487Y0158197D02*
X0251513D01*
X0250573Y0157945D01*
X024973Y0157458D01*
X0249042Y015677D01*
X0248555Y0155927D01*
X0248303Y0154987D01*
Y0154013D01*
X0248555Y0153073D01*
X0249042Y015223D01*
X024973Y0151542D01*
X0250573Y0151055D01*
X0251513Y0150803D01*
X0252487D01*
X0253427Y0151055D01*
X025427Y0151542D01*
X0254958Y015223D01*
X0255445Y0153073D01*
X0255697Y0154013D01*
Y0154987D01*
X0255445Y0155927D01*
X0254958Y015677D01*
X025427Y0157458D01*
X0253427Y0157945D01*
X0252487Y0158197D01*
D02*
G37*
G36*
X0274039Y0157289D02*
X0267461D01*
Y0150711D01*
X0274039D01*
Y0157289D01*
D02*
G37*
G36*
X0010527Y01555D02*
X0009473D01*
X0008456Y0155227D01*
X0007544Y0154701D01*
X0006799Y0153956D01*
X0006273Y0153044D01*
X0006Y0152027D01*
Y0150973D01*
X0006273Y0149956D01*
X0006799Y0149044D01*
X0007544Y0148299D01*
X0008456Y0147773D01*
X0009473Y01475D01*
X0010527D01*
X0011544Y0147773D01*
X0012456Y0148299D01*
X0013201Y0149044D01*
X0013727Y0149956D01*
X0014Y0150973D01*
Y0152027D01*
X0013727Y0153044D01*
X0013201Y0153956D01*
X0012456Y0154701D01*
X0011544Y0155227D01*
X0010527Y01555D01*
D02*
G37*
G36*
X0252487Y0148197D02*
X0251513D01*
X0250573Y0147945D01*
X024973Y0147458D01*
X0249698Y0147426D01*
X0249132Y0147539D01*
X0157D01*
X015622Y0147384D01*
X0155558Y0146942D01*
X0134058Y0125442D01*
X0133616Y012478D01*
X0133461Y0124D01*
Y0097591D01*
X013323Y0097458D01*
X0132542Y009677D01*
X0132055Y0095927D01*
X0131803Y0094987D01*
Y0094013D01*
X0132055Y0093073D01*
X0132542Y009223D01*
X013323Y0091542D01*
X0134073Y0091055D01*
X0135013Y0090803D01*
X0135987D01*
X0136927Y0091055D01*
X013777Y0091542D01*
X0138458Y009223D01*
X0138945Y0093073D01*
X0139197Y0094013D01*
Y0094987D01*
X0138945Y0095927D01*
X0138458Y009677D01*
X013777Y0097458D01*
X0137539Y0097591D01*
Y0123155D01*
X0157845Y0143461D01*
X0248409D01*
X024846Y0143427D01*
X0248555Y0143073D01*
X0249042Y014223D01*
X024973Y0141542D01*
X0250573Y0141055D01*
X0251513Y0140803D01*
X0252487D01*
X0253427Y0141055D01*
X025427Y0141542D01*
X0254958Y014223D01*
X0255445Y0143073D01*
X0255697Y0144013D01*
Y0144987D01*
X0255445Y0145927D01*
X0254958Y014677D01*
X025427Y0147458D01*
X0253427Y0147945D01*
X0252487Y0148197D01*
D02*
G37*
G36*
X0072487D02*
X0071513D01*
X0070573Y0147945D01*
X006973Y0147458D01*
X0069042Y014677D01*
X0068555Y0145927D01*
X0068303Y0144987D01*
Y0144013D01*
X0068555Y0143073D01*
X0069042Y014223D01*
X006973Y0141542D01*
X0070573Y0141055D01*
X0071513Y0140803D01*
X0072487D01*
X0073427Y0141055D01*
X007427Y0141542D01*
X0074958Y014223D01*
X0075445Y0143073D01*
X0075697Y0144013D01*
Y0144987D01*
X0075445Y0145927D01*
X0074958Y014677D01*
X007427Y0147458D01*
X0073427Y0147945D01*
X0072487Y0148197D01*
D02*
G37*
G36*
X0062527Y01485D02*
X0061473D01*
X0060456Y0148227D01*
X0059544Y0147701D01*
X0058799Y0146956D01*
X0058273Y0146044D01*
X0058Y0145027D01*
Y0143973D01*
X0058273Y0142956D01*
X0058799Y0142044D01*
X0059544Y0141299D01*
X0060456Y0140773D01*
X0061473Y01405D01*
X0062527D01*
X0063544Y0140773D01*
X0064456Y0141299D01*
X0065201Y0142044D01*
X0065727Y0142956D01*
X0066Y0143973D01*
Y0145027D01*
X0065727Y0146044D01*
X0065201Y0146956D01*
X0064456Y0147701D01*
X0063544Y0148227D01*
X0062527Y01485D01*
D02*
G37*
G36*
X021Y014213D02*
X018D01*
X0179849Y01421D01*
X0179582D01*
X0179336Y0141998D01*
X0179185Y0141968D01*
X0179057Y0141882D01*
X017881Y014178D01*
X0178622Y0141592D01*
X0178494Y0141506D01*
X017849Y0141502D01*
X0178404Y0141374D01*
X017822Y014119D01*
X017812Y0140949D01*
X0178028Y0140811D01*
X0177996Y0140648D01*
X01779Y0140418D01*
Y0140168D01*
X0177866Y0139996D01*
X01779Y0139824D01*
Y0139582D01*
X0177992Y0139359D01*
X0178028Y0139181D01*
X0178129Y0139029D01*
X017822Y013881D01*
X0178387Y0138643D01*
X017849Y013849D01*
X0178643Y0138387D01*
X017881Y013822D01*
X0179029Y0138129D01*
X0179181Y0138028D01*
X0179359Y0137992D01*
X0179582Y01379D01*
X0179824D01*
X0179996Y0137866D01*
X0180017Y013787D01*
X021D01*
X0210151Y01379D01*
X0210418D01*
X0210664Y0138002D01*
X0210815Y0138032D01*
X0210943Y0138118D01*
X021119Y013822D01*
X0211378Y0138408D01*
X0211506Y0138494D01*
X0211592Y0138622D01*
X021178Y013881D01*
X0211882Y0139057D01*
X0211968Y0139185D01*
X0211998Y0139336D01*
X02121Y0139582D01*
Y0139849D01*
X021213Y014D01*
X02121Y0140151D01*
Y0140418D01*
X0211998Y0140664D01*
X0211968Y0140815D01*
X0211882Y0140943D01*
X021178Y014119D01*
X0211592Y0141378D01*
X0211506Y0141506D01*
X0211378Y0141592D01*
X021119Y014178D01*
X0210943Y0141882D01*
X0210815Y0141968D01*
X0210664Y0141998D01*
X0210418Y01421D01*
X0210151D01*
X021Y014213D01*
D02*
G37*
G36*
X0300527Y01455D02*
X0299473D01*
X0298456Y0145227D01*
X0297544Y0144701D01*
X0296799Y0143956D01*
X0296273Y0143044D01*
X0296Y0142027D01*
Y0140973D01*
X0296023Y0140887D01*
X029532Y0140039D01*
X02555D01*
X025472Y0139884D01*
X0254058Y0139442D01*
X0252813Y0138197D01*
X0248303D01*
Y0136539D01*
X0184054D01*
X0183274Y0136384D01*
X0182612Y0135942D01*
X018055Y0133879D01*
X018031Y013378D01*
X017972Y013319D01*
X01794Y0132418D01*
Y0131582D01*
X017972Y013081D01*
X018031Y013022D01*
X0181082Y01299D01*
X0181918D01*
X018269Y013022D01*
X018328Y013081D01*
X0183303Y0130865D01*
X0184899Y0132461D01*
X0248303D01*
Y0130803D01*
X0255697D01*
Y0135313D01*
X0256345Y0135961D01*
X0261077D01*
X0261491Y0134961D01*
X026122Y013469D01*
X02609Y0133918D01*
Y0133082D01*
X026122Y013231D01*
X026181Y013172D01*
X026205Y0131621D01*
X0263612Y0130058D01*
X0264274Y0129616D01*
X0265054Y0129461D01*
X0296558D01*
X0296799Y0129044D01*
X0297544Y0128299D01*
X0298456Y0127773D01*
X0299473Y01275D01*
X0300527D01*
X0301544Y0127773D01*
X0302456Y0128299D01*
X0303201Y0129044D01*
X0303727Y0129956D01*
X0304Y0130973D01*
Y0132027D01*
X0303727Y0133044D01*
X0303201Y0133956D01*
X0302456Y0134701D01*
X0301544Y0135227D01*
X0300527Y01355D01*
X0299473D01*
X0298456Y0135227D01*
X0297544Y0134701D01*
X0296799Y0133956D01*
X0296558Y0133539D01*
X0265899D01*
X0264803Y0134635D01*
X026478Y013469D01*
X0264509Y0134961D01*
X0264923Y0135961D01*
X02965D01*
X029728Y0136116D01*
X0297942Y0136558D01*
X0299008Y0137625D01*
X0299473Y01375D01*
X0300527D01*
X0301544Y0137773D01*
X0302456Y0138299D01*
X0303201Y0139044D01*
X0303727Y0139956D01*
X0304Y0140973D01*
Y0142027D01*
X0303727Y0143044D01*
X0303201Y0143956D01*
X0302456Y0144701D01*
X0301544Y0145227D01*
X0300527Y01455D01*
D02*
G37*
G36*
X0023678Y0135976D02*
X0022763D01*
X0021879Y013574D01*
X0021086Y0135282D01*
X0020439Y0134635D01*
X0020236Y0134284D01*
X0017878D01*
Y0135878D01*
X0011122D01*
Y0129122D01*
X0017878D01*
Y0130716D01*
X0020236D01*
X0020439Y0130366D01*
X0021086Y0129718D01*
X0021879Y0129261D01*
X0022763Y0129024D01*
X0023678D01*
X0024562Y0129261D01*
X0025355Y0129718D01*
X0026002Y0130366D01*
X002646Y0131158D01*
X0026697Y0132042D01*
Y0132958D01*
X002646Y0133842D01*
X0026002Y0134635D01*
X0025355Y0135282D01*
X0024562Y013574D01*
X0023678Y0135976D01*
D02*
G37*
G36*
X0023678Y0116476D02*
X0022763D01*
X0021879Y011624D01*
X0021086Y0115782D01*
X0020439Y0115135D01*
X0020384Y0115039D01*
X0017781D01*
Y0116378D01*
X0011025D01*
Y0109622D01*
X0017781D01*
Y0110961D01*
X0020384D01*
X0020439Y0110865D01*
X0021086Y0110218D01*
X0021879Y010976D01*
X0022763Y0109524D01*
X0023678D01*
X0024562Y010976D01*
X0025355Y0110218D01*
X0026002Y0110865D01*
X002646Y0111658D01*
X0026697Y0112542D01*
Y0113458D01*
X002646Y0114342D01*
X0026002Y0115135D01*
X0025355Y0115782D01*
X0024562Y011624D01*
X0023678Y0116476D01*
D02*
G37*
G36*
X0300527Y01155D02*
X03005D01*
Y0112D01*
X0304D01*
Y0112027D01*
X0303727Y0113044D01*
X0303201Y0113956D01*
X0302456Y0114701D01*
X0301544Y0115227D01*
X0300527Y01155D01*
D02*
G37*
G36*
X02995D02*
X0299473D01*
X0298456Y0115227D01*
X0297544Y0114701D01*
X0296799Y0113956D01*
X0296273Y0113044D01*
X0296Y0112027D01*
Y0112D01*
X02995D01*
Y01155D01*
D02*
G37*
G36*
X0072487Y0118197D02*
X0071513D01*
X0070573Y0117945D01*
X006973Y0117458D01*
X0069042Y011677D01*
X0068555Y0115927D01*
X0068303Y0114987D01*
Y0114013D01*
X0068555Y0113073D01*
X0069042Y011223D01*
X006973Y0111542D01*
X0070573Y0111055D01*
X0071513Y0110803D01*
X0072487D01*
X0073427Y0111055D01*
X007427Y0111542D01*
X0074958Y011223D01*
X0075445Y0113073D01*
X0075697Y0114013D01*
Y0114987D01*
X0075445Y0115927D01*
X0074958Y011677D01*
X007427Y0117458D01*
X0073427Y0117945D01*
X0072487Y0118197D01*
D02*
G37*
G36*
X0253Y012113D02*
X01805D01*
X0179685Y0120968D01*
X0178994Y0120506D01*
X0168408Y0109921D01*
X0167561Y0110487D01*
X01676Y0110582D01*
Y0111418D01*
X016728Y011219D01*
X016669Y011278D01*
X0165918Y01131D01*
X0165082D01*
X016431Y011278D01*
X016372Y011219D01*
X0163659Y0112043D01*
X0154058Y0102442D01*
X0153616Y010178D01*
X0153461Y0101D01*
Y0097591D01*
X015323Y0097458D01*
X0152542Y009677D01*
X0152055Y0095927D01*
X0151803Y0094987D01*
Y0094013D01*
X0152055Y0093073D01*
X0152542Y009223D01*
X015323Y0091542D01*
X0154073Y0091055D01*
X0155013Y0090803D01*
X0155987D01*
X0156927Y0091055D01*
X015777Y0091542D01*
X0158458Y009223D01*
X0158945Y0093073D01*
X0159197Y0094013D01*
Y0094987D01*
X0158945Y0095927D01*
X0158458Y009677D01*
X015777Y0097458D01*
X0157539Y0097591D01*
Y0100155D01*
X016235Y0104966D01*
X0162546Y0104932D01*
X016337Y0104D01*
Y0097539D01*
X016323Y0097458D01*
X0162542Y009677D01*
X0162055Y0095927D01*
X0161803Y0094987D01*
Y0094013D01*
X0162055Y0093073D01*
X0162542Y009223D01*
X016323Y0091542D01*
X016337Y0091461D01*
Y0083D01*
Y0076337D01*
X0163364D01*
X0163352Y0076307D01*
X0163322Y0076295D01*
Y0076289D01*
X0161589D01*
X0161517Y0076275D01*
X0160498Y0076141D01*
X0159482Y007572D01*
X0158609Y007505D01*
X0157939Y0074177D01*
X0157518Y0073161D01*
X0157384Y0072142D01*
X015737Y007207D01*
X0157384Y0071997D01*
X0157518Y0070979D01*
X0157939Y0069963D01*
X0158609Y006909D01*
X0159482Y006842D01*
Y0067363D01*
X0158609Y0066693D01*
X0157939Y006582D01*
X0157518Y0064804D01*
X0157384Y0063786D01*
X015737Y0063713D01*
X0157384Y0063641D01*
X0157518Y0062622D01*
X0157939Y0061606D01*
X0158609Y0060733D01*
X0159482Y0060064D01*
Y0059006D01*
X0158609Y0058337D01*
X0157939Y0057464D01*
X0157518Y0056447D01*
X0157384Y0055429D01*
X015737Y0055357D01*
X0157384Y0055284D01*
X0157518Y0054266D01*
X0157939Y005325D01*
X0158609Y0052377D01*
X0159482Y0051707D01*
X0160498Y0051286D01*
X0161517Y0051152D01*
X0161589Y0051137D01*
X0163322D01*
Y0051132D01*
X0163352Y0051119D01*
X0163364Y0051089D01*
X016337D01*
Y005D01*
Y0042882D01*
X0147618Y002713D01*
X00995D01*
X0099349Y00271D01*
X0099082D01*
X0098836Y0026998D01*
X0098685Y0026968D01*
X0098557Y0026882D01*
X0098311Y002678D01*
X0098122Y0026592D01*
X0097994Y0026506D01*
X0097908Y0026378D01*
X009772Y002619D01*
X0097618Y0025943D01*
X0097532Y0025815D01*
X0097502Y0025664D01*
X00974Y0025418D01*
Y0025151D01*
X009737Y0025D01*
X00974Y0024849D01*
Y0024582D01*
X0097502Y0024336D01*
X0097532Y0024185D01*
X0097618Y0024057D01*
X009772Y002381D01*
X0097908Y0023622D01*
X0097994Y0023494D01*
X0098122Y0023408D01*
X0098311Y002322D01*
X0098557Y0023118D01*
X0098685Y0023032D01*
X0098836Y0023002D01*
X0099082Y00229D01*
X0099349D01*
X00995Y002287D01*
X01485D01*
X0149315Y0023032D01*
X0150006Y0023494D01*
X0167006Y0040494D01*
X0167468Y0041185D01*
X016763Y0042D01*
Y005D01*
Y0051089D01*
X0167618Y005115D01*
X0167479Y0052203D01*
X0167049Y0053241D01*
X0166365Y0054133D01*
X0166127Y0054316D01*
X0166466Y0055316D01*
X0168822D01*
X0168894Y005533D01*
X0169912Y0055464D01*
X0170929Y0055885D01*
X0171802Y0056555D01*
X0172471Y0057428D01*
X0172892Y0058444D01*
X0173027Y0059462D01*
X0173041Y0059535D01*
X0173027Y0059608D01*
X0172892Y0060626D01*
X0172471Y0061642D01*
X0171802Y0062515D01*
X0171157Y006301D01*
X0171144Y0063811D01*
X0171254Y0064132D01*
X0171518Y0064242D01*
X0172391Y0064912D01*
X0173061Y0065784D01*
X0173482Y0066801D01*
X0173616Y0067819D01*
X017363Y0067892D01*
X0173616Y0067964D01*
X0173482Y0068982D01*
X0173061Y0069999D01*
X0172391Y0070872D01*
X0171518Y0071541D01*
X0170502Y0071962D01*
X0169483Y0072096D01*
X0169411Y0072111D01*
X0166466D01*
X0166127Y0073111D01*
X0166365Y0073294D01*
X0167049Y0074185D01*
X0167479Y0075223D01*
X0167618Y0076276D01*
X016763Y0076337D01*
Y0083D01*
Y0091461D01*
X016777Y0091542D01*
X0168458Y009223D01*
X0168945Y0093073D01*
X0169197Y0094013D01*
Y0094987D01*
X0168945Y0095927D01*
X0168458Y009677D01*
X016777Y0097458D01*
X016763Y0097539D01*
Y0103118D01*
X0181382Y011687D01*
X0253D01*
X0253151Y01169D01*
X0253418D01*
X0253664Y0117002D01*
X0253815Y0117032D01*
X0253943Y0117118D01*
X025419Y011722D01*
X0254378Y0117408D01*
X0254506Y0117494D01*
X0254592Y0117622D01*
X025478Y011781D01*
X0254882Y0118057D01*
X0254968Y0118185D01*
X0254998Y0118336D01*
X02551Y0118582D01*
Y0118849D01*
X025513Y0119D01*
X02551Y0119151D01*
Y0119418D01*
X0254998Y0119664D01*
X0254968Y0119815D01*
X0254882Y0119943D01*
X025478Y012019D01*
X0254592Y0120378D01*
X0254506Y0120506D01*
X0254378Y0120592D01*
X025419Y012078D01*
X0253943Y0120882D01*
X0253815Y0120968D01*
X0253664Y0120998D01*
X0253418Y01211D01*
X0253151D01*
X0253Y012113D01*
D02*
G37*
G36*
X0304Y0111D02*
X03005D01*
Y01075D01*
X0300527D01*
X0301544Y0107773D01*
X0302456Y0108299D01*
X0303201Y0109044D01*
X0303727Y0109956D01*
X0304Y0110973D01*
Y0111D01*
D02*
G37*
G36*
X02995D02*
X0296D01*
Y0110973D01*
X0296273Y0109956D01*
X0296799Y0109044D01*
X0297544Y0108299D01*
X0298456Y0107773D01*
X0299473Y01075D01*
X02995D01*
Y0111D01*
D02*
G37*
G36*
X0107418Y01016D02*
X0106582D01*
X010582Y0101284D01*
X010568D01*
X0104918Y01016D01*
X0104082D01*
X010331Y010128D01*
X010272Y0100689D01*
X01024Y0099918D01*
Y0099734D01*
X0102238Y0099572D01*
X0101851Y0098993D01*
X0101716Y0098311D01*
Y0081704D01*
X0101365Y0081502D01*
X0100718Y0080855D01*
X010026Y0080062D01*
X0100024Y0079178D01*
Y0078263D01*
X010026Y0077379D01*
X0100718Y0076586D01*
X0101365Y0075939D01*
X0102158Y0075481D01*
X0103042Y0075244D01*
X0103958D01*
X0104842Y0075481D01*
X0105634Y0075939D01*
X0106282Y0076586D01*
X0106739Y0077379D01*
X0106964Y0078216D01*
X0112038D01*
X0112415Y0077563D01*
X0113154Y0076824D01*
X0114059Y0076302D01*
X0115068Y0076032D01*
X0116113D01*
X0117122Y0076302D01*
X0118027Y0076824D01*
X0118766Y0077563D01*
X0119289Y0078468D01*
X0119559Y0079478D01*
Y0080523D01*
X0119289Y0081532D01*
X0118766Y0082437D01*
X0118027Y0083176D01*
X0117122Y0083698D01*
X0116113Y0083969D01*
X0115068D01*
X0114059Y0083698D01*
X0113154Y0083176D01*
X0112415Y0082437D01*
X0112038Y0081784D01*
X0105714D01*
X0105714Y0081784D01*
X0105284Y0082718D01*
Y0096945D01*
X0106284Y0097523D01*
X0106582Y00974D01*
X0107418D01*
X010819Y009772D01*
X010878Y0098311D01*
X01091Y0099082D01*
Y0099918D01*
X010878Y0100689D01*
X010819Y010128D01*
X0107418Y01016D01*
D02*
G37*
G36*
X0072487Y0108197D02*
X0071513D01*
X0070573Y0107945D01*
X006973Y0107458D01*
X0069042Y010677D01*
X0068555Y0105927D01*
X0068303Y0104987D01*
Y0104013D01*
X0068555Y0103073D01*
X0069042Y010223D01*
X006973Y0101542D01*
X0070573Y0101055D01*
X0071513Y0100803D01*
X0072487D01*
X0073427Y0101055D01*
X007427Y0101542D01*
X0074958Y010223D01*
X0075445Y0103073D01*
X0075697Y0104013D01*
Y0104987D01*
X0075445Y0105927D01*
X0074958Y010677D01*
X007427Y0107458D01*
X0073427Y0107945D01*
X0072487Y0108197D01*
D02*
G37*
G36*
X0295688Y0107549D02*
X0191D01*
X0190024Y0107355D01*
X0189198Y0106802D01*
X0184156Y010176D01*
X0183603Y0100934D01*
X0183409Y0099958D01*
Y0097562D01*
X018323Y0097458D01*
X0182542Y009677D01*
X0182055Y0095927D01*
X0181803Y0094987D01*
Y0094013D01*
X0182055Y0093073D01*
X0182542Y009223D01*
X018323Y0091542D01*
X0184073Y0091055D01*
X0185013Y0090803D01*
X0185592D01*
X0205451Y0070944D01*
Y0068097D01*
X0205385Y0068049D01*
X0204451Y0067752D01*
X0203937Y0068266D01*
X0203032Y0068789D01*
X0202023Y0069059D01*
X0200977D01*
X0199968Y0068789D01*
X0199063Y0068266D01*
X0198324Y0067527D01*
X0197802Y0066622D01*
X0197531Y0065613D01*
Y0064568D01*
X0197802Y0063559D01*
X0198324Y0062654D01*
X0199063Y0061915D01*
X0199968Y0061392D01*
X0200977Y0061122D01*
X0201603D01*
X0202017Y0060122D01*
X0201698Y0059802D01*
X0201145Y0058975D01*
X0200951Y0058D01*
Y00525D01*
X0201145Y0051525D01*
X0201698Y0050698D01*
X0202403Y0049992D01*
X0202122Y0049304D01*
X0201922Y0049059D01*
X0200977D01*
X0199968Y0048789D01*
X0199063Y0048266D01*
X0198324Y0047527D01*
X0197802Y0046622D01*
X0197531Y0045613D01*
Y0044568D01*
X0197802Y0043559D01*
X0198324Y0042654D01*
X0199063Y0041915D01*
X0199968Y0041392D01*
X0200977Y0041122D01*
X0202023D01*
X0203032Y0041392D01*
X0203937Y0041915D01*
X0204676Y0042654D01*
X0205198Y0043559D01*
X0205469Y0044568D01*
Y0045179D01*
X0206403Y004567D01*
X0206951Y0045237D01*
Y0038056D01*
X0186444Y0017549D01*
X01255D01*
X0124524Y0017355D01*
X0123698Y0016802D01*
X0118444Y0011549D01*
X0019556D01*
X0017302Y0013802D01*
X0016476Y0014355D01*
X00155Y0014549D01*
X0014525Y0014355D01*
X0013698Y0013802D01*
X0013145Y0012976D01*
X0012951Y0012D01*
Y0009D01*
X0013145Y0008025D01*
X0013698Y0007198D01*
X0014525Y0006645D01*
X00155Y0006451D01*
X01195D01*
X0120475Y0006645D01*
X0121302Y0007198D01*
X0126556Y0012451D01*
X01875D01*
X0188476Y0012645D01*
X0189302Y0013198D01*
X0211302Y0035198D01*
X0211855Y0036024D01*
X0212049Y0037D01*
Y00465D01*
X0211855Y0047475D01*
X0211302Y0048302D01*
X0206049Y0053556D01*
Y0054117D01*
X0206334Y0054999D01*
X0207024Y0055042D01*
X0207039Y0054986D01*
X020726Y0054158D01*
X0207718Y0053365D01*
X0208366Y0052718D01*
X0209158Y0052261D01*
X0210042Y0052024D01*
X0210958D01*
X0211842Y0052261D01*
X0212634Y0052718D01*
X0213282Y0053365D01*
X0213739Y0054158D01*
X0213976Y0055042D01*
Y0055958D01*
X0213739Y0056842D01*
X0213282Y0057635D01*
X0212634Y0058282D01*
X0211842Y005874D01*
X0210958Y0058976D01*
X0210042D01*
X0209085Y0059755D01*
X0209054Y0059949D01*
X0209802Y0060698D01*
X0210355Y0061524D01*
X0210549Y00625D01*
Y0072D01*
X0210355Y0072975D01*
X0209802Y0073802D01*
X0193201Y0090404D01*
X0193815Y0091204D01*
X0194073Y0091055D01*
X0195013Y0090803D01*
X0195987D01*
X0196927Y0091055D01*
X019777Y0091542D01*
X0198458Y009223D01*
X0198945Y0093073D01*
X0199197Y0094013D01*
Y0094987D01*
X0198945Y0095927D01*
X0198458Y009677D01*
X019777Y0097458D01*
X0196927Y0097945D01*
X0195987Y0098197D01*
X0195013D01*
X0194073Y0097945D01*
X019323Y0097458D01*
X0192542Y009677D01*
X0192055Y0095927D01*
X0191803Y0094987D01*
Y0094013D01*
X0192055Y0093073D01*
X0192204Y0092815D01*
X0191404Y0092201D01*
X0189197Y0094408D01*
Y0094987D01*
X0188945Y0095927D01*
X0188507Y0096685D01*
Y0098902D01*
X0192056Y0102451D01*
X0294632D01*
X0296Y0101083D01*
Y0100973D01*
X0296273Y0099956D01*
X0296799Y0099044D01*
X0297544Y0098299D01*
X0298456Y0097773D01*
X0299473Y00975D01*
X0300527D01*
X0301544Y0097773D01*
X0302456Y0098299D01*
X0303201Y0099044D01*
X0303727Y0099956D01*
X0304Y0100973D01*
Y0102027D01*
X0303727Y0103044D01*
X0303201Y0103956D01*
X0302456Y0104701D01*
X0301544Y0105227D01*
X0300527Y01055D01*
X0299473D01*
X0298937Y0105356D01*
X0297491Y0106802D01*
X0296664Y0107355D01*
X0295688Y0107549D01*
D02*
G37*
G36*
X0023678Y0096976D02*
X0022763D01*
X0021879Y009674D01*
X0021086Y0096282D01*
X0020439Y0095635D01*
X0020095Y0095039D01*
X0017684D01*
Y0096878D01*
X0010928D01*
Y0090122D01*
X0017684D01*
Y0090961D01*
X0020843D01*
X0021086Y0090718D01*
X0021879Y009026D01*
X0022763Y0090024D01*
X0023678D01*
X0024562Y009026D01*
X0025355Y0090718D01*
X0026002Y0091365D01*
X002646Y0092158D01*
X0026697Y0093042D01*
Y0093958D01*
X002646Y0094842D01*
X0026002Y0095635D01*
X0025355Y0096282D01*
X0024562Y009674D01*
X0023678Y0096976D01*
D02*
G37*
G36*
X0253Y011513D02*
X01865D01*
X0185685Y0114968D01*
X0184994Y0114506D01*
X0173994Y0103506D01*
X0173532Y0102815D01*
X017337Y0102D01*
Y0097539D01*
X017323Y0097458D01*
X0172542Y009677D01*
X0172055Y0095927D01*
X0171803Y0094987D01*
Y0094013D01*
X0172055Y0093073D01*
X0172542Y009223D01*
X017323Y0091542D01*
X0174073Y0091055D01*
X0175013Y0090803D01*
X0175987D01*
X0176927Y0091055D01*
X017777Y0091542D01*
X0178458Y009223D01*
X0178945Y0093073D01*
X0179197Y0094013D01*
Y0094987D01*
X0178945Y0095927D01*
X0178458Y009677D01*
X017777Y0097458D01*
X017763Y0097539D01*
Y0101118D01*
X0187382Y011087D01*
X0253D01*
X0253151Y01109D01*
X0253418D01*
X0253664Y0111002D01*
X0253815Y0111032D01*
X0253943Y0111118D01*
X025419Y011122D01*
X0254378Y0111408D01*
X0254506Y0111494D01*
X0254592Y0111622D01*
X025478Y011181D01*
X0254882Y0112057D01*
X0254968Y0112185D01*
X0254998Y0112336D01*
X02551Y0112582D01*
Y0112849D01*
X025513Y0113D01*
X02551Y0113151D01*
Y0113418D01*
X0254998Y0113664D01*
X0254968Y0113815D01*
X0254882Y0113943D01*
X025478Y011419D01*
X0254592Y0114378D01*
X0254506Y0114506D01*
X0254378Y0114592D01*
X025419Y011478D01*
X0253943Y0114882D01*
X0253815Y0114968D01*
X0253664Y0114998D01*
X0253418Y01151D01*
X0253151D01*
X0253Y011513D01*
D02*
G37*
G36*
X0136113Y0083969D02*
X0135068D01*
X0134059Y0083698D01*
X0133154Y0083176D01*
X0132415Y0082437D01*
X0131893Y0081532D01*
X0131622Y0080523D01*
Y0079478D01*
X0131893Y0078468D01*
X0132415Y0077563D01*
X0133154Y0076824D01*
X0134059Y0076302D01*
X0135068Y0076032D01*
X0136113D01*
X0137122Y0076302D01*
X0138027Y0076824D01*
X0138766Y0077563D01*
X0139289Y0078468D01*
X0139559Y0079478D01*
Y0080523D01*
X0139289Y0081532D01*
X0138766Y0082437D01*
X0138027Y0083176D01*
X0137122Y0083698D01*
X0136113Y0083969D01*
D02*
G37*
G36*
X0023678Y0076976D02*
X0022763D01*
X0021879Y007674D01*
X0021086Y0076282D01*
X0020439Y0075635D01*
X0020384Y0075539D01*
X0017702D01*
Y0076878D01*
X0010946D01*
Y0070122D01*
X0017702D01*
Y0071461D01*
X0020384D01*
X0020439Y0071365D01*
X0021086Y0070718D01*
X0021879Y0070261D01*
X0022763Y0070024D01*
X0023678D01*
X0024562Y0070261D01*
X0025355Y0070718D01*
X0026002Y0071365D01*
X002646Y0072158D01*
X0026697Y0073042D01*
Y0073958D01*
X002646Y0074842D01*
X0026002Y0075635D01*
X0025355Y0076282D01*
X0024562Y007674D01*
X0023678Y0076976D01*
D02*
G37*
G36*
X0292022Y0082878D02*
X0290978D01*
X0289968Y0082608D01*
X0289063Y0082085D01*
X0288324Y0081346D01*
X0287802Y0080441D01*
X0287531Y0079432D01*
Y0078387D01*
X0287802Y0077378D01*
X0288324Y0076473D01*
X0289063Y0075734D01*
X0289968Y0075211D01*
X0290978Y0074941D01*
X0292022D01*
X0293032Y0075211D01*
X0293937Y0075734D01*
X0294676Y0076473D01*
X0295198Y0077378D01*
X0295468Y0078387D01*
Y0079432D01*
X0295198Y0080441D01*
X0294676Y0081346D01*
X0293937Y0082085D01*
X0293032Y0082608D01*
X0292022Y0082878D01*
D02*
G37*
G36*
X0072487Y0078197D02*
X0071513D01*
X0070573Y0077945D01*
X006973Y0077458D01*
X0069042Y007677D01*
X0068555Y0075927D01*
X0068303Y0074987D01*
Y0074013D01*
X0068555Y0073073D01*
X0069042Y007223D01*
X006973Y0071542D01*
X0070573Y0071055D01*
X0071513Y0070803D01*
X0072487D01*
X0073427Y0071055D01*
X007427Y0071542D01*
X0074958Y007223D01*
X0075445Y0073073D01*
X0075697Y0074013D01*
Y0074987D01*
X0075445Y0075927D01*
X0074958Y007677D01*
X007427Y0077458D01*
X0073427Y0077945D01*
X0072487Y0078197D01*
D02*
G37*
G36*
X0116113Y0073968D02*
X0115068D01*
X0114059Y0073698D01*
X0113154Y0073176D01*
X0112415Y0072437D01*
X0111892Y0071532D01*
X0111622Y0070522D01*
Y0069477D01*
X0111892Y0068468D01*
X0112415Y0067563D01*
X0113154Y0066824D01*
X0114059Y0066302D01*
X0115068Y0066031D01*
X0116113D01*
X0117122Y0066302D01*
X0118027Y0066824D01*
X0118766Y0067563D01*
X0119289Y0068468D01*
X0119559Y0069477D01*
Y0070522D01*
X0119289Y0071532D01*
X0118766Y0072437D01*
X0118027Y0073176D01*
X0117122Y0073698D01*
X0116113Y0073968D01*
D02*
G37*
G36*
X0249522Y0069059D02*
X0248478D01*
X0247468Y0068789D01*
X0246563Y0068266D01*
X0245824Y0067527D01*
X0245302Y0066622D01*
X0245031Y0065613D01*
Y0064568D01*
X0245302Y0063559D01*
X0245824Y0062654D01*
X0246563Y0061915D01*
X0247468Y0061392D01*
X0248478Y0061122D01*
X0249522D01*
X0250532Y0061392D01*
X0251437Y0061915D01*
X0252176Y0062654D01*
X0252698Y0063559D01*
X0252969Y0064568D01*
Y0065613D01*
X0252698Y0066622D01*
X0252176Y0067527D01*
X0251437Y0068266D01*
X0250532Y0068789D01*
X0249522Y0069059D01*
D02*
G37*
G36*
X0230522D02*
X0229478D01*
X0228468Y0068789D01*
X0227563Y0068266D01*
X0226824Y0067527D01*
X0226302Y0066622D01*
X0226031Y0065613D01*
Y0064568D01*
X0226302Y0063559D01*
X0226824Y0062654D01*
X0227563Y0061915D01*
X0228468Y0061392D01*
X0229478Y0061122D01*
X0230522D01*
X0231532Y0061392D01*
X0232437Y0061915D01*
X0233176Y0062654D01*
X0233698Y0063559D01*
X0233968Y0064568D01*
Y0065613D01*
X0233698Y0066622D01*
X0233176Y0067527D01*
X0232437Y0068266D01*
X0231532Y0068789D01*
X0230522Y0069059D01*
D02*
G37*
G36*
X0220522D02*
X0219478D01*
X0218468Y0068789D01*
X0217563Y0068266D01*
X0216824Y0067527D01*
X0216302Y0066622D01*
X0216032Y0065613D01*
Y0064568D01*
X0216302Y0063559D01*
X0216824Y0062654D01*
X0217563Y0061915D01*
X0218468Y0061392D01*
X0219478Y0061122D01*
X0220522D01*
X0221532Y0061392D01*
X0222437Y0061915D01*
X0223176Y0062654D01*
X0223698Y0063559D01*
X0223969Y0064568D01*
Y0065613D01*
X0223698Y0066622D01*
X0223176Y0067527D01*
X0222437Y0068266D01*
X0221532Y0068789D01*
X0220522Y0069059D01*
D02*
G37*
G36*
X0192023D02*
X0190978D01*
X0189968Y0068789D01*
X0189063Y0068266D01*
X0188324Y0067527D01*
X0187802Y0066622D01*
X0187531Y0065613D01*
Y0064568D01*
X0187802Y0063559D01*
X0188324Y0062654D01*
X0189063Y0061915D01*
X0189968Y0061392D01*
X0190978Y0061122D01*
X0192023D01*
X0193032Y0061392D01*
X0193937Y0061915D01*
X0194676Y0062654D01*
X0195198Y0063559D01*
X0195468Y0064568D01*
Y0065613D01*
X0195198Y0066622D01*
X0194676Y0067527D01*
X0193937Y0068266D01*
X0193032Y0068789D01*
X0192023Y0069059D01*
D02*
G37*
G36*
X0072487Y0068197D02*
X0071513D01*
X0070573Y0067945D01*
X006973Y0067458D01*
X0069042Y006677D01*
X0068555Y0065927D01*
X0068303Y0064987D01*
Y0064013D01*
X0068555Y0063073D01*
X0069042Y006223D01*
X006973Y0061542D01*
X0070573Y0061055D01*
X0071513Y0060803D01*
X0072487D01*
X0073427Y0061055D01*
X007427Y0061542D01*
X0074958Y006223D01*
X0075445Y0063073D01*
X0075697Y0064013D01*
Y0064987D01*
X0075445Y0065927D01*
X0074958Y006677D01*
X007427Y0067458D01*
X0073427Y0067945D01*
X0072487Y0068197D01*
D02*
G37*
G36*
X0023678Y0057476D02*
X0022763D01*
X0021879Y005724D01*
X0021086Y0056782D01*
X0020439Y0056135D01*
X0020384Y0056039D01*
X001772D01*
Y0057378D01*
X0010965D01*
Y0050622D01*
X001772D01*
Y0051961D01*
X0020384D01*
X0020439Y0051865D01*
X0021086Y0051218D01*
X0021879Y0050761D01*
X0022763Y0050524D01*
X0023678D01*
X0024562Y0050761D01*
X0025355Y0051218D01*
X0026002Y0051865D01*
X002646Y0052658D01*
X0026697Y0053542D01*
Y0054458D01*
X002646Y0055342D01*
X0026002Y0056135D01*
X0025355Y0056782D01*
X0024562Y005724D01*
X0023678Y0057476D01*
D02*
G37*
G36*
X0302023Y0062878D02*
X0300977D01*
X0299968Y0062608D01*
X0299063Y0062085D01*
X0298324Y0061346D01*
X0297802Y0060441D01*
X0297532Y0059432D01*
Y0058387D01*
X0297802Y0057378D01*
X0298324Y0056473D01*
X0299063Y0055734D01*
X0299968Y0055211D01*
X0300977Y0054941D01*
X0302023D01*
X0303032Y0055211D01*
X0303937Y0055734D01*
X0304676Y0056473D01*
X0305198Y0057378D01*
X0305469Y0058387D01*
Y0059432D01*
X0305198Y0060441D01*
X0304676Y0061346D01*
X0303937Y0062085D01*
X0303032Y0062608D01*
X0302023Y0062878D01*
D02*
G37*
G36*
X0292022D02*
X0290978D01*
X0289968Y0062608D01*
X0289063Y0062085D01*
X0288324Y0061346D01*
X0287802Y0060441D01*
X0287531Y0059432D01*
Y0058387D01*
X0287802Y0057378D01*
X0288324Y0056473D01*
X0289063Y0055734D01*
X0289968Y0055211D01*
X0290978Y0054941D01*
X0292022D01*
X0293032Y0055211D01*
X0293937Y0055734D01*
X0294676Y0056473D01*
X0295198Y0057378D01*
X0295468Y0058387D01*
Y0059432D01*
X0295198Y0060441D01*
X0294676Y0061346D01*
X0293937Y0062085D01*
X0293032Y0062608D01*
X0292022Y0062878D01*
D02*
G37*
G36*
X0072487Y0058197D02*
X0071513D01*
X0070573Y0057945D01*
X006973Y0057458D01*
X0069042Y005677D01*
X0068555Y0055927D01*
X0068303Y0054987D01*
Y0054013D01*
X0068555Y0053073D01*
X0069042Y005223D01*
X006973Y0051542D01*
X0070573Y0051055D01*
X0071513Y0050803D01*
X0072487D01*
X0073427Y0051055D01*
X007427Y0051542D01*
X0074958Y005223D01*
X0075445Y0053073D01*
X0075697Y0054013D01*
Y0054987D01*
X0075445Y0055927D01*
X0074958Y005677D01*
X007427Y0057458D01*
X0073427Y0057945D01*
X0072487Y0058197D01*
D02*
G37*
G36*
X0136113Y0055968D02*
X0135068D01*
X0134059Y0055698D01*
X0133154Y0055176D01*
X0132415Y0054437D01*
X0131893Y0053532D01*
X0131622Y0052522D01*
Y0051477D01*
X0131893Y0050468D01*
X0132415Y0049563D01*
X0133154Y0048824D01*
X0134059Y0048302D01*
X0135068Y0048031D01*
X0136113D01*
X0137122Y0048302D01*
X0138027Y0048824D01*
X0138766Y0049563D01*
X0139289Y0050468D01*
X0139559Y0051477D01*
Y0052522D01*
X0139289Y0053532D01*
X0138766Y0054437D01*
X0138027Y0055176D01*
X0137122Y0055698D01*
X0136113Y0055968D01*
D02*
G37*
G36*
X0103458Y0070256D02*
X0102542D01*
X0101658Y0070019D01*
X0100865Y0069561D01*
X0100218Y0068914D01*
X0099761Y0068121D01*
X0099524Y0067237D01*
Y0066322D01*
X0099761Y0065438D01*
X0100218Y0064645D01*
X0100865Y0063998D01*
X0101658Y006354D01*
X0102542Y0063303D01*
X0103458D01*
X0103848Y0063408D01*
X0112617Y0054639D01*
X0112415Y0054437D01*
X0111892Y0053532D01*
X0111622Y0052522D01*
Y0051477D01*
X0111892Y0050468D01*
X0112415Y0049563D01*
X0113154Y0048824D01*
X0114059Y0048302D01*
X0115068Y0048031D01*
X0116113D01*
X0117122Y0048302D01*
X0118027Y0048824D01*
X0118766Y0049563D01*
X0119289Y0050468D01*
X0119559Y0051477D01*
Y0052522D01*
X0119289Y0053532D01*
X0118766Y0054437D01*
X0118027Y0055176D01*
X0117122Y0055698D01*
X0116249Y0055932D01*
X0116003Y00563D01*
X0116003Y00563D01*
X0106372Y0065931D01*
X0106476Y0066322D01*
Y0067237D01*
X0106239Y0068121D01*
X0105782Y0068914D01*
X0105134Y0069561D01*
X0104342Y0070019D01*
X0103458Y0070256D01*
D02*
G37*
G36*
X0136113Y0073968D02*
X0135068D01*
X0134059Y0073698D01*
X0133154Y0073176D01*
X0132415Y0072437D01*
X0131893Y0071532D01*
X0131622Y0070522D01*
Y0069477D01*
X0131893Y0068468D01*
X0132415Y0067563D01*
X0133154Y0066824D01*
X0134059Y0066302D01*
X0135068Y0066031D01*
X0136113D01*
X0137122Y0066302D01*
X0137738Y0066657D01*
X0142451Y0061944D01*
Y0049556D01*
X0138049Y0045154D01*
X0138027Y0045176D01*
X0137122Y0045698D01*
X0136113Y0045968D01*
X0135068D01*
X0134059Y0045698D01*
X0133154Y0045176D01*
X0132415Y0044437D01*
X0131893Y0043532D01*
X0131622Y0042522D01*
Y0041478D01*
X0131893Y0040468D01*
X0132415Y0039563D01*
X0133154Y0038824D01*
X0134059Y0038302D01*
X0135068Y0038032D01*
X0136113D01*
X0137122Y0038302D01*
X0138027Y0038824D01*
X0138766Y0039563D01*
X0139026Y0040013D01*
X0139062D01*
X0140037Y0040207D01*
X0140864Y004076D01*
X0146802Y0046698D01*
X0147355Y0047524D01*
X0147549Y00485D01*
Y0063D01*
X0147355Y0063976D01*
X0146802Y0064802D01*
X0140364Y007124D01*
X0139537Y0071793D01*
X0139086Y0071883D01*
X0138766Y0072437D01*
X0138027Y0073176D01*
X0137122Y0073698D01*
X0136113Y0073968D01*
D02*
G37*
G36*
X0259523Y0049059D02*
X0258477D01*
X0257468Y0048789D01*
X0256563Y0048266D01*
X0255824Y0047527D01*
X0255302Y0046622D01*
X0255031Y0045613D01*
Y0044568D01*
X0255302Y0043559D01*
X0255824Y0042654D01*
X0256563Y0041915D01*
X0257468Y0041392D01*
X0258477Y0041122D01*
X0259523D01*
X0260532Y0041392D01*
X0261437Y0041915D01*
X0262176Y0042654D01*
X0262698Y0043559D01*
X0262968Y0044568D01*
Y0045613D01*
X0262698Y0046622D01*
X0262176Y0047527D01*
X0261437Y0048266D01*
X0260532Y0048789D01*
X0259523Y0049059D01*
D02*
G37*
G36*
X0249522D02*
X0248478D01*
X0247468Y0048789D01*
X0246563Y0048266D01*
X0245824Y0047527D01*
X0245302Y0046622D01*
X0245031Y0045613D01*
Y0044568D01*
X0245302Y0043559D01*
X0245824Y0042654D01*
X0246563Y0041915D01*
X0247468Y0041392D01*
X0248478Y0041122D01*
X0249522D01*
X0250532Y0041392D01*
X0251437Y0041915D01*
X0252176Y0042654D01*
X0252698Y0043559D01*
X0252969Y0044568D01*
Y0045613D01*
X0252698Y0046622D01*
X0252176Y0047527D01*
X0251437Y0048266D01*
X0250532Y0048789D01*
X0249522Y0049059D01*
D02*
G37*
G36*
X0230522D02*
X0229478D01*
X0228468Y0048789D01*
X0227563Y0048266D01*
X0226824Y0047527D01*
X0226302Y0046622D01*
X0226031Y0045613D01*
Y0044568D01*
X0226302Y0043559D01*
X0226824Y0042654D01*
X0227563Y0041915D01*
X0228468Y0041392D01*
X0229478Y0041122D01*
X0230522D01*
X0231532Y0041392D01*
X0232437Y0041915D01*
X0233176Y0042654D01*
X0233698Y0043559D01*
X0233968Y0044568D01*
Y0045613D01*
X0233698Y0046622D01*
X0233176Y0047527D01*
X0232437Y0048266D01*
X0231532Y0048789D01*
X0230522Y0049059D01*
D02*
G37*
G36*
X0220522D02*
X0219478D01*
X0218468Y0048789D01*
X0217563Y0048266D01*
X0216824Y0047527D01*
X0216302Y0046622D01*
X0216032Y0045613D01*
Y0044568D01*
X0216302Y0043559D01*
X0216824Y0042654D01*
X0217563Y0041915D01*
X0218468Y0041392D01*
X0219478Y0041122D01*
X0220522D01*
X0221532Y0041392D01*
X0222437Y0041915D01*
X0223176Y0042654D01*
X0223698Y0043559D01*
X0223969Y0044568D01*
Y0045613D01*
X0223698Y0046622D01*
X0223176Y0047527D01*
X0222437Y0048266D01*
X0221532Y0048789D01*
X0220522Y0049059D01*
D02*
G37*
G36*
X0192023D02*
X0190978D01*
X0189968Y0048789D01*
X0189063Y0048266D01*
X0188324Y0047527D01*
X0187802Y0046622D01*
X0187531Y0045613D01*
Y0044568D01*
X0187802Y0043559D01*
X0188324Y0042654D01*
X0189063Y0041915D01*
X0189968Y0041392D01*
X0190978Y0041122D01*
X0192023D01*
X0193032Y0041392D01*
X0193937Y0041915D01*
X0194676Y0042654D01*
X0195198Y0043559D01*
X0195468Y0044568D01*
Y0045613D01*
X0195198Y0046622D01*
X0194676Y0047527D01*
X0193937Y0048266D01*
X0193032Y0048789D01*
X0192023Y0049059D01*
D02*
G37*
G36*
X0075697Y0048197D02*
X0068303D01*
Y0040803D01*
X0075697D01*
Y0048197D01*
D02*
G37*
G36*
X0181958Y0045197D02*
X0181042D01*
X0180158Y004496D01*
X0179366Y0044502D01*
X0178718Y0043855D01*
X0178261Y0043062D01*
X0178024Y0042178D01*
Y0041263D01*
X0178261Y0040379D01*
X0178718Y0039586D01*
X0179366Y0038939D01*
X0180158Y0038481D01*
X0181042Y0038244D01*
X0181958D01*
X0182842Y0038481D01*
X0183634Y0038939D01*
X0184282Y0039586D01*
X0184739Y0040379D01*
X0184976Y0041263D01*
Y0042178D01*
X0184739Y0043062D01*
X0184282Y0043855D01*
X0183634Y0044502D01*
X0182842Y004496D01*
X0181958Y0045197D01*
D02*
G37*
G36*
X0116113Y0045968D02*
X0115068D01*
X0114059Y0045698D01*
X0113154Y0045176D01*
X0112415Y0044437D01*
X0111892Y0043532D01*
X0111622Y0042522D01*
Y0041478D01*
X0111892Y0040468D01*
X0112415Y0039563D01*
X0113154Y0038824D01*
X0114059Y0038302D01*
X0115068Y0038032D01*
X0116113D01*
X0117122Y0038302D01*
X0118027Y0038824D01*
X0118766Y0039563D01*
X0119289Y0040468D01*
X0119559Y0041478D01*
Y0042522D01*
X0119289Y0043532D01*
X0118766Y0044437D01*
X0118027Y0045176D01*
X0117122Y0045698D01*
X0116113Y0045968D01*
D02*
G37*
G36*
X0240458Y0044697D02*
X0239542D01*
X0238658Y004446D01*
X0237865Y0044002D01*
X0237218Y0043355D01*
X023676Y0042562D01*
X0236524Y0041678D01*
Y0040763D01*
X023676Y0039879D01*
X0237218Y0039086D01*
X0237865Y0038439D01*
X0238658Y0037981D01*
X0239542Y0037744D01*
X0240458D01*
X0241342Y0037981D01*
X0242134Y0038439D01*
X0242782Y0039086D01*
X0243239Y0039879D01*
X0243476Y0040763D01*
Y0041678D01*
X0243239Y0042562D01*
X0242782Y0043355D01*
X0242134Y0044002D01*
X0241342Y004446D01*
X0240458Y0044697D01*
D02*
G37*
G36*
X0291271Y0042469D02*
X0290227D01*
X0289217Y0042198D01*
X0288312Y0041676D01*
X0287573Y0040937D01*
X0287051Y0040032D01*
X0286781Y0039022D01*
Y0037977D01*
X0287051Y0036968D01*
X0287573Y0036063D01*
X0288312Y0035324D01*
X0289217Y0034802D01*
X0290227Y0034532D01*
X0291271D01*
X0292281Y0034802D01*
X0293186Y0035324D01*
X0293925Y0036063D01*
X0294447Y0036968D01*
X0294718Y0037977D01*
Y0039022D01*
X0294447Y0040032D01*
X0293925Y0040937D01*
X0293186Y0041676D01*
X0292281Y0042198D01*
X0291271Y0042469D01*
D02*
G37*
G36*
X0252433Y0028289D02*
X0251567D01*
X025073Y0028065D01*
X024998Y0027632D01*
X0249368Y002702D01*
X0248935Y002627D01*
X0248711Y0025433D01*
Y0024567D01*
X0248935Y0023731D01*
X0249368Y002298D01*
X024998Y0022368D01*
X025073Y0021935D01*
X0251567Y0021711D01*
X0252433D01*
X025327Y0021935D01*
X0254019Y0022368D01*
X0254632Y002298D01*
X0255065Y0023731D01*
X0255289Y0024567D01*
Y0025433D01*
X0255065Y002627D01*
X0254632Y002702D01*
X0254019Y0027632D01*
X025327Y0028065D01*
X0252433Y0028289D01*
D02*
G37*
G36*
X0301272Y0022468D02*
X0300226D01*
X0299217Y0022198D01*
X0298312Y0021676D01*
X0297573Y0020937D01*
X0297051Y0020032D01*
X029678Y0019023D01*
Y0017977D01*
X0297051Y0016968D01*
X0297573Y0016063D01*
X0298312Y0015324D01*
X0299217Y0014802D01*
X0300226Y0014532D01*
X0301272D01*
X0302281Y0014802D01*
X0303186Y0015324D01*
X0303925Y0016063D01*
X0304447Y0016968D01*
X0304717Y0017977D01*
Y0019023D01*
X0304447Y0020032D01*
X0303925Y0020937D01*
X0303186Y0021676D01*
X0302281Y0022198D01*
X0301272Y0022468D01*
D02*
G37*
G36*
X0291271D02*
X0290227D01*
X0289217Y0022198D01*
X0288312Y0021676D01*
X0287573Y0020937D01*
X0287051Y0020032D01*
X0286781Y0019023D01*
Y0017977D01*
X0287051Y0016968D01*
X0287573Y0016063D01*
X0288312Y0015324D01*
X0289217Y0014802D01*
X0290227Y0014532D01*
X0291271D01*
X0292281Y0014802D01*
X0293186Y0015324D01*
X0293925Y0016063D01*
X0294447Y0016968D01*
X0294718Y0017977D01*
Y0019023D01*
X0294447Y0020032D01*
X0293925Y0020937D01*
X0293186Y0021676D01*
X0292281Y0022198D01*
X0291271Y0022468D01*
D02*
G37*
G36*
X0252433Y0018289D02*
X0251567D01*
X025073Y0018065D01*
X024998Y0017632D01*
X0249368Y0017019D01*
X0248935Y001627D01*
X0248711Y0015433D01*
Y0014567D01*
X0248935Y0013731D01*
X0249368Y001298D01*
X024998Y0012368D01*
X025073Y0011935D01*
X0251567Y0011711D01*
X0252433D01*
X025327Y0011935D01*
X0254019Y0012368D01*
X0254632Y001298D01*
X0255065Y0013731D01*
X0255289Y0014567D01*
Y0015433D01*
X0255065Y001627D01*
X0254632Y0017019D01*
X0254019Y0017632D01*
X025327Y0018065D01*
X0252433Y0018289D01*
D02*
G37*
G36*
X0259523Y0069059D02*
X0258477D01*
X0257468Y0068789D01*
X0256563Y0068266D01*
X0255824Y0067527D01*
X0255302Y0066622D01*
X0255031Y0065613D01*
Y0064568D01*
X0255302Y0063559D01*
X0255824Y0062654D01*
X0256563Y0061915D01*
X0257468Y0061392D01*
X0258477Y0061122D01*
X0259364D01*
X0264951Y0055535D01*
Y0040556D01*
X0261444Y0037049D01*
X02495D01*
X0248524Y0036855D01*
X0247698Y0036302D01*
X0218944Y0007549D01*
X0128811D01*
X0127836Y0007355D01*
X0127009Y0006802D01*
X0126456Y0005976D01*
X0126262Y0005D01*
X0126456Y0004025D01*
X0127009Y0003198D01*
X0127836Y0002645D01*
X0128811Y0002451D01*
X022D01*
X0220975Y0002645D01*
X0221802Y0003198D01*
X0250556Y0031951D01*
X02625D01*
X0263475Y0032145D01*
X0264302Y0032698D01*
X0269302Y0037698D01*
X0269855Y0038524D01*
X0270049Y00395D01*
Y0056591D01*
X0269855Y0057566D01*
X0269302Y0058393D01*
X0262968Y0064727D01*
Y0065613D01*
X0262698Y0066622D01*
X0262176Y0067527D01*
X0261437Y0068266D01*
X0260532Y0068789D01*
X0259523Y0069059D01*
D02*
G37*
%LPD*%
G36*
X0119728Y0156479D02*
X0119888Y0155266D01*
X0120359Y0154128D01*
X0121109Y0153151D01*
X0122087Y0152401D01*
X0122741Y015213D01*
X0122542Y015113D01*
X01175D01*
X0116685Y0150968D01*
X0115994Y0150506D01*
X009263Y0127143D01*
X009163Y0127557D01*
Y0130051D01*
X0092006Y0130427D01*
X0092468Y0131119D01*
X009263Y0131934D01*
Y0133474D01*
X0092638D01*
X0092444Y013495D01*
X0092439Y0134962D01*
X0093204Y0135728D01*
X0093582Y0135571D01*
X0094673Y0135428D01*
X0095763Y0135571D01*
X009678Y0135992D01*
X0097595Y0136618D01*
X0097656Y0136659D01*
X0097656D01*
X0097697Y013672D01*
X0098322Y0137535D01*
X0098743Y0138551D01*
X0098887Y0139642D01*
X0098743Y0140733D01*
X0099491Y014148D01*
X0100582Y0141337D01*
X0101672Y014148D01*
X0102689Y0141901D01*
X0103504Y0142527D01*
X0103565Y0142568D01*
X0103565D01*
X0103606Y0142629D01*
X0104232Y0143444D01*
X0104653Y014446D01*
X0104796Y0145551D01*
X0104653Y0146642D01*
X0104232Y0147658D01*
X0103606Y0148473D01*
X0103565Y0148535D01*
X0101483Y0150617D01*
X010195Y0151564D01*
X0102248Y0151524D01*
X0103362Y0151671D01*
X01044Y0152101D01*
X0104751Y015237D01*
X0114089D01*
X0114097Y0152372D01*
X0115311Y0152531D01*
X0116448Y0153003D01*
X0117426Y0153753D01*
X0118176Y015473D01*
X0118647Y0155868D01*
X0118728Y0156484D01*
X0119727Y0156488D01*
X0119728Y0156479D01*
D02*
G37*
G36*
X009137Y0093943D02*
Y0088999D01*
X0091182Y00888D01*
X0090638Y0088492D01*
X009037Y0088431D01*
X0090315Y0088468D01*
X0090164Y0088498D01*
X0089918Y00886D01*
X0089651D01*
X00895Y008863D01*
X008636D01*
X0086105Y008863D01*
X008597Y0088648D01*
X0085884Y008871D01*
X0085844Y0089884D01*
X0085848Y0089888D01*
X0086006Y0089994D01*
X009037Y0094358D01*
X009137Y0093943D01*
D02*
G37*
D10*
X0100708Y0154288D02*
G03*
X0103788Y0154288I000154J000154D01*
G01*
X0100012Y0154985D02*
G03*
X0097057Y0154985I-0001477J-0001477D01*
G01*
X0097057Y0154985D02*
G03*
X0097057Y015203I0001477J-0001477D01*
G01*
X0102059Y0144074D02*
G03*
X0102059Y0147028I-0001477J0001477D01*
G01*
X0099104Y0144074D02*
G03*
X0102059Y0144074I0001477J0001477D01*
G01*
X0094103Y0149076D02*
G03*
X0091148Y0149076I-0001477J-0001477D01*
G01*
X0091148Y0149076D02*
G03*
X0091148Y0146121I0001477J-0001477D01*
G01*
X009615Y0138165D02*
G03*
X009615Y0141119I-0001477J0001477D01*
G01*
X0093195Y0138165D02*
G03*
X009615Y0138165I0001477J0001477D01*
G01*
X0088194Y0143166D02*
G03*
X0085239Y0143167I-0001477J-0001477D01*
G01*
X0085239Y0143166D02*
G03*
X0085239Y0140212I0001477J-0001477D01*
G01*
X00905Y0133474D02*
G03*
X0089457Y0135994I-0003566J0D01*
G01*
X0163322Y0074159D02*
G03*
X01655Y0076337I0J0002178D01*
G01*
X0161589Y0074159D02*
G03*
X01595Y007207I0J-0002089D01*
G01*
Y007207D02*
G03*
X0161589Y0069981I0002089J0D01*
G01*
X01715Y0067892D02*
G03*
X0169411Y0069981I-0002089J0D01*
G01*
Y0065802D02*
G03*
X01715Y0067892I0J0002089D01*
G01*
X0161589Y0065802D02*
G03*
X01595Y0063713I0J-0002089D01*
G01*
Y0063713D02*
G03*
X0161589Y0061624I0002089J0D01*
G01*
X0170911Y0059535D02*
G03*
X0168822Y0061624I-0002089J0D01*
G01*
Y0057446D02*
G03*
X0170911Y0059535I0J0002089D01*
G01*
X0161589Y0057446D02*
G03*
X01595Y0055357I0J-0002089D01*
G01*
Y0055357D02*
G03*
X0161589Y0053268I0002089J0D01*
G01*
X01655Y0051089D02*
G03*
X0163322Y0053268I-0002178J0D01*
G01*
X0132213Y0157089D02*
G03*
X0134802Y01545I0002589J0D01*
G01*
X0132213Y017489D02*
G03*
X0129624Y0177479I-0002589J0D01*
G01*
X0129624D02*
G03*
X0127035Y017489I0J-0002589D01*
G01*
X0124446Y0153898D02*
G03*
X0127035Y0156488I0J0002589D01*
G01*
X0121857D02*
G03*
X0124446Y0153898I0002589J0D01*
G01*
X0121857Y017489D02*
G03*
X0119267Y0177479I-0002589J0D01*
G01*
X0119267D02*
G03*
X0116678Y017489I0J-0002589D01*
G01*
X0114089Y01545D02*
G03*
X0116678Y0157089I0J0002589D01*
G01*
X00935Y0125D02*
X01175Y0149D01*
X0083Y00295D02*
X00935Y004D01*
Y0125D01*
X0085994Y00865D02*
X00895D01*
X0083994Y00845D02*
X0085994Y00865D01*
X0072Y00845D02*
X0083994D01*
X00845Y00915D02*
X00895Y00965D01*
Y0130934D02*
X00905Y0131934D01*
X00895Y00965D02*
Y0130934D01*
X0043Y00405D02*
X0059Y00245D01*
X0043Y00975D02*
X005Y01045D01*
X0043Y00405D02*
Y00975D01*
X00535Y0082D02*
X00565Y0079D01*
X00535Y0087D02*
X0061Y00945D01*
X00535Y0082D02*
Y0087D01*
X0061Y00945D02*
X0062D01*
X00565Y0037D02*
Y0079D01*
Y0037D02*
X0064Y00295D01*
X0062Y0083466D02*
X0064Y0081466D01*
Y004D02*
X00695Y00345D01*
X0062Y0083466D02*
Y00845D01*
X0064Y004D02*
Y0081466D01*
X02645Y01215D02*
X03D01*
X03Y01215D01*
X01645Y01245D02*
X02615D01*
X02645Y01215D01*
X02915Y0144D02*
Y0153D01*
X03Y01615D01*
X01655Y0104D02*
X01805Y0119D01*
X0253D01*
X018Y014D02*
X021D01*
X0179996Y0139996D02*
X018Y014D01*
X01865Y0113D02*
X0253D01*
X01175Y0149D02*
X01485D01*
X01755Y0102D02*
X01865Y0113D01*
X01755Y00945D02*
Y0102D01*
X01655Y00945D02*
Y0104D01*
X01455Y00945D02*
Y01055D01*
X01645Y01245D01*
X0104Y01545D02*
X011192D01*
X0103788Y0154288D02*
X0104Y01545D01*
X0100012Y0154985D02*
X0100708Y0154288D01*
X0100012Y0154985D02*
X0100012Y0154985D01*
X0097057Y0154985D02*
X0097057Y0154985D01*
X0097057Y015203D02*
X0097057Y015203D01*
X0102059Y0147028D01*
X0102059Y0147028D02*
X0102059Y0147028D01*
X0102059Y0144074D02*
X0102059Y0144074D01*
X0099104Y0144074D02*
X0099104Y0144074D01*
X0094103Y0149076D02*
X0099104Y0144074D01*
X0094103Y0149076D02*
X0094103Y0149076D01*
X0091148Y0149076D02*
X0091148Y0149076D01*
X0091148Y0146121D02*
X0091148Y0146121D01*
X009615Y0141119D01*
X009615Y0141119D02*
X009615Y0141119D01*
X009615Y0138165D02*
X009615Y0138165D01*
X0093195Y0138165D02*
X0093195Y0138165D01*
X0088194Y0143167D02*
X0093195Y0138165D01*
X0088194Y0143166D02*
X0088194Y0143167D01*
X0085239Y0143166D02*
X0085239Y0143167D01*
X0085239Y0140212D02*
X0085239Y0140212D01*
X0089457Y0135994D01*
X00905Y0131934D02*
Y0133474D01*
X01655Y0076337D02*
Y0083D01*
X0161589Y0074159D02*
X0163322D01*
X01595Y007207D02*
Y007207D01*
X0161589Y0069981D02*
X0169411D01*
X01715Y0067892D02*
Y0067892D01*
X0161589Y0065802D02*
X0169411D01*
X01595Y0063713D02*
Y0063713D01*
X0161589Y0061624D02*
X0168822D01*
X0170911Y0059535D02*
Y0059535D01*
X0161589Y0057446D02*
X0168822D01*
X01595Y0055357D02*
Y0055357D01*
X0161589Y0053268D02*
X0163322D01*
X01655Y005D02*
Y0051089D01*
Y0083D02*
Y00945D01*
Y0042D02*
Y005D01*
X0075Y00915D02*
X00845D01*
X0072Y00945D02*
X0075Y00915D01*
X01525Y00425D02*
Y0084D01*
X01455Y00945D02*
X0145789Y0094211D01*
Y0090711D02*
Y0094211D01*
Y0090711D02*
X01525Y0084D01*
X0142Y0032D02*
X01525Y00425D01*
X00975Y0032D02*
X0142D01*
X00995Y0025D02*
X01485D01*
X01655Y0042D01*
X009Y00245D02*
X00975Y0032D01*
X0059Y00245D02*
X009D01*
X0134802Y01545D02*
X0139D01*
X0132213Y0157089D02*
Y017489D01*
X0129624Y0177479D02*
X0129624D01*
X0127035Y0156488D02*
Y017489D01*
X0124446Y0153898D02*
X0124446D01*
X0121857Y0156488D02*
Y017489D01*
X0119267Y0177479D02*
X0119267D01*
X0116678Y0157089D02*
Y017489D01*
X0113Y01545D02*
X0114089D01*
X0139D02*
X0163D01*
X011192D02*
X0113D01*
X0174885Y0168885D02*
X01755Y01695D01*
X0174885Y0166385D02*
Y0168885D01*
X0163Y01545D02*
X0174885Y0166385D01*
X0064Y00295D02*
X0083D01*
X005Y01045D02*
X0062D01*
X00695Y00345D02*
X0080083D01*
X0100708Y0344446D02*
G03*
X0103788Y0344446I000154J000154D01*
G01*
X0100012Y0345142D02*
G03*
X0097057Y0345142I-0001477J-0001477D01*
G01*
X0097057Y0345142D02*
G03*
X0097057Y0342188I0001477J-0001477D01*
G01*
X0102059Y0334231D02*
G03*
X0102059Y0337186I-0001477J0001477D01*
G01*
X0099104Y0334231D02*
G03*
X0102059Y0334231I0001477J0001477D01*
G01*
X0094103Y0339233D02*
G03*
X0091148Y0339233I-0001477J-0001477D01*
G01*
X0091148Y0339233D02*
G03*
X0091148Y0336279I0001477J-0001477D01*
G01*
X009615Y0328322D02*
G03*
X009615Y0331277I-0001477J0001477D01*
G01*
X0093195Y0328322D02*
G03*
X009615Y0328322I0001477J0001477D01*
G01*
X0088194Y0333324D02*
G03*
X0085239Y0333324I-0001477J-0001477D01*
G01*
X0085239Y0333324D02*
G03*
X0085239Y0330369I0001477J-0001477D01*
G01*
X00905Y0323631D02*
G03*
X0089457Y0326151I-0003566J0D01*
G01*
X0163322Y0264317D02*
G03*
X01655Y0266495I0J0002178D01*
G01*
X0161589Y0264317D02*
G03*
X01595Y0262227I0J-0002089D01*
G01*
Y0262227D02*
G03*
X0161589Y0260138I0002089J0D01*
G01*
X01715Y0258049D02*
G03*
X0169411Y0260138I-0002089J0D01*
G01*
Y025596D02*
G03*
X01715Y0258049I0J0002089D01*
G01*
X0161589Y025596D02*
G03*
X01595Y0253871I0J-0002089D01*
G01*
Y0253871D02*
G03*
X0161589Y0251782I0002089J0D01*
G01*
X0170911Y0249693D02*
G03*
X0168822Y0251782I-0002089J0D01*
G01*
Y0247603D02*
G03*
X0170911Y0249693I0J0002089D01*
G01*
X0161589Y0247603D02*
G03*
X01595Y0245514I0J-0002089D01*
G01*
Y0245514D02*
G03*
X0161589Y0243425I0002089J0D01*
G01*
X01655Y0241247D02*
G03*
X0163322Y0243425I-0002178J0D01*
G01*
X0132213Y0347247D02*
G03*
X0134802Y0344657I0002589J0D01*
G01*
X0132213Y0365048D02*
G03*
X0129624Y0367637I-0002589J0D01*
G01*
X0129624D02*
G03*
X0127035Y0365048I0J-0002589D01*
G01*
X0124446Y0344056D02*
G03*
X0127035Y0346645I0J0002589D01*
G01*
X0121857D02*
G03*
X0124446Y0344056I0002589J0D01*
G01*
X0121857Y0365048D02*
G03*
X0119267Y0367637I-0002589J0D01*
G01*
X0119267D02*
G03*
X0116678Y0365048I0J-0002589D01*
G01*
X0114089Y0344657D02*
G03*
X0116678Y0347247I0J0002589D01*
G01*
X00935Y0315158D02*
X01175Y0339158D01*
X0083Y0219657D02*
X00935Y0230157D01*
Y0315158D01*
X0085994Y0276658D02*
X00895D01*
X0083994Y0274658D02*
X0085994Y0276658D01*
X0072Y0274658D02*
X0083994D01*
X00845Y0281658D02*
X00895Y0286658D01*
Y0321091D02*
X00905Y0322091D01*
X00895Y0286658D02*
Y0321091D01*
X0043Y0230658D02*
X0059Y0214657D01*
X0043Y0287657D02*
X005Y0294657D01*
X0043Y0230658D02*
Y0287657D01*
X00535Y0272158D02*
X00565Y0269158D01*
X00535Y0277157D02*
X0061Y0284658D01*
X00535Y0272158D02*
Y0277157D01*
X0061Y0284658D02*
X0062D01*
X00565Y0227157D02*
Y0269158D01*
Y0227157D02*
X0064Y0219657D01*
X0062Y0273623D02*
X0064Y0271623D01*
Y0230157D02*
X00695Y0224658D01*
X0062Y0273623D02*
Y0274658D01*
X0064Y0230157D02*
Y0271623D01*
X02645Y0311658D02*
X03D01*
X03Y0311658D01*
X01645Y0314657D02*
X02615D01*
X02645Y0311658D01*
X02915Y0334157D02*
Y0343158D01*
X03Y0351658D01*
X01655Y0294158D02*
X01805Y0309157D01*
X0253D01*
X018Y0330157D02*
X021D01*
X0179996Y0330153D02*
X018Y0330157D01*
X01865Y0303157D02*
X0253D01*
X01175Y0339158D02*
X01485D01*
X01755Y0292158D02*
X01865Y0303157D01*
X01755Y0284658D02*
Y0292158D01*
X01655Y0284658D02*
Y0294158D01*
X01455Y0284658D02*
Y0295657D01*
X01645Y0314657D01*
X0104Y0344657D02*
X011192D01*
X0103788Y0344446D02*
X0104Y0344657D01*
X0100012Y0345142D02*
X0100708Y0344446D01*
X0100012Y0345142D02*
X0100012Y0345142D01*
X0097057Y0345142D02*
X0097057Y0345142D01*
X0097057Y0342188D02*
X0097057Y0342188D01*
X0102059Y0337186D01*
X0102059Y0337186D02*
X0102059Y0337186D01*
X0102059Y0334231D02*
X0102059Y0334231D01*
X0099104Y0334231D02*
X0099104Y0334231D01*
X0094103Y0339233D02*
X0099104Y0334231D01*
X0094103Y0339233D02*
X0094103Y0339233D01*
X0091148Y0339233D02*
X0091148Y0339233D01*
X0091148Y0336279D02*
X0091148Y0336279D01*
X009615Y0331277D01*
X009615Y0331277D02*
X009615Y0331277D01*
X009615Y0328322D02*
X009615Y0328322D01*
X0093195Y0328322D02*
X0093195Y0328322D01*
X0088194Y0333324D02*
X0093195Y0328322D01*
X0088194Y0333324D02*
X0088194Y0333324D01*
X0085239Y0333324D02*
X0085239Y0333324D01*
X0085239Y0330369D02*
X0085239Y0330369D01*
X0089457Y0326151D01*
X00905Y0322091D02*
Y0323631D01*
X01655Y0266495D02*
Y0273158D01*
X0161589Y0264317D02*
X0163322D01*
X01595Y0262227D02*
Y0262227D01*
X0161589Y0260138D02*
X0169411D01*
X01715Y0258049D02*
Y0258049D01*
X0161589Y025596D02*
X0169411D01*
X01595Y0253871D02*
Y0253871D01*
X0161589Y0251782D02*
X0168822D01*
X0170911Y0249693D02*
Y0249693D01*
X0161589Y0247603D02*
X0168822D01*
X01595Y0245514D02*
Y0245514D01*
X0161589Y0243425D02*
X0163322D01*
X01655Y0240158D02*
Y0241247D01*
Y0273158D02*
Y0284658D01*
Y0232157D02*
Y0240158D01*
X0075Y0281658D02*
X00845D01*
X0072Y0284658D02*
X0075Y0281658D01*
X01525Y0232658D02*
Y0274158D01*
X01455Y0284658D02*
X0145789Y0284368D01*
Y0280868D02*
Y0284368D01*
Y0280868D02*
X01525Y0274158D01*
X0142Y0222158D02*
X01525Y0232658D01*
X00975Y0222158D02*
X0142D01*
X00995Y0215158D02*
X01485D01*
X01655Y0232157D01*
X009Y0214657D02*
X00975Y0222158D01*
X0059Y0214657D02*
X009D01*
X0134802Y0344657D02*
X0139D01*
X0132213Y0347247D02*
Y0365048D01*
X0129624Y0367637D02*
X0129624D01*
X0127035Y0346645D02*
Y0365048D01*
X0124446Y0344056D02*
X0124446D01*
X0121857Y0346645D02*
Y0365048D01*
X0119267Y0367637D02*
X0119267D01*
X0116678Y0347247D02*
Y0365048D01*
X0113Y0344657D02*
X0114089D01*
X0139D02*
X0163D01*
X011192D02*
X0113D01*
X0174885Y0359042D02*
X01755Y0359658D01*
X0174885Y0356542D02*
Y0359042D01*
X0163Y0344657D02*
X0174885Y0356542D01*
X0064Y0219657D02*
X0083D01*
X005Y0294657D02*
X0062D01*
X00695Y0224658D02*
X0080083D01*
D11*
X0098Y00615D02*
X0103Y00565D01*
X0098Y0100779D02*
X01035Y010628D01*
X0098Y00615D02*
Y0100779D01*
X0103Y003922D02*
Y00565D01*
Y006678D02*
X0114742Y0055038D01*
Y0052849D02*
X0115591Y0052D01*
X0114742Y0052849D02*
Y0055038D01*
X00805Y01005D02*
Y0116D01*
Y00975D02*
Y01005D01*
X0072Y01245D02*
X00805Y0116D01*
X0086Y01005D02*
Y01205D01*
X0072Y01345D02*
X0086Y01205D01*
X01035Y007872D02*
X0104434D01*
X0105714Y008D02*
X0115591D01*
X0104434Y007872D02*
X0105714Y008D01*
X01035Y0098311D02*
X01045Y0099311D01*
X01035Y007872D02*
Y0098311D01*
X01045Y0099311D02*
Y00995D01*
X0107D01*
X0067Y01195D02*
X0072Y01245D01*
X0057279Y01195D02*
X0067D01*
X0050779Y0113D02*
X0057279Y01195D01*
X0054464Y012975D02*
X006725D01*
X0051714Y01325D02*
X0054464Y012975D01*
X0050779Y01325D02*
X0051714D01*
X006725Y012975D02*
X0072Y01345D01*
X00145Y01325D02*
X00145Y01325D01*
X0023221D01*
X0098Y0251658D02*
X0103Y0246657D01*
X0098Y0290937D02*
X01035Y0296437D01*
X0098Y0251658D02*
Y0290937D01*
X0103Y0229378D02*
Y0246657D01*
Y0256937D02*
X0114742Y0245195D01*
Y0243006D02*
X0115591Y0242158D01*
X0114742Y0243006D02*
Y0245195D01*
X00805Y0290657D02*
Y0306157D01*
Y0287657D02*
Y0290657D01*
X0072Y0314657D02*
X00805Y0306157D01*
X0086Y0290657D02*
Y0310658D01*
X0072Y0324658D02*
X0086Y0310658D01*
X01035Y0268878D02*
X0104434D01*
X0105714Y0270158D02*
X0115591D01*
X0104434Y0268878D02*
X0105714Y0270158D01*
X01035Y0288468D02*
X01045Y0289468D01*
X01035Y0268878D02*
Y0288468D01*
X01045Y0289468D02*
Y0289657D01*
X0107D01*
X0067Y0309658D02*
X0072Y0314657D01*
X0057279Y0309658D02*
X0067D01*
X0050779Y0303157D02*
X0057279Y0309658D01*
X0054464Y0319907D02*
X006725D01*
X0051714Y0322657D02*
X0054464Y0319907D01*
X0050779Y0322657D02*
X0051714D01*
X006725Y0319907D02*
X0072Y0324658D01*
X00145Y0322657D02*
X00145Y0322657D01*
X0023221D01*
D12*
X00185Y0009D02*
X01195D01*
X00155D02*
X00185D01*
X00155Y0012D02*
X00185Y0009D01*
X0295688Y0105D02*
X0299188Y01015D01*
X0191Y0105D02*
X0295688D01*
X0185958Y0099958D02*
X0191Y0105D01*
X0299188Y01015D02*
X03D01*
X0185958Y0094958D02*
Y0099958D01*
X01855Y00945D02*
X0185958Y0094958D01*
X01255Y0015D02*
X01875D01*
X02095Y0037D02*
Y00465D01*
X01875Y0015D02*
X02095Y0037D01*
X02035Y00525D02*
Y0058D01*
Y00525D02*
X02095Y00465D01*
X02035Y0058D02*
X0208Y00625D01*
X01855Y00945D02*
Y00945D01*
Y00945D02*
X0208Y0072D01*
Y00625D02*
Y0072D01*
X01695Y0023D02*
X0172Y00255D01*
X01195Y0009D02*
X01255Y0015D01*
X00615Y002D02*
X00685D01*
X00155Y0009D02*
Y0012D01*
X0023221Y00405D02*
X00325Y0049779D01*
X0021168Y0038447D02*
X0023221Y00405D01*
X00325Y0049779D02*
Y0135D01*
X0004343Y0043657D02*
Y0054D01*
X0028Y002D02*
X00615D01*
X0004421Y0054079D02*
Y0132421D01*
X0004343Y0043657D02*
X0028Y002D01*
X00325Y0135D02*
X0062Y01645D01*
X01745Y0028D02*
Y004828D01*
X01815Y0055279D02*
Y0069279D01*
X01745Y004828D02*
X01815Y0055279D01*
X0172Y00255D02*
X01745Y0028D01*
X0128811Y0005D02*
X022D01*
X02495Y00345D01*
X0137Y01845D02*
X0252D01*
X0072D02*
X0137D01*
X0145Y00485D02*
Y0063D01*
X0139062Y0042562D02*
X0145Y00485D01*
X0138562Y0069438D02*
X0145Y0063D01*
X0135591Y007D02*
X0136153Y0069438D01*
X0138562D01*
X0135591Y0042D02*
X0136153Y0042562D01*
X0139062D01*
X0062Y01745D02*
X01065D01*
X01115Y01695D01*
Y01655D02*
Y01695D01*
X01455D02*
Y0176D01*
X0137Y01845D02*
X01455Y0176D01*
X02495Y00345D02*
X02625D01*
X02675Y00395D01*
Y0056591D01*
X0259Y0065091D02*
X02675Y0056591D01*
X0062Y01845D02*
X0072D01*
X0072Y01845D01*
X00565Y01845D02*
X0062D01*
X00045Y01325D02*
X00565Y01845D01*
X0004421Y0132421D02*
X00045Y01325D01*
X0004343Y0054D02*
X0004421Y0054079D01*
X00185Y0199158D02*
X01195D01*
X00155D02*
X00185D01*
X00155Y0202157D02*
X00185Y0199158D01*
X0295688Y0295158D02*
X0299188Y0291657D01*
X0191Y0295158D02*
X0295688D01*
X0185958Y0290115D02*
X0191Y0295158D01*
X0299188Y0291657D02*
X03D01*
X0185958Y0285116D02*
Y0290115D01*
X01855Y0284658D02*
X0185958Y0285116D01*
X01255Y0205157D02*
X01875D01*
X02095Y0227157D02*
Y0236658D01*
X01875Y0205157D02*
X02095Y0227157D01*
X02035Y0242657D02*
Y0248158D01*
Y0242657D02*
X02095Y0236658D01*
X02035Y0248158D02*
X0208Y0252658D01*
X01855Y0284658D02*
Y0284658D01*
Y0284658D02*
X0208Y0262158D01*
Y0252658D02*
Y0262158D01*
X01695Y0213158D02*
X0172Y0215657D01*
X01195Y0199158D02*
X01255Y0205157D01*
X00615Y0210157D02*
X00685D01*
X00155Y0199158D02*
Y0202157D01*
X0023221Y0230658D02*
X00325Y0239937D01*
X0021168Y0228605D02*
X0023221Y0230658D01*
X00325Y0239937D02*
Y0325157D01*
X0004343Y0233815D02*
Y0244158D01*
X0028Y0210157D02*
X00615D01*
X0004421Y0244236D02*
Y0322579D01*
X0004343Y0233815D02*
X0028Y0210157D01*
X00325Y0325157D02*
X0062Y0354658D01*
X01745Y0218158D02*
Y0238437D01*
X01815Y0245437D02*
Y0259437D01*
X01745Y0238437D02*
X01815Y0245437D01*
X0172Y0215657D02*
X01745Y0218158D01*
X0128811Y0195158D02*
X022D01*
X02495Y0224658D01*
X0137Y0374658D02*
X0252D01*
X0072D02*
X0137D01*
X0145Y0238657D02*
Y0253157D01*
X0139062Y0232719D02*
X0145Y0238657D01*
X0138562Y0259595D02*
X0145Y0253157D01*
X0135591Y0260157D02*
X0136153Y0259595D01*
X0138562D01*
X0135591Y0232157D02*
X0136153Y0232719D01*
X0139062D01*
X0062Y0364657D02*
X01065D01*
X01115Y0359658D01*
Y0355658D02*
Y0359658D01*
X01455D02*
Y0366158D01*
X0137Y0374658D02*
X01455Y0366158D01*
X02495Y0224658D02*
X02625D01*
X02675Y0229658D01*
Y0246748D01*
X0259Y0255248D02*
X02675Y0246748D01*
X0062Y0374658D02*
X0072D01*
X0072Y0374658D01*
X00565Y0374658D02*
X0062D01*
X00045Y0322657D02*
X00565Y0374658D01*
X0004421Y0322579D02*
X00045Y0322657D01*
X0004343Y0244158D02*
X0004421Y0244236D01*
D13*
X0265054Y01315D02*
X03D01*
X0263Y01335D02*
X0263054D01*
X0265054Y01315D01*
X0252Y01345D02*
X02555Y0138D01*
X02965D01*
X03Y01415D01*
X0251351Y0145149D02*
X0252Y01445D01*
X0249482Y0145149D02*
X0251351D01*
X0249132Y01455D02*
X0249482Y0145149D01*
X0157Y01455D02*
X0249132D01*
X01355Y0124D02*
X0157Y01455D01*
X027075Y0164D02*
X0278D01*
X02855Y01715D02*
X03D01*
X0278Y0164D02*
X02855Y01715D01*
X0184054Y01345D02*
X0252D01*
X0181554Y0132D02*
X0184054Y01345D01*
X01815Y0132D02*
X0181554D01*
X01555Y0101D02*
X01655Y0111D01*
X01555Y00945D02*
Y0101D01*
X01355Y00945D02*
Y0124D01*
X0303697Y0186803D02*
X0307Y01835D01*
X0255172Y0186803D02*
X0303697D01*
X0252868Y01845D02*
X0255172Y0186803D01*
X0252Y01845D02*
X0252868D01*
X03Y01115D02*
X0300743Y0112243D01*
X0303743D02*
X0307Y01155D01*
Y01835D01*
X0300743Y0112243D02*
X0303743D01*
X0273409Y0073D02*
X02845Y0061909D01*
X024422Y0073D02*
X0273409D01*
X024Y0068779D02*
X024422Y0073D01*
X024Y0068779D02*
X0240799D01*
X02845Y00535D02*
Y0061909D01*
X0299684Y00385D02*
X0300749D01*
X0298088Y0040096D02*
X0299684Y00385D01*
X0297904Y0040096D02*
X0298088D01*
X02845Y00535D02*
X0297904Y0040096D01*
X02845Y0061909D02*
X03015Y0078909D01*
X0062Y01645D02*
X0072D01*
X0014343Y0054D02*
X0023221D01*
X0014324Y00735D02*
X0023221D01*
X0014324Y00735D02*
X0014324Y00735D01*
X0014306Y00935D02*
X0014806Y0093D01*
X002272D01*
X0023221Y00925D01*
X0014403Y0113D02*
X0023221D01*
X0265054Y0321657D02*
X03D01*
X0263Y0323657D02*
X0263054D01*
X0265054Y0321657D01*
X0252Y0324658D02*
X02555Y0328157D01*
X02965D01*
X03Y0331658D01*
X0251351Y0335307D02*
X0252Y0334658D01*
X0249482Y0335307D02*
X0251351D01*
X0249132Y0335658D02*
X0249482Y0335307D01*
X0157Y0335658D02*
X0249132D01*
X01355Y0314158D02*
X0157Y0335658D01*
X027075Y0354157D02*
X0278D01*
X02855Y0361658D02*
X03D01*
X0278Y0354157D02*
X02855Y0361658D01*
X0184054Y0324658D02*
X0252D01*
X0181554Y0322158D02*
X0184054Y0324658D01*
X01815Y0322158D02*
X0181554D01*
X01555Y0291158D02*
X01655Y0301157D01*
X01555Y0284658D02*
Y0291158D01*
X01355Y0284658D02*
Y0314158D01*
X0303697Y0376961D02*
X0307Y0373657D01*
X0255172Y0376961D02*
X0303697D01*
X0252868Y0374658D02*
X0255172Y0376961D01*
X0252Y0374658D02*
X0252868D01*
X03Y0301658D02*
X0300743Y03024D01*
X0303743D02*
X0307Y0305658D01*
Y0373657D01*
X0300743Y03024D02*
X0303743D01*
X0273409Y0263158D02*
X02845Y0252067D01*
X024422Y0263158D02*
X0273409D01*
X024Y0258937D02*
X024422Y0263158D01*
X024Y0258937D02*
X0240799D01*
X02845Y0243657D02*
Y0252067D01*
X0299684Y0228658D02*
X0300749D01*
X0298088Y0230253D02*
X0299684Y0228658D01*
X0297904Y0230253D02*
X0298088D01*
X02845Y0243657D02*
X0297904Y0230253D01*
X02845Y0252067D02*
X03015Y0269067D01*
X0062Y0354658D02*
X0072D01*
X0014343Y0244158D02*
X0023221D01*
X0014324Y0263657D02*
X0023221D01*
X0014324Y0263657D02*
X0014324Y0263657D01*
X0014306Y0283658D02*
X0014806Y0283157D01*
X002272D01*
X0023221Y0282658D01*
X0014403Y0303157D02*
X0023221D01*
D14*
X0103Y003922D02*
D03*
Y006678D02*
D03*
X01035Y010628D02*
D03*
Y007872D02*
D03*
X02105Y0083059D02*
D03*
Y00555D02*
D03*
X01815Y0069279D02*
D03*
Y0041721D02*
D03*
X0050779Y0054D02*
D03*
X0023221Y0054D02*
D03*
X0050779Y00735D02*
D03*
X0023221D02*
D03*
X0050779Y0113D02*
D03*
X0023221Y0113D02*
D03*
X0050779Y00935D02*
D03*
X0023221D02*
D03*
X0050779Y01325D02*
D03*
X0023221Y01325D02*
D03*
X024Y0041221D02*
D03*
Y0068779D02*
D03*
X0103Y0229378D02*
D03*
Y0256937D02*
D03*
X01035Y0296437D02*
D03*
Y0268878D02*
D03*
X02105Y0273217D02*
D03*
Y0245657D02*
D03*
X01815Y0259437D02*
D03*
Y0231878D02*
D03*
X0050779Y0244158D02*
D03*
X0023221Y0244158D02*
D03*
X0050779Y0263657D02*
D03*
X0023221D02*
D03*
X0050779Y0303157D02*
D03*
X0023221Y0303157D02*
D03*
X0050779Y0283658D02*
D03*
X0023221D02*
D03*
X0050779Y0322657D02*
D03*
X0023221Y0322657D02*
D03*
X024Y0231378D02*
D03*
Y0258937D02*
D03*
D15*
X01755Y01695D02*
D03*
X01655D02*
D03*
X01555D02*
D03*
X0252Y01845D02*
D03*
Y01745D02*
D03*
Y01645D02*
D03*
Y01545D02*
D03*
Y01445D02*
D03*
X01955Y00945D02*
D03*
X01855D02*
D03*
X01755D02*
D03*
X01655D02*
D03*
X01555D02*
D03*
X01455D02*
D03*
X01355D02*
D03*
X0072Y00545D02*
D03*
Y00645D02*
D03*
Y00745D02*
D03*
X0072Y00845D02*
D03*
X0072Y00945D02*
D03*
Y01045D02*
D03*
Y01145D02*
D03*
Y01245D02*
D03*
Y01345D02*
D03*
Y01445D02*
D03*
Y01545D02*
D03*
Y01645D02*
D03*
X0072Y01745D02*
D03*
X0072Y01845D02*
D03*
X01755Y0359658D02*
D03*
X01655D02*
D03*
X01555D02*
D03*
X0252Y0374658D02*
D03*
Y0364657D02*
D03*
Y0354658D02*
D03*
Y0344657D02*
D03*
Y0334658D02*
D03*
X01955Y0284658D02*
D03*
X01855D02*
D03*
X01755D02*
D03*
X01655D02*
D03*
X01555D02*
D03*
X01455D02*
D03*
X01355D02*
D03*
X0072Y0244657D02*
D03*
Y0254658D02*
D03*
Y0264657D02*
D03*
X0072Y0274658D02*
D03*
X0072Y0284658D02*
D03*
Y0294657D02*
D03*
Y0304658D02*
D03*
Y0314657D02*
D03*
Y0324658D02*
D03*
Y0334658D02*
D03*
Y0344657D02*
D03*
Y0354658D02*
D03*
X0072Y0364657D02*
D03*
X0072Y0374658D02*
D03*
D16*
X01455Y01695D02*
D03*
X02055Y00945D02*
D03*
X01455Y0359658D02*
D03*
X02055Y0284658D02*
D03*
D17*
X0252Y0005D02*
D03*
X027075Y0154D02*
D03*
X0252Y0195158D02*
D03*
X027075Y0344158D02*
D03*
D18*
X0252Y0015D02*
D03*
Y0025D02*
D03*
X027075Y0164D02*
D03*
Y0174D02*
D03*
X0252Y0205157D02*
D03*
Y0215158D02*
D03*
X027075Y0354157D02*
D03*
Y0364158D02*
D03*
D19*
X001Y01815D02*
D03*
Y01715D02*
D03*
X001Y01615D02*
D03*
X03Y01815D02*
D03*
X03Y01715D02*
D03*
Y01615D02*
D03*
Y01215D02*
D03*
Y01115D02*
D03*
Y01015D02*
D03*
Y01415D02*
D03*
Y01315D02*
D03*
X001Y01515D02*
D03*
X03Y01515D02*
D03*
X0062Y01345D02*
D03*
Y01445D02*
D03*
Y01045D02*
D03*
Y01145D02*
D03*
Y01245D02*
D03*
Y01545D02*
D03*
Y01645D02*
D03*
Y01745D02*
D03*
X0062Y01845D02*
D03*
X0062Y00845D02*
D03*
X0062Y00945D02*
D03*
X001Y0371657D02*
D03*
Y0361658D02*
D03*
X001Y0351658D02*
D03*
X03Y0371657D02*
D03*
X03Y0361658D02*
D03*
Y0351658D02*
D03*
Y0311658D02*
D03*
Y0301658D02*
D03*
Y0291657D02*
D03*
Y0331658D02*
D03*
Y0321657D02*
D03*
X001Y0341657D02*
D03*
X03Y0341657D02*
D03*
X0062Y0324658D02*
D03*
Y0334658D02*
D03*
Y0294657D02*
D03*
Y0304658D02*
D03*
Y0314657D02*
D03*
Y0344657D02*
D03*
Y0354658D02*
D03*
Y0364657D02*
D03*
X0062Y0374658D02*
D03*
X0062Y0274658D02*
D03*
X0062Y0284658D02*
D03*
D20*
X02915Y0078909D02*
D03*
X03015D02*
D03*
X02915Y0058909D02*
D03*
X03015D02*
D03*
X0290749Y00385D02*
D03*
X0300749D02*
D03*
X0290749Y00185D02*
D03*
X0300749D02*
D03*
X023Y0045091D02*
D03*
X022D02*
D03*
X023Y0065091D02*
D03*
X022D02*
D03*
X02015Y0045091D02*
D03*
X01915D02*
D03*
X02015Y0065091D02*
D03*
X01915D02*
D03*
X0249D02*
D03*
X0259D02*
D03*
X0249Y0045091D02*
D03*
X0259D02*
D03*
X0135591Y008D02*
D03*
Y007D02*
D03*
X0115591Y008D02*
D03*
Y007D02*
D03*
X0135591Y0052D02*
D03*
Y0042D02*
D03*
X0115591Y0052D02*
D03*
X0115591Y0042D02*
D03*
X02915Y0269067D02*
D03*
X03015D02*
D03*
X02915Y0249067D02*
D03*
X03015D02*
D03*
X0290749Y0228658D02*
D03*
X0300749D02*
D03*
X0290749Y0208658D02*
D03*
X0300749D02*
D03*
X023Y0235248D02*
D03*
X022D02*
D03*
X023Y0255248D02*
D03*
X022D02*
D03*
X02015Y0235248D02*
D03*
X01915D02*
D03*
X02015Y0255248D02*
D03*
X01915D02*
D03*
X0249D02*
D03*
X0259D02*
D03*
X0249Y0235248D02*
D03*
X0259D02*
D03*
X0135591Y0270158D02*
D03*
Y0260157D02*
D03*
X0115591Y0270158D02*
D03*
Y0260157D02*
D03*
X0135591Y0242158D02*
D03*
Y0232157D02*
D03*
X0115591Y0242158D02*
D03*
X0115591Y0232157D02*
D03*
D21*
X0252Y01345D02*
D03*
X0072Y00445D02*
D03*
X0252Y0324658D02*
D03*
X0072Y0234658D02*
D03*
D22*
X0004343Y0054D02*
D03*
X0004324Y00735D02*
D03*
X0004306Y00935D02*
D03*
X0004403Y0113D02*
D03*
X00045Y01325D02*
D03*
X0004343Y0244158D02*
D03*
X0004324Y0263657D02*
D03*
X0004306Y0283658D02*
D03*
X0004403Y0303157D02*
D03*
X00045Y0322657D02*
D03*
D23*
X0014343Y0054D02*
D03*
X0014324Y00735D02*
D03*
X0014306Y00935D02*
D03*
X0014403Y0113D02*
D03*
X00145Y01325D02*
D03*
X0014343Y0244158D02*
D03*
X0014324Y0263657D02*
D03*
X0014306Y0283658D02*
D03*
X0014403Y0303157D02*
D03*
X00145Y0322657D02*
D03*
D24*
X00895Y00865D02*
D03*
X0086D02*
D03*
X01695Y0023D02*
D03*
X00685Y002D02*
D03*
X00155Y0012D02*
D03*
Y0009D02*
D03*
X0023221Y00405D02*
D03*
X0021168Y0038447D02*
D03*
X0138596Y0005D02*
D03*
X0128811D02*
D03*
X0133473D02*
D03*
X0263Y01335D02*
D03*
X02915Y0144D02*
D03*
X0253Y0119D02*
D03*
X018Y014D02*
D03*
X021D02*
D03*
X0253Y0113D02*
D03*
X01815Y0132D02*
D03*
X01485Y0149D02*
D03*
X01655Y0111D02*
D03*
X0086Y01045D02*
D03*
X00805Y01005D02*
D03*
Y00975D02*
D03*
X0086Y01005D02*
D03*
X01045Y00995D02*
D03*
X0107D02*
D03*
X00995Y0025D02*
D03*
X01115Y01695D02*
D03*
Y01655D02*
D03*
X0080083Y00345D02*
D03*
X00615Y002D02*
D03*
X0172Y00255D02*
D03*
X00895Y0276658D02*
D03*
X0086D02*
D03*
X01695Y0213158D02*
D03*
X00685Y0210157D02*
D03*
X00155Y0202157D02*
D03*
Y0199158D02*
D03*
X0023221Y0230658D02*
D03*
X0021168Y0228605D02*
D03*
X0138596Y0195158D02*
D03*
X0128811D02*
D03*
X0133473D02*
D03*
X0263Y0323657D02*
D03*
X02915Y0334157D02*
D03*
X0253Y0309157D02*
D03*
X018Y0330157D02*
D03*
X021D02*
D03*
X0253Y0303157D02*
D03*
X01815Y0322158D02*
D03*
X01485Y0339158D02*
D03*
X01655Y0301157D02*
D03*
X0086Y0294657D02*
D03*
X00805Y0290657D02*
D03*
Y0287657D02*
D03*
X0086Y0290657D02*
D03*
X01045Y0289657D02*
D03*
X0107D02*
D03*
X00995Y0215158D02*
D03*
X01115Y0359658D02*
D03*
Y0355658D02*
D03*
X0080083Y0224658D02*
D03*
X00615Y0210157D02*
D03*
X0172Y0215657D02*
D03*
M02*
