<?xml version="1.0" standalone="no"?>
<!DOCTYPE svg PUBLIC "-//W3C//DTD SVG 20010904//EN"
 "http://www.w3.org/TR/2001/REC-SVG-20010904/DTD/svg10.dtd">
<svg version="1.0" xmlns="http://www.w3.org/2000/svg"
 width="512.000000pt" height="512.000000pt" viewBox="0 0 512.000000 512.000000"
 preserveAspectRatio="xMidYMid meet">

<g transform="translate(0.000000,512.000000) scale(0.100000,-0.100000)"
fill="#000000" stroke="none">
<path d="M97 4909 c-56 -30 -90 -87 -89 -153 0 -30 6 -64 12 -77 7 -12 362
-489 789 -1058 428 -570 781 -1042 785 -1049 5 -9 -252 -360 -777 -1060 -431
-576 -790 -1058 -797 -1070 -6 -13 -12 -48 -12 -79 -1 -45 5 -62 28 -95 41
-58 86 -80 154 -75 48 3 349 139 2390 1081 1284 593 2367 1093 2405 1112 75
37 111 76 125 138 15 67 -23 156 -80 189 -14 8 -1099 510 -2412 1116 -2616
1207 -2431 1128 -2521 1080z"/>
</g>
</svg>
